<svg class="marks" width="355" height="340" viewBox="0 0 355 340" version="1.1" xmlns="http://www.w3.org/2000/svg" xmlns:xlink="http://www.w3.org/1999/xlink"><rect width="355" height="340" style="fill: #FFFFFF;"></rect><g transform="translate(51,34)"><g class="mark-group role-frame root"><g transform="translate(0,0)"><path class="background" d="M0.5,0.5h100v300h-100Z" style="fill: none; stroke: #ddd;"></path><g><g class="mark-group role-axis"><g transform="translate(0.5,0.5)"><path class="background" d="M0,0h0v0h0Z" style="pointer-events: none; fill: none;"></path><g><g class="mark-rule role-axis-grid" style="pointer-events: none;"><line transform="translate(0,300)" x2="100" y2="0" style="fill: none; stroke: #ddd; stroke-width: 1; opacity: 1;"></line><line transform="translate(0,225)" x2="100" y2="0" style="fill: none; stroke: #ddd; stroke-width: 1; opacity: 1;"></line><line transform="translate(0,150)" x2="100" y2="0" style="fill: none; stroke: #ddd; stroke-width: 1; opacity: 1;"></line><line transform="translate(0,75)" x2="100" y2="0" style="fill: none; stroke: #ddd; stroke-width: 1; opacity: 1;"></line><line transform="translate(0,0)" x2="100" y2="0" style="fill: none; stroke: #ddd; stroke-width: 1; opacity: 1;"></line></g></g></g></g><g class="mark-symbol role-mark layer_0_layer_0_marks"><path transform="translate(50,186.3357943921)" d="M2.7386127875258306,0A2.7386127875258306,2.7386127875258306,0,1,1,-2.7386127875258306,0A2.7386127875258306,2.7386127875258306,0,1,1,2.7386127875258306,0" style="fill: none; stroke: #4c78a8; stroke-width: 2; opacity: 0.7;"></path><path transform="translate(50,184.75154591979003)" d="M2.7386127875258306,0A2.7386127875258306,2.7386127875258306,0,1,1,-2.7386127875258306,0A2.7386127875258306,2.7386127875258306,0,1,1,2.7386127875258306,0" style="fill: none; stroke: #4c78a8; stroke-width: 2; opacity: 0.7;"></path></g><g class="mark-rule role-mark layer_0_layer_1_layer_0_marks"><line transform="translate(50,181.19162312519754)" x2="0" y2="-67.36941556891458" style="fill: none; stroke: black;"></line><line transform="translate(30,284.64109014238556)" x2="0" y2="-34.07383487536816" style="fill: none; stroke: black;"></line><line transform="translate(90,215.28639247346385)" x2="0" y2="-48.45561702902103" style="fill: none; stroke: black;"></line><line transform="translate(70,192.49820016084323)" x2="0" y2="-12.528916490276856" style="fill: none; stroke: black;"></line><line transform="translate(10,240.3032094059095)" x2="0" y2="-61.653901532006955" style="fill: none; stroke: black;"></line></g><g class="mark-rule role-mark layer_0_layer_1_layer_1_marks"><line transform="translate(50,66.98887046597898)" x2="0" y2="-44.05610925970146" style="fill: none; stroke: black;"></line><line transform="translate(30,191.81398129475252)" x2="0" y2="-56.52642008992845" style="fill: none; stroke: black;"></line><line transform="translate(90,130.8859690489375)" x2="0" y2="-26.72364788224283" style="fill: none; stroke: black;"></line><line transform="translate(70,157.9076795974805)" x2="0" y2="-18.304887305879674" style="fill: none; stroke: black;"></line><line transform="translate(10,137.2966570434911)" x2="0" y2="-58.07414011291752" style="fill: none; stroke: black;"></line></g><g class="mark-rect role-mark layer_1_layer_0_marks"><path d="M43,66.98887046597898h14v46.833337090303985h-14Z" style="fill: #e45756;"></path><path d="M23,191.81398129475252h14v58.75327397226488h-14Z" style="fill: #f58518;"></path><path d="M83,130.8859690489375h14v35.94480639550531h-14Z" style="fill: #54a24b;"></path><path d="M63,157.9076795974805h14v22.061604073085874h-14Z" style="fill: #72b7b2;"></path><path d="M3,137.2966570434911h14v41.35265083041145h-14Z" style="fill: #4c78a8;"></path></g><g class="mark-rect role-mark layer_1_layer_1_marks"><path d="M43,90.0470612777504h14v1h-14Z" style="fill: #000000; opacity: 0.7;"></path><path d="M23,225.40724649735733h14v1h-14Z" style="fill: #000000; opacity: 0.7;"></path><path d="M83,151.5395028661273h14v1h-14Z" style="fill: #000000; opacity: 0.7;"></path><path d="M63,169.52501600098512h14v1h-14Z" style="fill: #000000; opacity: 0.7;"></path><path d="M3,162.4405972861007h14v1h-14Z" style="fill: #000000; opacity: 0.7;"></path></g><g class="mark-group role-legend"><g transform="translate(118,0)"><path class="background" d="M0,0h181v109h-181Z" style="pointer-events: none; fill: none;"></path><g><g class="mark-group role-legend-entry"><g transform="translate(0,21)"><path class="background" d="M0,0h0v0h0Z" style="pointer-events: none; fill: none;"></path><g><g class="mark-group role-scope"><g transform="translate(0,0)"><path class="background" d="M0,0h142.71875v16h-142.71875Z" style="pointer-events: none; fill: none; opacity: 1;"></path><g><g class="mark-symbol role-legend-symbol" style="pointer-events: none;"><path transform="translate(8,8)" d="M-5,-5h10v10h-10Z" style="fill: #4c78a8; stroke-width: 1.5; opacity: 1;"></path></g><g class="mark-text role-legend-label" style="pointer-events: none;"><text text-anchor="start" transform="translate(20,13)" style="font-family: sans-serif; font-size: 16px; fill: #000; opacity: 1;">fish GI</text></g></g></g><g transform="translate(0,18)"><path class="background" d="M0,0h142.71875v16h-142.71875Z" style="pointer-events: none; fill: none; opacity: 1;"></path><g><g class="mark-symbol role-legend-symbol" style="pointer-events: none;"><path transform="translate(8,8)" d="M-5,-5h10v10h-10Z" style="fill: #f58518; stroke-width: 1.5; opacity: 1;"></path></g><g class="mark-text role-legend-label" style="pointer-events: none;"><text text-anchor="start" transform="translate(20,13)" style="font-family: sans-serif; font-size: 16px; fill: #000; opacity: 1;">fish digesta</text></g></g></g><g transform="translate(0,36)"><path class="background" d="M0,0h142.71875v16h-142.71875Z" style="pointer-events: none; fill: none; opacity: 1;"></path><g><g class="mark-symbol role-legend-symbol" style="pointer-events: none;"><path transform="translate(8,8)" d="M-5,-5h10v10h-10Z" style="fill: #e45756; stroke-width: 1.5; opacity: 1;"></path></g><g class="mark-text role-legend-label" style="pointer-events: none;"><text text-anchor="start" transform="translate(20,13)" style="font-family: sans-serif; font-size: 16px; fill: #000; opacity: 1;">fish gill</text></g></g></g><g transform="translate(0,54)"><path class="background" d="M0,0h142.71875v16h-142.71875Z" style="pointer-events: none; fill: none; opacity: 1;"></path><g><g class="mark-symbol role-legend-symbol" style="pointer-events: none;"><path transform="translate(8,8)" d="M-5,-5h10v10h-10Z" style="fill: #72b7b2; stroke-width: 1.5; opacity: 1;"></path></g><g class="mark-text role-legend-label" style="pointer-events: none;"><text text-anchor="start" transform="translate(20,13)" style="font-family: sans-serif; font-size: 16px; fill: #000; opacity: 1;">fish pyloric caeca</text></g></g></g><g transform="translate(0,72)"><path class="background" d="M0,0h142.71875v16h-142.71875Z" style="pointer-events: none; fill: none; opacity: 1;"></path><g><g class="mark-symbol role-legend-symbol" style="pointer-events: none;"><path transform="translate(8,8)" d="M-5,-5h10v10h-10Z" style="fill: #54a24b; stroke-width: 1.5; opacity: 1;"></path></g><g class="mark-text role-legend-label" style="pointer-events: none;"><text text-anchor="start" transform="translate(20,13)" style="font-family: sans-serif; font-size: 16px; fill: #000; opacity: 1;">fish skin</text></g></g></g></g></g></g></g><g class="mark-text role-legend-title" style="pointer-events: none;"><text text-anchor="start" transform="translate(0,13)" style="font-family: sans-serif; font-size: 16px; font-weight: bold; fill: #000; opacity: 1;">sample_type_body_site</text></g></g></g></g><g class="mark-text role-title" style="pointer-events: none;"><text text-anchor="middle" transform="translate(50,-10)" style="font-family: sans-serif; font-size: 24px; font-weight: bold; fill: #000; opacity: 1;">Samples</text></g><g class="mark-group role-axis"><g transform="translate(0.5,300.5)"><path class="background" d="M0,0h0v0h0Z" style="pointer-events: none; fill: none;"></path><g><g class="mark-rule role-axis-domain" style="pointer-events: none;"><line transform="translate(0,0)" x2="100" y2="0" style="fill: none; stroke: #888; stroke-width: 1; opacity: 1;"></line></g></g></g></g><g class="mark-group role-axis"><g transform="translate(0.5,0.5)"><path class="background" d="M0,0h0v0h0Z" style="pointer-events: none; fill: none;"></path><g><g class="mark-rule role-axis-tick" style="pointer-events: none;"><line transform="translate(0,300)" x2="-5" y2="0" style="fill: none; stroke: #888; stroke-width: 1; opacity: 1;"></line><line transform="translate(0,225)" x2="-5" y2="0" style="fill: none; stroke: #888; stroke-width: 1; opacity: 1;"></line><line transform="translate(0,150)" x2="-5" y2="0" style="fill: none; stroke: #888; stroke-width: 1; opacity: 1;"></line><line transform="translate(0,75)" x2="-5" y2="0" style="fill: none; stroke: #888; stroke-width: 1; opacity: 1;"></line><line transform="translate(0,0)" x2="-5" y2="0" style="fill: none; stroke: #888; stroke-width: 1; opacity: 1;"></line></g><g class="mark-text role-axis-label" style="pointer-events: none;"><text text-anchor="end" transform="translate(-7,305)" style="font-family: sans-serif; font-size: 16px; fill: #000; opacity: 0;">-10</text><text text-anchor="end" transform="translate(-7,230)" style="font-family: sans-serif; font-size: 16px; fill: #000; opacity: 1;">-5</text><text text-anchor="end" transform="translate(-7,155)" style="font-family: sans-serif; font-size: 16px; fill: #000; opacity: 1;">0</text><text text-anchor="end" transform="translate(-7,80)" style="font-family: sans-serif; font-size: 16px; fill: #000; opacity: 1;">5</text><text text-anchor="end" transform="translate(-7,5)" style="font-family: sans-serif; font-size: 16px; fill: #000; opacity: 0;">10</text></g><g class="mark-rule role-axis-domain" style="pointer-events: none;"><line transform="translate(0,300)" x2="0" y2="-300" style="fill: none; stroke: #888; stroke-width: 1; opacity: 1;"></line></g><g class="mark-text role-axis-title" style="pointer-events: none;"><text text-anchor="middle" transform="translate(-25.2265625,150) rotate(-90) translate(0,-4)" style="font-family: sans-serif; font-size: 20px; font-weight: bold; fill: #000; opacity: 1;">Current Log-Ratio</text></g></g></g></g></g></g></g></g></svg>