<svg class="marks" width="391" height="339" viewBox="0 0 391 339" version="1.1" xmlns="http://www.w3.org/2000/svg" xmlns:xlink="http://www.w3.org/1999/xlink"><rect width="391" height="339" style="fill: #FFFFFF;"></rect><g transform="translate(62,34)"><g class="mark-group role-frame root"><g transform="translate(0,0)"><path class="background" d="M0.5,0.5h100v300h-100Z" style="fill: none; stroke: #ddd;"></path><g><g class="mark-group role-axis"><g transform="translate(0.5,0.5)"><path class="background" d="M0,0h0v0h0Z" style="pointer-events: none; fill: none;"></path><g><g class="mark-rule role-axis-grid" style="pointer-events: none;"><line transform="translate(0,273)" x2="100" y2="0" style="fill: none; stroke: #ddd; stroke-width: 1; opacity: 1;"></line><line transform="translate(0,205)" x2="100" y2="0" style="fill: none; stroke: #ddd; stroke-width: 1; opacity: 1;"></line><line transform="translate(0,136)" x2="100" y2="0" style="fill: none; stroke: #ddd; stroke-width: 1; opacity: 1;"></line><line transform="translate(0,68)" x2="100" y2="0" style="fill: none; stroke: #ddd; stroke-width: 1; opacity: 1;"></line><line transform="translate(0,0)" x2="100" y2="0" style="fill: none; stroke: #ddd; stroke-width: 1; opacity: 1;"></line></g></g></g></g><g class="mark-symbol role-mark layer_0_layer_0_marks"><path transform="translate(30,116.94498151223539)" d="M2.7386127875258306,0A2.7386127875258306,2.7386127875258306,0,1,1,-2.7386127875258306,0A2.7386127875258306,2.7386127875258306,0,1,1,2.7386127875258306,0" style="fill: none; stroke: #4c78a8; stroke-width: 2; opacity: 0.7;"></path><path transform="translate(90,90.89205501027041)" d="M2.7386127875258306,0A2.7386127875258306,2.7386127875258306,0,1,1,-2.7386127875258306,0A2.7386127875258306,2.7386127875258306,0,1,1,2.7386127875258306,0" style="fill: none; stroke: #4c78a8; stroke-width: 2; opacity: 0.7;"></path><path transform="translate(50,121.25687803945866)" d="M2.7386127875258306,0A2.7386127875258306,2.7386127875258306,0,1,1,-2.7386127875258306,0A2.7386127875258306,2.7386127875258306,0,1,1,2.7386127875258306,0" style="fill: none; stroke: #4c78a8; stroke-width: 2; opacity: 0.7;"></path></g><g class="mark-rule role-mark layer_0_layer_1_layer_0_marks"><line transform="translate(50,116.36813088008964)" x2="0" y2="-46.35474602107368" style="fill: none; stroke: black;"></line><line transform="translate(30,280.6125592355398)" x2="0" y2="-48.766230547874386" style="fill: none; stroke: black;"></line><line transform="translate(90,220.75414631858837)" x2="0" y2="-48.452182174714295" style="fill: none; stroke: black;"></line><line transform="translate(70,237.2185704310584)" x2="0" y2="-28.275466219089395" style="fill: none; stroke: black;"></line><line transform="translate(10,219.1240287520202)" x2="0" y2="-30.580353421448365" style="fill: none; stroke: black;"></line></g><g class="mark-rule role-mark layer_0_layer_1_layer_1_marks"><line transform="translate(50,37.943548283340874)" x2="0" y2="-32.89277229780555" style="fill: none; stroke: black;"></line><line transform="translate(30,196.07310296547078)" x2="0" y2="-37.2755212149774" style="fill: none; stroke: black;"></line><line transform="translate(90,139.97086939537684)" x2="0" y2="-30.844280748931197" style="fill: none; stroke: black;"></line><line transform="translate(70,153.96970594244064)" x2="0" y2="-46.78878999011707" style="fill: none; stroke: black;"></line><line transform="translate(10,161.1952339809778)" x2="0" y2="-31.678305941849203" style="fill: none; stroke: black;"></line></g><g class="mark-rect role-mark layer_1_layer_0_marks"><path d="M43,37.943548283340874h14v32.06983657567508h-14Z" style="fill: #e45756;"></path><path d="M23,196.07310296547078h14v35.77322572219461h-14Z" style="fill: #f58518;"></path><path d="M83,139.97086939537684h14v32.331094748497236h-14Z" style="fill: #54a24b;"></path><path d="M63,153.96970594244064h14v54.97339826952836h-14Z" style="fill: #72b7b2;"></path><path d="M3,161.1952339809778h14v27.348441349594026h-14Z" style="fill: #4c78a8;"></path></g><g class="mark-rect role-mark layer_1_layer_1_marks"><path d="M43,53.01667129887221h14v1h-14Z" style="fill: #000000; opacity: 0.7;"></path><path d="M23,212.7135804339008h14v1h-14Z" style="fill: #000000; opacity: 0.7;"></path><path d="M83,160.52726570105833h14v1h-14Z" style="fill: #000000; opacity: 0.7;"></path><path d="M63,194.19914247083875h14v1h-14Z" style="fill: #000000; opacity: 0.7;"></path><path d="M3,177.13035279226864h14v1h-14Z" style="fill: #000000; opacity: 0.7;"></path></g><g class="mark-group role-legend"><g transform="translate(118,0)"><path class="background" d="M0,0h206v109h-206Z" style="pointer-events: none; fill: none;"></path><g><g class="mark-group role-legend-entry"><g transform="translate(0,21)"><path class="background" d="M0,0h0v0h0Z" style="pointer-events: none; fill: none;"></path><g><g class="mark-group role-scope"><g transform="translate(0,0)"><path class="background" d="M0,0h159v16h-159Z" style="pointer-events: none; fill: none; opacity: 1;"></path><g><g class="mark-symbol role-legend-symbol" style="pointer-events: none;"><path transform="translate(8,8)" d="M-5,-5h10v10h-10Z" style="fill: #4c78a8; stroke-width: 1.5; opacity: 1;"></path></g><g class="mark-text role-legend-label" style="pointer-events: none;"><text text-anchor="start" transform="translate(20,13)" style="font-family: sans-serif; font-size: 16px; fill: #000; opacity: 1;">fish GI</text></g></g></g><g transform="translate(0,18)"><path class="background" d="M0,0h159v16h-159Z" style="pointer-events: none; fill: none; opacity: 1;"></path><g><g class="mark-symbol role-legend-symbol" style="pointer-events: none;"><path transform="translate(8,8)" d="M-5,-5h10v10h-10Z" style="fill: #f58518; stroke-width: 1.5; opacity: 1;"></path></g><g class="mark-text role-legend-label" style="pointer-events: none;"><text text-anchor="start" transform="translate(20,13)" style="font-family: sans-serif; font-size: 16px; fill: #000; opacity: 1;">fish digesta</text></g></g></g><g transform="translate(0,36)"><path class="background" d="M0,0h159v16h-159Z" style="pointer-events: none; fill: none; opacity: 1;"></path><g><g class="mark-symbol role-legend-symbol" style="pointer-events: none;"><path transform="translate(8,8)" d="M-5,-5h10v10h-10Z" style="fill: #e45756; stroke-width: 1.5; opacity: 1;"></path></g><g class="mark-text role-legend-label" style="pointer-events: none;"><text text-anchor="start" transform="translate(20,13)" style="font-family: sans-serif; font-size: 16px; fill: #000; opacity: 1;">fish gill</text></g></g></g><g transform="translate(0,54)"><path class="background" d="M0,0h159v16h-159Z" style="pointer-events: none; fill: none; opacity: 1;"></path><g><g class="mark-symbol role-legend-symbol" style="pointer-events: none;"><path transform="translate(8,8)" d="M-5,-5h10v10h-10Z" style="fill: #72b7b2; stroke-width: 1.5; opacity: 1;"></path></g><g class="mark-text role-legend-label" style="pointer-events: none;"><text text-anchor="start" transform="translate(20,13)" style="font-family: sans-serif; font-size: 16px; fill: #000; opacity: 1;">fish pyloric caeca</text></g></g></g><g transform="translate(0,72)"><path class="background" d="M0,0h159v16h-159Z" style="pointer-events: none; fill: none; opacity: 1;"></path><g><g class="mark-symbol role-legend-symbol" style="pointer-events: none;"><path transform="translate(8,8)" d="M-5,-5h10v10h-10Z" style="fill: #54a24b; stroke-width: 1.5; opacity: 1;"></path></g><g class="mark-text role-legend-label" style="pointer-events: none;"><text text-anchor="start" transform="translate(20,13)" style="font-family: sans-serif; font-size: 16px; fill: #000; opacity: 1;">fish skin</text></g></g></g></g></g></g></g><g class="mark-text role-legend-title" style="pointer-events: none;"><text text-anchor="start" transform="translate(0,13)" style="font-family: sans-serif; font-size: 16px; font-weight: bold; fill: #000; opacity: 1;">sample_type_body_site</text></g></g></g></g><g class="mark-text role-title" style="pointer-events: none;"><text text-anchor="middle" transform="translate(50,-10)" style="font-family: sans-serif; font-size: 24px; font-weight: bold; fill: #000; opacity: 1;">Samples</text></g><g class="mark-group role-axis"><g transform="translate(0.5,300.5)"><path class="background" d="M0,0h0v0h0Z" style="pointer-events: none; fill: none;"></path><g><g class="mark-rule role-axis-domain" style="pointer-events: none;"><line transform="translate(0,0)" x2="100" y2="0" style="fill: none; stroke: #888; stroke-width: 1; opacity: 1;"></line></g></g></g></g><g class="mark-group role-axis"><g transform="translate(0.5,0.5)"><path class="background" d="M0,0h0v0h0Z" style="pointer-events: none; fill: none;"></path><g><g class="mark-rule role-axis-tick" style="pointer-events: none;"><line transform="translate(0,273)" x2="-5" y2="0" style="fill: none; stroke: #888; stroke-width: 1; opacity: 1;"></line><line transform="translate(0,205)" x2="-5" y2="0" style="fill: none; stroke: #888; stroke-width: 1; opacity: 1;"></line><line transform="translate(0,136)" x2="-5" y2="0" style="fill: none; stroke: #888; stroke-width: 1; opacity: 1;"></line><line transform="translate(0,68)" x2="-5" y2="0" style="fill: none; stroke: #888; stroke-width: 1; opacity: 1;"></line><line transform="translate(0,0)" x2="-5" y2="0" style="fill: none; stroke: #888; stroke-width: 1; opacity: 1;"></line></g><g class="mark-text role-axis-label" style="pointer-events: none;"><text text-anchor="end" transform="translate(-7,277.72727272727275)" style="font-family: sans-serif; font-size: 16px; fill: #000; opacity: 1;">-10</text><text text-anchor="end" transform="translate(-7,209.54545454545456)" style="font-family: sans-serif; font-size: 16px; fill: #000; opacity: 1;">-5</text><text text-anchor="end" transform="translate(-7,141.36363636363637)" style="font-family: sans-serif; font-size: 16px; fill: #000; opacity: 1;">0</text><text text-anchor="end" transform="translate(-7,73.18181818181819)" style="font-family: sans-serif; font-size: 16px; fill: #000; opacity: 1;">5</text><text text-anchor="end" transform="translate(-7,5)" style="font-family: sans-serif; font-size: 16px; fill: #000; opacity: 0;">10</text></g><g class="mark-rule role-axis-domain" style="pointer-events: none;"><line transform="translate(0,300)" x2="0" y2="-300" style="fill: none; stroke: #888; stroke-width: 1; opacity: 1;"></line></g><g class="mark-text role-axis-title" style="pointer-events: none;"><text text-anchor="middle" transform="translate(-37,150) rotate(-90) translate(0,-4)" style="font-family: sans-serif; font-size: 20px; font-weight: bold; fill: #000; opacity: 1;">Current Natural Log-Ratio</text></g></g></g></g></g></g></g></g></svg>