<svg class="marks" width="401" height="339" viewBox="0 0 401 339" version="1.1" xmlns="http://www.w3.org/2000/svg" xmlns:xlink="http://www.w3.org/1999/xlink"><rect width="401" height="339" style="fill: #FFFFFF;"></rect><g transform="translate(52,34)"><g class="mark-group role-frame root"><g transform="translate(0,0)"><path class="background" d="M0.5,0.5h120v300h-120Z" style="fill: none; stroke: #ddd;"></path><g><g class="mark-group role-axis"><g transform="translate(0.5,0.5)"><path class="background" d="M0,0h0v0h0Z" style="pointer-events: none; fill: none;"></path><g><g class="mark-rule role-axis-grid" style="pointer-events: none;"><line transform="translate(0,250)" x2="120" y2="0" style="fill: none; stroke: #ddd; stroke-width: 1; opacity: 1;"></line><line transform="translate(0,167)" x2="120" y2="0" style="fill: none; stroke: #ddd; stroke-width: 1; opacity: 1;"></line><line transform="translate(0,83)" x2="120" y2="0" style="fill: none; stroke: #ddd; stroke-width: 1; opacity: 1;"></line><line transform="translate(0,0)" x2="120" y2="0" style="fill: none; stroke: #ddd; stroke-width: 1; opacity: 1;"></line></g></g></g></g><g class="mark-symbol role-mark layer_0_layer_0_marks"><path transform="translate(90,68.13834035601468)" d="M2.7386127875258306,0A2.7386127875258306,2.7386127875258306,0,1,1,-2.7386127875258306,0A2.7386127875258306,2.7386127875258306,0,1,1,2.7386127875258306,0" style="fill: none; stroke: #4c78a8; stroke-width: 2; opacity: 0.7;"></path><path transform="translate(90,234.21452190025877)" d="M2.7386127875258306,0A2.7386127875258306,2.7386127875258306,0,1,1,-2.7386127875258306,0A2.7386127875258306,2.7386127875258306,0,1,1,2.7386127875258306,0" style="fill: none; stroke: #4c78a8; stroke-width: 2; opacity: 0.7;"></path><path transform="translate(90,221.30441620156077)" d="M2.7386127875258306,0A2.7386127875258306,2.7386127875258306,0,1,1,-2.7386127875258306,0A2.7386127875258306,2.7386127875258306,0,1,1,2.7386127875258306,0" style="fill: none; stroke: #4c78a8; stroke-width: 2; opacity: 0.7;"></path><path transform="translate(110,227.7260274354941)" d="M2.7386127875258306,0A2.7386127875258306,2.7386127875258306,0,1,1,-2.7386127875258306,0A2.7386127875258306,2.7386127875258306,0,1,1,2.7386127875258306,0" style="fill: none; stroke: #4c78a8; stroke-width: 2; opacity: 0.7;"></path><path transform="translate(90,70.40689655358025)" d="M2.7386127875258306,0A2.7386127875258306,2.7386127875258306,0,1,1,-2.7386127875258306,0A2.7386127875258306,2.7386127875258306,0,1,1,2.7386127875258306,0" style="fill: none; stroke: #4c78a8; stroke-width: 2; opacity: 0.7;"></path></g><g class="mark-rule role-mark layer_0_layer_1_layer_0_marks"><line transform="translate(50,95.80641051023994)" x2="0" y2="-35.55922644629533" style="fill: none; stroke: black;"></line><line transform="translate(110,212.68440393979714)" x2="0" y2="-33.478155310278595" style="fill: none; stroke: black;"></line><line transform="translate(30,272.98130553199076)" x2="0" y2="-54.669277176421815" style="fill: none; stroke: black;"></line><line transform="translate(10,274.8764270838431)" x2="0" y2="-67.6535657457834" style="fill: none; stroke: black;"></line><line transform="translate(90,192.81491494754573)" x2="0" y2="-22.474608618946945" style="fill: none; stroke: black;"></line><line transform="translate(70,294.0939465147042)" x2="0" y2="-80.75474039541285" style="fill: none; stroke: black;"></line></g><g class="mark-rule role-mark layer_0_layer_1_layer_1_marks"><line transform="translate(50,32.4786796842651)" x2="0" y2="-29.34447561585864" style="fill: none; stroke: black;"></line><line transform="translate(110,155.13980029587293)" x2="0" y2="-29.12308277060498" style="fill: none; stroke: black;"></line><line transform="translate(30,165.72794982643734)" x2="0" y2="-58.78659880070583" style="fill: none; stroke: black;"></line><line transform="translate(10,153.03642232587697)" x2="0" y2="-77.46889245807674" style="fill: none; stroke: black;"></line><line transform="translate(90,138.17573113908594)" x2="0" y2="-46.81171128906033" style="fill: none; stroke: black;"></line><line transform="translate(70,148.4814651479631)" x2="0" y2="-61.57156908614684" style="fill: none; stroke: black;"></line></g><g class="mark-rect role-mark layer_1_layer_0_marks"><path d="M43,32.4786796842651h14v27.768504379679513h-14Z" style="fill: #e45756;"></path><path d="M103,155.13980029587293h14v24.06644833364561h-14Z" style="fill: #eeca3b;"></path><path d="M23,165.72794982643734h14v52.5840785291316h-14Z" style="fill: #f58518;"></path><path d="M3,153.03642232587697h14v54.186439012182746h-14Z" style="fill: #4c78a8;"></path><path d="M83,138.17573113908594h14v32.164575189512846h-14Z" style="fill: #54a24b;"></path><path d="M63,148.4814651479631h14v64.85774097132827h-14Z" style="fill: #72b7b2;"></path></g><g class="mark-rect role-mark layer_1_layer_1_marks"><path d="M43,46.349357110569116h14v1h-14Z" style="fill: #000000; opacity: 0.7;"></path><path d="M103,165.63854936128007h14v1h-14Z" style="fill: #000000; opacity: 0.7;"></path><path d="M23,186.7995276968841h14v1h-14Z" style="fill: #000000; opacity: 0.7;"></path><path d="M3,180.3900223104938h14v1h-14Z" style="fill: #000000; opacity: 0.7;"></path><path d="M83,157.00092822476904h14v1h-14Z" style="fill: #000000; opacity: 0.7;"></path><path d="M63,181.09799557690044h14v1h-14Z" style="fill: #000000; opacity: 0.7;"></path></g><g class="mark-group role-legend"><g transform="translate(138,0)"><path class="background" d="M0,0h206v127h-206Z" style="pointer-events: none; fill: none;"></path><g><g class="mark-group role-legend-entry"><g transform="translate(0,21)"><path class="background" d="M0,0h0v0h0Z" style="pointer-events: none; fill: none;"></path><g><g class="mark-group role-scope"><g transform="translate(0,0)"><path class="background" d="M0,0h159v16h-159Z" style="pointer-events: none; fill: none; opacity: 1;"></path><g><g class="mark-symbol role-legend-symbol" style="pointer-events: none;"><path transform="translate(8,8)" d="M-5,-5h10v10h-10Z" style="fill: #4c78a8; stroke-width: 1.5; opacity: 1;"></path></g><g class="mark-text role-legend-label" style="pointer-events: none;"><text text-anchor="start" transform="translate(20,13)" style="font-family: sans-serif; font-size: 16px; fill: #000; opacity: 1;">fish GI</text></g></g></g><g transform="translate(0,18)"><path class="background" d="M0,0h159v16h-159Z" style="pointer-events: none; fill: none; opacity: 1;"></path><g><g class="mark-symbol role-legend-symbol" style="pointer-events: none;"><path transform="translate(8,8)" d="M-5,-5h10v10h-10Z" style="fill: #f58518; stroke-width: 1.5; opacity: 1;"></path></g><g class="mark-text role-legend-label" style="pointer-events: none;"><text text-anchor="start" transform="translate(20,13)" style="font-family: sans-serif; font-size: 16px; fill: #000; opacity: 1;">fish digesta</text></g></g></g><g transform="translate(0,36)"><path class="background" d="M0,0h159v16h-159Z" style="pointer-events: none; fill: none; opacity: 1;"></path><g><g class="mark-symbol role-legend-symbol" style="pointer-events: none;"><path transform="translate(8,8)" d="M-5,-5h10v10h-10Z" style="fill: #e45756; stroke-width: 1.5; opacity: 1;"></path></g><g class="mark-text role-legend-label" style="pointer-events: none;"><text text-anchor="start" transform="translate(20,13)" style="font-family: sans-serif; font-size: 16px; fill: #000; opacity: 1;">fish gill</text></g></g></g><g transform="translate(0,54)"><path class="background" d="M0,0h159v16h-159Z" style="pointer-events: none; fill: none; opacity: 1;"></path><g><g class="mark-symbol role-legend-symbol" style="pointer-events: none;"><path transform="translate(8,8)" d="M-5,-5h10v10h-10Z" style="fill: #72b7b2; stroke-width: 1.5; opacity: 1;"></path></g><g class="mark-text role-legend-label" style="pointer-events: none;"><text text-anchor="start" transform="translate(20,13)" style="font-family: sans-serif; font-size: 16px; fill: #000; opacity: 1;">fish pyloric caeca</text></g></g></g><g transform="translate(0,72)"><path class="background" d="M0,0h159v16h-159Z" style="pointer-events: none; fill: none; opacity: 1;"></path><g><g class="mark-symbol role-legend-symbol" style="pointer-events: none;"><path transform="translate(8,8)" d="M-5,-5h10v10h-10Z" style="fill: #54a24b; stroke-width: 1.5; opacity: 1;"></path></g><g class="mark-text role-legend-label" style="pointer-events: none;"><text text-anchor="start" transform="translate(20,13)" style="font-family: sans-serif; font-size: 16px; fill: #000; opacity: 1;">fish skin</text></g></g></g><g transform="translate(0,90)"><path class="background" d="M0,0h159v16h-159Z" style="pointer-events: none; fill: none; opacity: 1;"></path><g><g class="mark-symbol role-legend-symbol" style="pointer-events: none;"><path transform="translate(8,8)" d="M-5,-5h10v10h-10Z" style="fill: #eeca3b; stroke-width: 1.5; opacity: 1;"></path></g><g class="mark-text role-legend-label" style="pointer-events: none;"><text text-anchor="start" transform="translate(20,13)" style="font-family: sans-serif; font-size: 16px; fill: #000; opacity: 1;">sea water</text></g></g></g></g></g></g></g><g class="mark-text role-legend-title" style="pointer-events: none;"><text text-anchor="start" transform="translate(0,13)" style="font-family: sans-serif; font-size: 16px; font-weight: bold; fill: #000; opacity: 1;">sample_type_body_site</text></g></g></g></g><g class="mark-text role-title" style="pointer-events: none;"><text text-anchor="middle" transform="translate(60,-10)" style="font-family: sans-serif; font-size: 24px; font-weight: bold; fill: #000; opacity: 1;">Samples</text></g><g class="mark-group role-axis"><g transform="translate(0.5,300.5)"><path class="background" d="M0,0h0v0h0Z" style="pointer-events: none; fill: none;"></path><g><g class="mark-rule role-axis-domain" style="pointer-events: none;"><line transform="translate(0,0)" x2="120" y2="0" style="fill: none; stroke: #888; stroke-width: 1; opacity: 1;"></line></g></g></g></g><g class="mark-group role-axis"><g transform="translate(0.5,0.5)"><path class="background" d="M0,0h0v0h0Z" style="pointer-events: none; fill: none;"></path><g><g class="mark-rule role-axis-tick" style="pointer-events: none;"><line transform="translate(0,250)" x2="-5" y2="0" style="fill: none; stroke: #888; stroke-width: 1; opacity: 1;"></line><line transform="translate(0,167)" x2="-5" y2="0" style="fill: none; stroke: #888; stroke-width: 1; opacity: 1;"></line><line transform="translate(0,83)" x2="-5" y2="0" style="fill: none; stroke: #888; stroke-width: 1; opacity: 1;"></line><line transform="translate(0,0)" x2="-5" y2="0" style="fill: none; stroke: #888; stroke-width: 1; opacity: 1;"></line></g><g class="mark-text role-axis-label" style="pointer-events: none;"><text text-anchor="end" transform="translate(-7,255)" style="font-family: sans-serif; font-size: 16px; fill: #000; opacity: 1;">-5</text><text text-anchor="end" transform="translate(-7,171.66666666666669)" style="font-family: sans-serif; font-size: 16px; fill: #000; opacity: 1;">0</text><text text-anchor="end" transform="translate(-7,88.33333333333334)" style="font-family: sans-serif; font-size: 16px; fill: #000; opacity: 1;">5</text><text text-anchor="end" transform="translate(-7,5)" style="font-family: sans-serif; font-size: 16px; fill: #000; opacity: 0;">10</text></g><g class="mark-rule role-axis-domain" style="pointer-events: none;"><line transform="translate(0,300)" x2="0" y2="-300" style="fill: none; stroke: #888; stroke-width: 1; opacity: 1;"></line></g><g class="mark-text role-axis-title" style="pointer-events: none;"><text text-anchor="middle" transform="translate(-27,150) rotate(-90) translate(0,-4)" style="font-family: sans-serif; font-size: 20px; font-weight: bold; fill: #000; opacity: 1;">Current Natural Log-Ratio</text></g></g></g></g></g></g></g></g></svg>