<svg class="marks" width="1044" height="363" viewBox="0 0 1044 363" version="1.1" xmlns="http://www.w3.org/2000/svg" xmlns:xlink="http://www.w3.org/1999/xlink"><rect width="1044" height="363" style="fill: #FFFFFF;"></rect><defs><clipPath id="clip1"><rect x="0" y="0" width="987" height="300"></rect></clipPath></defs><g transform="translate(52,34)"><g class="mark-group role-frame root"><g transform="translate(0,0)"><path class="background" d="M0.5,0.5h987v300h-987Z" style="fill: none; stroke: #ddd;"></path><g><g class="mark-group role-axis"><g transform="translate(0.5,0.5)"><path class="background" d="M0,0h0v0h0Z" style="pointer-events: none; fill: none;"></path><g><g class="mark-rule role-axis-grid" style="pointer-events: none;"><line transform="translate(0,300)" x2="987" y2="0" style="fill: none; stroke: #f2f2f2; stroke-width: 1; opacity: 1;"></line><line transform="translate(0,250)" x2="987" y2="0" style="fill: none; stroke: #f2f2f2; stroke-width: 1; opacity: 1;"></line><line transform="translate(0,200)" x2="987" y2="0" style="fill: none; stroke: #f2f2f2; stroke-width: 1; opacity: 1;"></line><line transform="translate(0,150)" x2="987" y2="0" style="fill: none; stroke: #f2f2f2; stroke-width: 1; opacity: 1;"></line><line transform="translate(0,100)" x2="987" y2="0" style="fill: none; stroke: #f2f2f2; stroke-width: 1; opacity: 1;"></line><line transform="translate(0,50)" x2="987" y2="0" style="fill: none; stroke: #f2f2f2; stroke-width: 1; opacity: 1;"></line><line transform="translate(0,0)" x2="987" y2="0" style="fill: none; stroke: #f2f2f2; stroke-width: 1; opacity: 1;"></line></g></g></g></g><g class="mark-rect role-mark marks" clip-path="url(#clip1)"><path d="M1,150h1v125.539306755589h-1Z" style="fill: #00f;"></path><path d="M2,150h1v124.67263137869702h-1Z" style="fill: #00f;"></path><path d="M3,150h1v124.03719818167548h-1Z" style="fill: #00f;"></path><path d="M4,150h1v119.07371675543652h-1Z" style="fill: #00f;"></path><path d="M5,150h1v113.73931562476002h-1Z" style="fill: #00f;"></path><path d="M6,150h1v111.60966550879323h-1Z" style="fill: #00f;"></path><path d="M7,150h1v110.19434129767274h-1Z" style="fill: #00f;"></path><path d="M8,150h1v108.11808502249573h-1Z" style="fill: #00f;"></path><path d="M9,150h1v107.64291679434626h-1Z" style="fill: #00f;"></path><path d="M10,150h1v98.69424497656675h-1Z" style="fill: #00f;"></path><path d="M11,150h1v96.96113264136176h-1Z" style="fill: #00f;"></path><path d="M12,150h1v96.16541063361024h-1Z" style="fill: #00f;"></path><path d="M13,150h1v94.57633888296925h-1Z" style="fill: #00f;"></path><path d="M14,150h1v93.65741407446723h-1Z" style="fill: #00f;"></path><path d="M15,150h1v92.91518127493703h-1Z" style="fill: #00f;"></path><path d="M16,150h1v91.565779800938h-1Z" style="fill: #00f;"></path><path d="M17,150h1v87.84736787848325h-1Z" style="fill: #00f;"></path><path d="M18,150h1v87.32061779074525h-1Z" style="fill: #00f;"></path><path d="M19,150h1v86.32188236288874h-1Z" style="fill: #00f;"></path><path d="M20,150h1v85.7084194379315h-1Z" style="fill: #00f;"></path><path d="M21,150h1v84.79646837286799h-1Z" style="fill: #00f;"></path><path d="M22,150h1v84.48908721976125h-1Z" style="fill: #00f;"></path><path d="M23,150h1v82.29686414770924h-1Z" style="fill: #00f;"></path><path d="M24,150h1v81.17247020773749h-1Z" style="fill: #00f;"></path><path d="M25,150h1v79.47298681311452h-1Z" style="fill: #00f;"></path><path d="M26,150h1v79.0317097859845h-1Z" style="fill: #00f;"></path><path d="M27,150h1v78.50066816382252h-1Z" style="fill: #00f;"></path><path d="M28,150h1v78.20690071158276h-1Z" style="fill: #00f;"></path><path d="M29,150h1v77.12856924109326h-1Z" style="fill: #00f;"></path><path d="M30,150h1v75.90297853522151h-1Z" style="fill: #00f;"></path><path d="M31,150h1v74.92237484030574h-1Z" style="fill: #00f;"></path><path d="M32,150h1v74.77072870306824h-1Z" style="fill: #00f;"></path><path d="M33,150h1v74.59826862387501h-1Z" style="fill: #00f;"></path><path d="M34,150h1v72.88778221182673h-1Z" style="fill: #00f;"></path><path d="M35,150h1v72.83741628699153h-1Z" style="fill: #00f;"></path><path d="M36,150h1v71.77240049414502h-1Z" style="fill: #00f;"></path><path d="M37,150h1v70.57218944601874h-1Z" style="fill: #00f;"></path><path d="M38,150h1v69.69367658667426h-1Z" style="fill: #00f;"></path><path d="M39,150h1v69.22438537649953h-1Z" style="fill: #00f;"></path><path d="M40,150h1v68.659595604466h-1Z" style="fill: #00f;"></path><path d="M41,150h1v68.16050207190375h-1Z" style="fill: #00f;"></path><path d="M42,150h1v67.339614983128h-1Z" style="fill: #00f;"></path><path d="M43,150h1v67.17135107092702h-1Z" style="fill: #00f;"></path><path d="M44,150h1v66.88074266486024h-1Z" style="fill: #00f;"></path><path d="M45,150h1v66.87720214896049h-1Z" style="fill: #00f;"></path><path d="M46,150h1v66.28445779852726h-1Z" style="fill: #00f;"></path><path d="M47,150h1v66.11401235632752h-1Z" style="fill: #00f;"></path><path d="M48,150h1v66.09102880530202h-1Z" style="fill: #00f;"></path><path d="M49,150h1v65.74749147467475h-1Z" style="fill: #00f;"></path><path d="M50,150h1v65.528229828404h-1Z" style="fill: #00f;"></path><path d="M51,150h1v65.17625248007624h-1Z" style="fill: #00f;"></path><path d="M52,150h1v64.42668830923901h-1Z" style="fill: #00f;"></path><path d="M53,150h1v64.2497936444745h-1Z" style="fill: #00f;"></path><path d="M54,150h1v63.36648857169001h-1Z" style="fill: #00f;"></path><path d="M55,150h1v63.04763948492851h-1Z" style="fill: #00f;"></path><path d="M56,150h1v62.96241676382874h-1Z" style="fill: #00f;"></path><path d="M57,150h1v62.8984967427715h-1Z" style="fill: #00f;"></path><path d="M58,150h1v62.73571645789002h-1Z" style="fill: #00f;"></path><path d="M59,150h1v62.67791187338673h-1Z" style="fill: #00f;"></path><path d="M60,150h1v62.642280216740005h-1Z" style="fill: #00f;"></path><path d="M61,150h1v62.39616071753349h-1Z" style="fill: #00f;"></path><path d="M62,150h1v61.8136922078595h-1Z" style="fill: #00f;"></path><path d="M63,150h1v61.082080956028506h-1Z" style="fill: #00f;"></path><path d="M64,150h1v60.70279275946473h-1Z" style="fill: #00f;"></path><path d="M65,150h1v60.42201911978577h-1Z" style="fill: #00f;"></path><path d="M66,150h1v60.13033783011301h-1Z" style="fill: #00f;"></path><path d="M67,150h1v59.96559059195374h-1Z" style="fill: #00f;"></path><path d="M68,150h1v59.91754924826475h-1Z" style="fill: #00f;"></path><path d="M69,150h1v59.49852859549375h-1Z" style="fill: #00f;"></path><path d="M70,150h1v59.39454233221849h-1Z" style="fill: #00f;"></path><path d="M71,150h1v59.29515754752026h-1Z" style="fill: #00f;"></path><path d="M72,150h1v58.92464315466725h-1Z" style="fill: #00f;"></path><path d="M73,150h1v58.89417326025824h-1Z" style="fill: #00f;"></path><path d="M74,150h1v58.89041816763728h-1Z" style="fill: #00f;"></path><path d="M75,150h1v58.83101617865424h-1Z" style="fill: #00f;"></path><path d="M76,150h1v58.00651704840527h-1Z" style="fill: #00f;"></path><path d="M77,150h1v57.705453987644745h-1Z" style="fill: #00f;"></path><path d="M78,150h1v57.584683056400735h-1Z" style="fill: #00f;"></path><path d="M79,150h1v57.123808022068516h-1Z" style="fill: #00f;"></path><path d="M80,150h1v56.63069879584174h-1Z" style="fill: #00f;"></path><path d="M81,150h1v56.19101917319148h-1Z" style="fill: #00f;"></path><path d="M82,150h1v55.650202389286505h-1Z" style="fill: #00f;"></path><path d="M83,150h1v55.638603325413214h-1Z" style="fill: #00f;"></path><path d="M84,150h1v55.3989211278425h-1Z" style="fill: #00f;"></path><path d="M85,150h1v55.358604546116254h-1Z" style="fill: #00f;"></path><path d="M86,150h1v55.070261116550995h-1Z" style="fill: #00f;"></path><path d="M87,150h1v54.9822369771465h-1Z" style="fill: #00f;"></path><path d="M88,150h1v54.91707717947827h-1Z" style="fill: #00f;"></path><path d="M89,150h1v54.68517934851499h-1Z" style="fill: #00f;"></path><path d="M90,150h1v54.38229238562451h-1Z" style="fill: #00f;"></path><path d="M91,150h1v54.26431095175599h-1Z" style="fill: #00f;"></path><path d="M92,150h1v54.24337780051076h-1Z" style="fill: #00f;"></path><path d="M93,150h1v54.052201862858254h-1Z" style="fill: #00f;"></path><path d="M94,150h1v53.96806394629323h-1Z" style="fill: #00f;"></path><path d="M95,150h1v53.59784757666449h-1Z" style="fill: #00f;"></path><path d="M96,150h1v53.385857697056224h-1Z" style="fill: #00f;"></path><path d="M97,150h1v53.25639640860399h-1Z" style="fill: #00f;"></path><path d="M98,150h1v52.559343929813735h-1Z" style="fill: #00f;"></path><path d="M99,150h1v52.525130863712775h-1Z" style="fill: #e0e0e0;"></path><path d="M100,150h1v52.43348276190602h-1Z" style="fill: #e0e0e0;"></path><path d="M101,150h1v52.32179557852601h-1Z" style="fill: #e0e0e0;"></path><path d="M102,150h1v51.834456081913515h-1Z" style="fill: #e0e0e0;"></path><path d="M103,150h1v51.67293941550099h-1Z" style="fill: #e0e0e0;"></path><path d="M104,150h1v51.29605924658625h-1Z" style="fill: #e0e0e0;"></path><path d="M105,150h1v51.07940828375675h-1Z" style="fill: #e0e0e0;"></path><path d="M106,150h1v50.787726994083755h-1Z" style="fill: #e0e0e0;"></path><path d="M107,150h1v50.74978267721974h-1Z" style="fill: #e0e0e0;"></path><path d="M108,150h1v50.683931465672h-1Z" style="fill: #e0e0e0;"></path><path d="M109,150h1v50.67818557791577h-1Z" style="fill: #e0e0e0;"></path><path d="M110,150h1v50.60110485129201h-1Z" style="fill: #e0e0e0;"></path><path d="M111,150h1v50.05548393301825h-1Z" style="fill: #e0e0e0;"></path><path d="M112,150h1v49.775568600224005h-1Z" style="fill: #e0e0e0;"></path><path d="M113,150h1v49.74579011969422h-1Z" style="fill: #e0e0e0;"></path><path d="M114,150h1v49.622253532932746h-1Z" style="fill: #e0e0e0;"></path><path d="M115,150h1v49.60278665594899h-1Z" style="fill: #e0e0e0;"></path><path d="M116,150h1v49.370054359959h-1Z" style="fill: #e0e0e0;"></path><path d="M117,150h1v49.17918836645924h-1Z" style="fill: #e0e0e0;"></path><path d="M118,150h1v49.17812740378224h-1Z" style="fill: #e0e0e0;"></path><path d="M119,150h1v49.15323650412424h-1Z" style="fill: #e0e0e0;"></path><path d="M120,150h1v49.04166853003346h-1Z" style="fill: #e0e0e0;"></path><path d="M121,150h1v48.815063591526496h-1Z" style="fill: #e0e0e0;"></path><path d="M122,150h1v48.788575287388255h-1Z" style="fill: #e0e0e0;"></path><path d="M123,150h1v48.75156080298274h-1Z" style="fill: #e0e0e0;"></path><path d="M124,150h1v48.742071743534495h-1Z" style="fill: #e0e0e0;"></path><path d="M125,150h1v48.72664606146674h-1Z" style="fill: #e0e0e0;"></path><path d="M126,150h1v48.624650593326976h-1Z" style="fill: #e0e0e0;"></path><path d="M127,150h1v48.62276708655202h-1Z" style="fill: #e0e0e0;"></path><path d="M128,150h1v48.35461771063649h-1Z" style="fill: #e0e0e0;"></path><path d="M129,150h1v48.34785854391899h-1Z" style="fill: #e0e0e0;"></path><path d="M130,150h1v48.238054867313764h-1Z" style="fill: #e0e0e0;"></path><path d="M131,150h1v48.23044931464051h-1Z" style="fill: #e0e0e0;"></path><path d="M132,150h1v48.119083996342255h-1Z" style="fill: #e0e0e0;"></path><path d="M133,150h1v48.08067476324899h-1Z" style="fill: #e0e0e0;"></path><path d="M134,150h1v47.62564098410451h-1Z" style="fill: #e0e0e0;"></path><path d="M135,150h1v47.32463752798901h-1Z" style="fill: #e0e0e0;"></path><path d="M136,150h1v47.32231294684277h-1Z" style="fill: #e0e0e0;"></path><path d="M137,150h1v47.2716847615705h-1Z" style="fill: #e0e0e0;"></path><path d="M138,150h1v47.212962265537726h-1Z" style="fill: #e0e0e0;"></path><path d="M139,150h1v47.12992107443674h-1Z" style="fill: #f00;"></path><path d="M140,150h1v46.93748151831474h-1Z" style="fill: #e0e0e0;"></path><path d="M141,150h1v46.673349495457245h-1Z" style="fill: #e0e0e0;"></path><path d="M142,150h1v46.670977230595014h-1Z" style="fill: #e0e0e0;"></path><path d="M143,150h1v46.21873294882624h-1Z" style="fill: #e0e0e0;"></path><path d="M144,150h1v46.12652456335877h-1Z" style="fill: #e0e0e0;"></path><path d="M145,150h1v45.925299282596995h-1Z" style="fill: #e0e0e0;"></path><path d="M146,150h1v45.90468799643372h-1Z" style="fill: #e0e0e0;"></path><path d="M147,150h1v45.621899719761245h-1Z" style="fill: #e0e0e0;"></path><path d="M148,150h1v45.592335815952765h-1Z" style="fill: #e0e0e0;"></path><path d="M149,150h1v45.45157348685126h-1Z" style="fill: #e0e0e0;"></path><path d="M150,150h1v45.37439739279603h-1Z" style="fill: #e0e0e0;"></path><path d="M151,150h1v45.00211870245778h-1Z" style="fill: #e0e0e0;"></path><path d="M152,150h1v44.95786821417653h-1Z" style="fill: #e0e0e0;"></path><path d="M153,150h1v44.716838951634h-1Z" style="fill: #e0e0e0;"></path><path d="M154,150h1v44.64910423331125h-1Z" style="fill: #e0e0e0;"></path><path d="M155,150h1v44.446913357304h-1Z" style="fill: #e0e0e0;"></path><path d="M156,150h1v44.406501408146255h-1Z" style="fill: #e0e0e0;"></path><path d="M157,150h1v44.28191577963676h-1Z" style="fill: #e0e0e0;"></path><path d="M158,150h1v44.24376880698048h-1Z" style="fill: #e0e0e0;"></path><path d="M159,150h1v43.71008073859076h-1Z" style="fill: #e0e0e0;"></path><path d="M160,150h1v43.33339130453925h-1Z" style="fill: #e0e0e0;"></path><path d="M161,150h1v43.23472177557801h-1Z" style="fill: #e0e0e0;"></path><path d="M162,150h1v42.96592866949899h-1Z" style="fill: #e0e0e0;"></path><path d="M163,150h1v42.65034591727101h-1Z" style="fill: #e0e0e0;"></path><path d="M164,150h1v42.519024963901984h-1Z" style="fill: #e0e0e0;"></path><path d="M165,150h1v42.34773313574652h-1Z" style="fill: #e0e0e0;"></path><path d="M166,150h1v42.038790340946775h-1Z" style="fill: #e0e0e0;"></path><path d="M167,150h1v42.0316616254315h-1Z" style="fill: #e0e0e0;"></path><path d="M168,150h1v41.99639951758249h-1Z" style="fill: #e0e0e0;"></path><path d="M169,150h1v41.937677021549746h-1Z" style="fill: #e0e0e0;"></path><path d="M170,150h1v41.86165725760327h-1Z" style="fill: #e0e0e0;"></path><path d="M171,150h1v41.693774815128734h-1Z" style="fill: #e0e0e0;"></path><path d="M172,150h1v41.49628078513001h-1Z" style="fill: #e0e0e0;"></path><path d="M173,150h1v41.45144617133002h-1Z" style="fill: #e0e0e0;"></path><path d="M174,150h1v41.1503592687115h-1Z" style="fill: #e0e0e0;"></path><path d="M175,150h1v41.10547697119574h-1Z" style="fill: #e0e0e0;"></path><path d="M176,150h1v40.81420099310725h-1Z" style="fill: #e0e0e0;"></path><path d="M177,150h1v40.77212011389577h-1Z" style="fill: #e0e0e0;"></path><path d="M178,150h1v40.654663200901496h-1Z" style="fill: #e0e0e0;"></path><path d="M179,150h1v40.35165702872126h-1Z" style="fill: #e0e0e0;"></path><path d="M180,150h1v40.343383904026496h-1Z" style="fill: #e0e0e0;"></path><path d="M181,150h1v40.316537972019745h-1Z" style="fill: #e0e0e0;"></path><path d="M182,150h1v40.30478393607001h-1Z" style="fill: #e0e0e0;"></path><path d="M183,150h1v40.112964268253734h-1Z" style="fill: #e0e0e0;"></path><path d="M184,150h1v40.043763275669505h-1Z" style="fill: #e0e0e0;"></path><path d="M185,150h1v39.75481187872751h-1Z" style="fill: #e0e0e0;"></path><path d="M186,150h1v39.35738002829399h-1Z" style="fill: #e0e0e0;"></path><path d="M187,150h1v39.349714870976015h-1Z" style="fill: #e0e0e0;"></path><path d="M188,150h1v39.261607285068976h-1Z" style="fill: #e0e0e0;"></path><path d="M189,150h1v39.186147804783246h-1Z" style="fill: #e0e0e0;"></path><path d="M190,150h1v39.017740841435h-1Z" style="fill: #e0e0e0;"></path><path d="M191,150h1v38.7973347859845h-1Z" style="fill: #e0e0e0;"></path><path d="M192,150h1v38.74661123328076h-1Z" style="fill: #e0e0e0;"></path><path d="M193,150h1v38.63022720389225h-1Z" style="fill: #e0e0e0;"></path><path d="M194,150h1v38.49435245566224h-1Z" style="fill: #e0e0e0;"></path><path d="M195,150h1v38.481442089603775h-1Z" style="fill: #e0e0e0;"></path><path d="M196,150h1v38.276473637150275h-1Z" style="fill: #e0e0e0;"></path><path d="M197,150h1v38.222161884830996h-1Z" style="fill: #e0e0e0;"></path><path d="M198,150h1v38.21626102499823h-1Z" style="fill: #e0e0e0;"></path><path d="M199,150h1v38.17276155524101h-1Z" style="fill: #e0e0e0;"></path><path d="M200,150h1v38.08921968512402h-1Z" style="fill: #e0e0e0;"></path><path d="M201,150h1v38.064924831913515h-1Z" style="fill: #e0e0e0;"></path><path d="M202,150h1v38.00839578680851h-1Z" style="fill: #e0e0e0;"></path><path d="M203,150h1v38.00063526205875h-1Z" style="fill: #e0e0e0;"></path><path d="M204,150h1v37.9959026532635h-1Z" style="fill: #e0e0e0;"></path><path d="M205,150h1v37.89573108725398h-1Z" style="fill: #e0e0e0;"></path><path d="M206,150h1v37.7682367520795h-1Z" style="fill: #e0e0e0;"></path><path d="M207,150h1v37.73042356543402h-1Z" style="fill: #e0e0e0;"></path><path d="M208,150h1v37.70145570807301h-1Z" style="fill: #e0e0e0;"></path><path d="M209,150h1v37.6978913503155h-1Z" style="fill: #e0e0e0;"></path><path d="M210,150h1v37.651328201816995h-1Z" style="fill: #e0e0e0;"></path><path d="M211,150h1v37.36397420935475h-1Z" style="fill: #e0e0e0;"></path><path d="M212,150h1v37.35810911230902h-1Z" style="fill: #e0e0e0;"></path><path d="M213,150h1v37.31769716315125h-1Z" style="fill: #e0e0e0;"></path><path d="M214,150h1v37.1528068738445h-1Z" style="fill: #e0e0e0;"></path><path d="M215,150h1v37.01619302801953h-1Z" style="fill: #e0e0e0;"></path><path d="M216,150h1v36.95304786734425h-1Z" style="fill: #e0e0e0;"></path><path d="M217,150h1v36.88056861929749h-1Z" style="fill: #e0e0e0;"></path><path d="M218,150h1v36.78892051749074h-1Z" style="fill: #e0e0e0;"></path><path d="M219,150h1v36.56090890936699h-1Z" style="fill: #e0e0e0;"></path><path d="M220,150h1v36.53966581396901h-1Z" style="fill: #e0e0e0;"></path><path d="M221,150h1v36.3081256108745h-1Z" style="fill: #e0e0e0;"></path><path d="M222,150h1v35.97056066565375h-1Z" style="fill: #e0e0e0;"></path><path d="M223,150h1v35.67531501822327h-1Z" style="fill: #e0e0e0;"></path><path d="M224,150h1v35.636262054966494h-1Z" style="fill: #e0e0e0;"></path><path d="M225,150h1v35.51766073279225h-1Z" style="fill: #e0e0e0;"></path><path d="M226,150h1v35.50088798575251h-1Z" style="fill: #e0e0e0;"></path><path d="M227,150h1v35.44559871725903h-1Z" style="fill: #e0e0e0;"></path><path d="M228,150h1v35.31823551230275h-1Z" style="fill: #e0e0e0;"></path><path d="M229,150h1v35.188857670353514h-1Z" style="fill: #e0e0e0;"></path><path d="M230,150h1v35.18746292166577h-1Z" style="fill: #e0e0e0;"></path><path d="M231,150h1v34.93016159109925h-1Z" style="fill: #e0e0e0;"></path><path d="M232,150h1v34.90995561652028h-1Z" style="fill: #e0e0e0;"></path><path d="M233,150h1v34.773294086979234h-1Z" style="fill: #e0e0e0;"></path><path d="M234,150h1v34.4500104146465h-1Z" style="fill: #e0e0e0;"></path><path d="M235,150h1v34.39474498801073h-1Z" style="fill: #e0e0e0;"></path><path d="M236,150h1v34.3706647115215h-1Z" style="fill: #e0e0e0;"></path><path d="M237,150h1v34.18032323889577h-1Z" style="fill: #e0e0e0;"></path><path d="M238,150h1v34.155718441532514h-1Z" style="fill: #e0e0e0;"></path><path d="M239,150h1v34.12570154242377h-1Z" style="fill: #e0e0e0;"></path><path d="M240,150h1v34.030179138706785h-1Z" style="fill: #e0e0e0;"></path><path d="M241,150h1v33.93636142783026h-1Z" style="fill: #e0e0e0;"></path><path d="M242,150h1v33.925429935978514h-1Z" style="fill: #e0e0e0;"></path><path d="M243,150h1v33.746854420231216h-1Z" style="fill: #e0e0e0;"></path><path d="M244,150h1v33.670560474918744h-1Z" style="fill: #e0e0e0;"></path><path d="M245,150h1v33.540503140018984h-1Z" style="fill: #e0e0e0;"></path><path d="M246,150h1v33.53684341482972h-1Z" style="fill: #e0e0e0;"></path><path d="M247,150h1v33.419160004185244h-1Z" style="fill: #e0e0e0;"></path><path d="M248,150h1v33.41292535834174h-1Z" style="fill: #e0e0e0;"></path><path d="M249,150h1v33.26946889929627h-1Z" style="fill: #e0e0e0;"></path><path d="M250,150h1v32.92217647604801h-1Z" style="fill: #e0e0e0;"></path><path d="M251,150h1v32.825271244572235h-1Z" style="fill: #e0e0e0;"></path><path d="M252,150h1v32.81009590201225h-1Z" style="fill: #e0e0e0;"></path><path d="M253,150h1v32.547024841831785h-1Z" style="fill: #e0e0e0;"></path><path d="M254,150h1v32.378725166843736h-1Z" style="fill: #e0e0e0;"></path><path d="M255,150h1v32.336513157414004h-1Z" style="fill: #e0e0e0;"></path><path d="M256,150h1v32.122580166386h-1Z" style="fill: #e0e0e0;"></path><path d="M257,150h1v32.05033933691823h-1Z" style="fill: #e0e0e0;"></path><path d="M258,150h1v32.048694248722484h-1Z" style="fill: #e0e0e0;"></path><path d="M259,150h1v31.991449947880255h-1Z" style="fill: #e0e0e0;"></path><path d="M260,150h1v31.906215305851504h-1Z" style="fill: #e0e0e0;"></path><path d="M261,150h1v31.89134990744452h-1Z" style="fill: #e0e0e0;"></path><path d="M262,150h1v31.85278570227473h-1Z" style="fill: #e0e0e0;"></path><path d="M263,150h1v31.610147114322984h-1Z" style="fill: #e0e0e0;"></path><path d="M264,150h1v31.567291374729507h-1Z" style="fill: #e0e0e0;"></path><path d="M265,150h1v31.558684464023997h-1Z" style="fill: #e0e0e0;"></path><path d="M266,150h1v31.539026852177017h-1Z" style="fill: #e0e0e0;"></path><path d="M267,150h1v31.48527538351874h-1Z" style="fill: #e0e0e0;"></path><path d="M268,150h1v31.42881786398749h-1Z" style="fill: #e0e0e0;"></path><path d="M269,150h1v31.272200699375503h-1Z" style="fill: #e0e0e0;"></path><path d="M270,150h1v31.235746498630988h-1Z" style="fill: #e0e0e0;"></path><path d="M271,150h1v31.233862991856h-1Z" style="fill: #e0e0e0;"></path><path d="M272,150h1v30.905751343296487h-1Z" style="fill: #e0e0e0;"></path><path d="M273,150h1v30.812183971927993h-1Z" style="fill: #e0e0e0;"></path><path d="M274,150h1v30.747095699833267h-1Z" style="fill: #e0e0e0;"></path><path d="M275,150h1v30.743173714207245h-1Z" style="fill: #e0e0e0;"></path><path d="M276,150h1v30.71986829810001h-1Z" style="fill: #e0e0e0;"></path><path d="M277,150h1v30.717805977390753h-1Z" style="fill: #e0e0e0;"></path><path d="M278,150h1v30.649439449833267h-1Z" style="fill: #e0e0e0;"></path><path d="M279,150h1v30.586771126316478h-1Z" style="fill: #e0e0e0;"></path><path d="M280,150h1v30.58422004752026h-1Z" style="fill: #e0e0e0;"></path><path d="M281,150h1v30.439869518802993h-1Z" style="fill: #e0e0e0;"></path><path d="M282,150h1v30.416587944553726h-1Z" style="fill: #e0e0e0;"></path><path d="M283,150h1v30.379096622990005h-1Z" style="fill: #e0e0e0;"></path><path d="M284,150h1v30.20379936270575h-1Z" style="fill: #e0e0e0;"></path><path d="M285,150h1v30.037562008427017h-1Z" style="fill: #e0e0e0;"></path><path d="M286,150h1v29.952327366398265h-1Z" style="fill: #e0e0e0;"></path><path d="M287,150h1v29.736057873295238h-1Z" style="fill: #e0e0e0;"></path><path d="M288,150h1v29.68415414862477h-1Z" style="fill: #e0e0e0;"></path><path d="M289,150h1v29.5553008275495h-1Z" style="fill: #e0e0e0;"></path><path d="M290,150h1v29.323128815220258h-1Z" style="fill: #e0e0e0;"></path><path d="M291,150h1v29.279963131474005h-1Z" style="fill: #e0e0e0;"></path><path d="M292,150h1v29.259649868534495h-1Z" style="fill: #e0e0e0;"></path><path d="M293,150h1v29.194978828953253h-1Z" style="fill: #e0e0e0;"></path><path d="M294,150h1v29.18907796912049h-1Z" style="fill: #e0e0e0;"></path><path d="M295,150h1v29.160479660557257h-1Z" style="fill: #e0e0e0;"></path><path d="M296,150h1v29.058150406406725h-1Z" style="fill: #e0e0e0;"></path><path d="M297,150h1v28.855768795536505h-1Z" style="fill: #e0e0e0;"></path><path d="M298,150h1v28.72183715872626h-1Z" style="fill: #e0e0e0;"></path><path d="M299,150h1v28.679195995853775h-1Z" style="fill: #e0e0e0;"></path><path d="M300,150h1v28.64772474341251h-1Z" style="fill: #e0e0e0;"></path><path d="M301,150h1v28.619090672062242h-1Z" style="fill: #e0e0e0;"></path><path d="M302,150h1v28.55394279532277h-1Z" style="fill: #e0e0e0;"></path><path d="M303,150h1v28.526643868015753h-1Z" style="fill: #e0e0e0;"></path><path d="M304,150h1v28.500322456882998h-1Z" style="fill: #e0e0e0;"></path><path d="M305,150h1v28.481344337986513h-1Z" style="fill: #e0e0e0;"></path><path d="M306,150h1v28.3037701802715h-1Z" style="fill: #e0e0e0;"></path><path d="M307,150h1v28.234366531895233h-1Z" style="fill: #e0e0e0;"></path><path d="M308,150h1v28.214899654911505h-1Z" style="fill: #e0e0e0;"></path><path d="M309,150h1v28.184155579136245h-1Z" style="fill: #e0e0e0;"></path><path d="M310,150h1v27.937738056705996h-1Z" style="fill: #e0e0e0;"></path><path d="M311,150h1v27.81731283240174h-1Z" style="fill: #e0e0e0;"></path><path d="M312,150h1v27.806321735905243h-1Z" style="fill: #e0e0e0;"></path><path d="M313,150h1v27.761236782596995h-1Z" style="fill: #e0e0e0;"></path><path d="M314,150h1v27.716092224644257h-1Z" style="fill: #e0e0e0;"></path><path d="M315,150h1v27.701799030826976h-1Z" style="fill: #e0e0e0;"></path><path d="M316,150h1v27.6820222096905h-1Z" style="fill: #e0e0e0;"></path><path d="M317,150h1v27.596453781651007h-1Z" style="fill: #e0e0e0;"></path><path d="M318,150h1v27.575985546635025h-1Z" style="fill: #e0e0e0;"></path><path d="M319,150h1v27.551869507359015h-1Z" style="fill: #e0e0e0;"></path><path d="M320,150h1v27.53576433234076h-1Z" style="fill: #e0e0e0;"></path><path d="M321,150h1v27.527205105351015h-1Z" style="fill: #e0e0e0;"></path><path d="M322,150h1v27.264718170689008h-1Z" style="fill: #e0e0e0;"></path><path d="M323,150h1v27.20307504706227h-1Z" style="fill: #e0e0e0;"></path><path d="M324,150h1v26.785985584781997h-1Z" style="fill: #e0e0e0;"></path><path d="M325,150h1v26.553908939884735h-1Z" style="fill: #e0e0e0;"></path><path d="M326,150h1v26.54861604742851h-1Z" style="fill: #e0e0e0;"></path><path d="M327,150h1v26.514200325535228h-1Z" style="fill: #e0e0e0;"></path><path d="M328,150h1v26.420334930943h-1Z" style="fill: #e0e0e0;"></path><path d="M329,150h1v26.36163627676825h-1Z" style="fill: #e0e0e0;"></path><path d="M330,150h1v26.34590065054749h-1Z" style="fill: #e0e0e0;"></path><path d="M331,150h1v26.330689545200755h-1Z" style="fill: #e0e0e0;"></path><path d="M332,150h1v25.886408443974005h-1Z" style="fill: #e0e0e0;"></path><path d="M333,150h1v25.818280334995762h-1Z" style="fill: #e0e0e0;"></path><path d="M334,150h1v25.70985948614924h-1Z" style="fill: #e0e0e0;"></path><path d="M335,150h1v25.63909685187201h-1Z" style="fill: #e0e0e0;"></path><path d="M336,150h1v25.465957279728514h-1Z" style="fill: #e0e0e0;"></path><path d="M337,150h1v25.43331777624948h-1Z" style="fill: #e0e0e0;"></path><path d="M338,150h1v25.141362305210464h-1Z" style="fill: #e0e0e0;"></path><path d="M339,150h1v24.902395363377025h-1Z" style="fill: #e0e0e0;"></path><path d="M340,150h1v24.839870091007697h-1Z" style="fill: #e0e0e0;"></path><path d="M341,150h1v24.80447685294004h-1Z" style="fill: #e0e0e0;"></path><path d="M342,150h1v24.741224403904425h-1Z" style="fill: #e0e0e0;"></path><path d="M343,150h1v24.42986166052671h-1Z" style="fill: #e0e0e0;"></path><path d="M344,150h1v24.308470840977122h-1Z" style="fill: #e0e0e0;"></path><path d="M345,150h1v24.23806583456846h-1Z" style="fill: #e0e0e0;"></path><path d="M346,150h1v24.146298523472268h-1Z" style="fill: #e0e0e0;"></path><path d="M347,150h1v23.901585693882453h-1Z" style="fill: #e0e0e0;"></path><path d="M348,150h1v23.890821095036017h-1Z" style="fill: #e0e0e0;"></path><path d="M349,150h1v23.872200604008185h-1Z" style="fill: #e0e0e0;"></path><path d="M350,150h1v23.863557930515725h-1Z" style="fill: #e0e0e0;"></path><path d="M351,150h1v23.75525629095887h-1Z" style="fill: #e0e0e0;"></path><path d="M352,150h1v23.73375093512385h-1Z" style="fill: #e0e0e0;"></path><path d="M353,150h1v23.718456383274543h-1Z" style="fill: #e0e0e0;"></path><path d="M354,150h1v23.69544899039124h-1Z" style="fill: #e0e0e0;"></path><path d="M355,150h1v23.393169994877297h-1Z" style="fill: #e0e0e0;"></path><path d="M356,150h1v23.098699207828986h-1Z" style="fill: #e0e0e0;"></path><path d="M357,150h1v23.096350784824836h-1Z" style="fill: #e0e0e0;"></path><path d="M358,150h1v23.0172911839947h-1Z" style="fill: #e0e0e0;"></path><path d="M359,150h1v22.975782509373147h-1Z" style="fill: #e0e0e0;"></path><path d="M360,150h1v22.805635090397345h-1Z" style="fill: #e0e0e0;"></path><path d="M361,150h1v22.799340839909064h-1Z" style="fill: #e0e0e0;"></path><path d="M362,150h1v22.646073456333625h-1Z" style="fill: #e0e0e0;"></path><path d="M363,150h1v22.628823872135627h-1Z" style="fill: #e0e0e0;"></path><path d="M364,150h1v22.542730923222024h-1Z" style="fill: #e0e0e0;"></path><path d="M365,150h1v22.33628427557801h-1Z" style="fill: #e0e0e0;"></path><path d="M366,150h1v22.253874893711497h-1Z" style="fill: #e0e0e0;"></path><path d="M367,150h1v22.232739086674172h-1Z" style="fill: #e0e0e0;"></path><path d="M368,150h1v22.2146788793072h-1Z" style="fill: #e0e0e0;"></path><path d="M369,150h1v22.206381912754495h-1Z" style="fill: #e0e0e0;"></path><path d="M370,150h1v22.142223473118264h-1Z" style="fill: #e0e0e0;"></path><path d="M371,150h1v22.12500965170716h-1Z" style="fill: #e0e0e0;"></path><path d="M372,150h1v22.114829178379495h-1Z" style="fill: #e0e0e0;"></path><path d="M373,150h1v22.0402399259076h-1Z" style="fill: #e0e0e0;"></path><path d="M374,150h1v21.6569582181439h-1Z" style="fill: #e0e0e0;"></path><path d="M375,150h1v21.598712559269387h-1Z" style="fill: #e0e0e0;"></path><path d="M376,150h1v21.53796350531431h-1Z" style="fill: #e0e0e0;"></path><path d="M377,150h1v21.521846409367043h-1Z" style="fill: #e0e0e0;"></path><path d="M378,150h1v21.511725540684182h-1Z" style="fill: #e0e0e0;"></path><path d="M379,150h1v21.51139175467344h-1Z" style="fill: #e0e0e0;"></path><path d="M380,150h1v21.314857359455544h-1Z" style="fill: #e0e0e0;"></path><path d="M381,150h1v21.293202992008645h-1Z" style="fill: #e0e0e0;"></path><path d="M382,150h1v21.283952351139476h-1Z" style="fill: #e0e0e0;"></path><path d="M383,150h1v21.181468124912698h-1Z" style="fill: #e0e0e0;"></path><path d="M384,150h1v20.871315355823953h-1Z" style="fill: #e0e0e0;"></path><path d="M385,150h1v20.79080736212586h-1Z" style="fill: #e0e0e0;"></path><path d="M386,150h1v20.77119743399473h-1Z" style="fill: #e0e0e0;"></path><path d="M387,150h1v20.68441307120176h-1Z" style="fill: #e0e0e0;"></path><path d="M388,150h1v20.40583288245054h-1Z" style="fill: #e0e0e0;"></path><path d="M389,150h1v20.30742561392637h-1Z" style="fill: #e0e0e0;"></path><path d="M390,150h1v20.117578859852273h-1Z" style="fill: #e0e0e0;"></path><path d="M391,150h1v19.91736089758726h-1Z" style="fill: #e0e0e0;"></path><path d="M392,150h1v19.65030228667112h-1Z" style="fill: #e0e0e0;"></path><path d="M393,150h1v19.38361322455259h-1Z" style="fill: #e0e0e0;"></path><path d="M394,150h1v19.270781631992747h-1Z" style="fill: #e0e0e0;"></path><path d="M395,150h1v19.203648920582225h-1Z" style="fill: #e0e0e0;"></path><path d="M396,150h1v19.137261267231423h-1Z" style="fill: #e0e0e0;"></path><path d="M397,150h1v19.01951229147764h-1Z" style="fill: #e0e0e0;"></path><path d="M398,150h1v19.014368410633523h-1Z" style="fill: #e0e0e0;"></path><path d="M399,150h1v18.994329329060037h-1Z" style="fill: #e0e0e0;"></path><path d="M400,150h1v18.980304356144387h-1Z" style="fill: #e0e0e0;"></path><path d="M401,150h1v18.94796287588926h-1Z" style="fill: #e0e0e0;"></path><path d="M402,150h1v18.825153465794045h-1Z" style="fill: #e0e0e0;"></path><path d="M403,150h1v18.816743250416238h-1Z" style="fill: #e0e0e0;"></path><path d="M404,150h1v18.664077873753058h-1Z" style="fill: #e0e0e0;"></path><path d="M405,150h1v18.361524696873147h-1Z" style="fill: #e0e0e0;"></path><path d="M406,150h1v18.325243349598367h-1Z" style="fill: #e0e0e0;"></path><path d="M407,150h1v18.321202154682595h-1Z" style="fill: #e0e0e0;"></path><path d="M408,150h1v18.303791637943675h-1Z" style="fill: #e0e0e0;"></path><path d="M409,150h1v18.26919114165159h-1Z" style="fill: #e0e0e0;"></path><path d="M410,150h1v18.23668276839109h-1Z" style="fill: #e0e0e0;"></path><path d="M411,150h1v18.17111765913816h-1Z" style="fill: #e0e0e0;"></path><path d="M412,150h1v18.102542515324075h-1Z" style="fill: #e0e0e0;"></path><path d="M413,150h1v17.95609390311094h-1Z" style="fill: #e0e0e0;"></path><path d="M414,150h1v17.324272747562844h-1Z" style="fill: #e0e0e0;"></path><path d="M415,150h1v17.140726204441535h-1Z" style="fill: #e0e0e0;"></path><path d="M416,150h1v17.099384422825295h-1Z" style="fill: #e0e0e0;"></path><path d="M417,150h1v17.03322326712461h-1Z" style="fill: #e0e0e0;"></path><path d="M418,150h1v16.878888960407693h-1Z" style="fill: #e0e0e0;"></path><path d="M419,150h1v16.772464867161233h-1Z" style="fill: #e0e0e0;"></path><path d="M420,150h1v16.655335779713113h-1Z" style="fill: #e0e0e0;"></path><path d="M421,150h1v16.6378775792584h-1Z" style="fill: #e0e0e0;"></path><path d="M422,150h1v16.551331635044534h-1Z" style="fill: #e0e0e0;"></path><path d="M423,150h1v16.53682982497071h-1Z" style="fill: #e0e0e0;"></path><path d="M424,150h1v16.285107489155223h-1Z" style="fill: #e0e0e0;"></path><path d="M425,150h1v16.26558696799131h-1Z" style="fill: #e0e0e0;"></path><path d="M426,150h1v16.165498848484475h-1Z" style="fill: #e0e0e0;"></path><path d="M427,150h1v16.05130827002381h-1Z" style="fill: #e0e0e0;"></path><path d="M428,150h1v16.04133045248841h-1Z" style="fill: #e0e0e0;"></path><path d="M429,150h1v15.894893761204173h-1Z" style="fill: #e0e0e0;"></path><path d="M430,150h1v15.838960762546975h-1Z" style="fill: #e0e0e0;"></path><path d="M431,150h1v15.492931957767922h-1Z" style="fill: #e0e0e0;"></path><path d="M432,150h1v15.400747414158275h-1Z" style="fill: #e0e0e0;"></path><path d="M433,150h1v15.329364891575295h-1Z" style="fill: #e0e0e0;"></path><path d="M434,150h1v15.264294500873973h-1Z" style="fill: #e0e0e0;"></path><path d="M435,150h1v15.180347319172341h-1Z" style="fill: #e0e0e0;"></path><path d="M436,150h1v15.07230197958799h-1Z" style="fill: #e0e0e0;"></path><path d="M437,150h1v14.770857449100959h-1Z" style="fill: #e0e0e0;"></path><path d="M438,150h1v14.580831881092536h-1Z" style="fill: #e0e0e0;"></path><path d="M439,150h1v14.50254714064451h-1Z" style="fill: #e0e0e0;"></path><path d="M440,150h1v14.271811600254495h-1Z" style="fill: #e0e0e0;"></path><path d="M441,150h1v14.156518335865485h-1Z" style="fill: #e0e0e0;"></path><path d="M442,150h1v14.14168870024534h-1Z" style="fill: #e0e0e0;"></path><path d="M443,150h1v14.117471333073098h-1Z" style="fill: #e0e0e0;"></path><path d="M444,150h1v13.998548145817239h-1Z" style="fill: #e0e0e0;"></path><path d="M445,150h1v13.943044300602395h-1Z" style="fill: #e0e0e0;"></path><path d="M446,150h1v13.8430515485272h-1Z" style="fill: #e0e0e0;"></path><path d="M447,150h1v13.811979647205789h-1Z" style="fill: #e0e0e0;"></path><path d="M448,150h1v13.7023786263928h-1Z" style="fill: #e0e0e0;"></path><path d="M449,150h1v13.699165936039435h-1Z" style="fill: #e0e0e0;"></path><path d="M450,150h1v13.561550732181985h-1Z" style="fill: #e0e0e0;"></path><path d="M451,150h1v13.377563114689309h-1Z" style="fill: #e0e0e0;"></path><path d="M452,150h1v13.31313645415159h-1Z" style="fill: #e0e0e0;"></path><path d="M453,150h1v13.042412157581765h-1Z" style="fill: #e0e0e0;"></path><path d="M454,150h1v12.723271008060891h-1Z" style="fill: #e0e0e0;"></path><path d="M455,150h1v12.487236614750344h-1Z" style="fill: #e0e0e0;"></path><path d="M456,150h1v12.252519484089333h-1Z" style="fill: #e0e0e0;"></path><path d="M457,150h1v12.134603615330178h-1Z" style="fill: #e0e0e0;"></path><path d="M458,150h1v12.01453601889466h-1Z" style="fill: #e0e0e0;"></path><path d="M459,150h1v11.998502369450051h-1Z" style="fill: #e0e0e0;"></path><path d="M460,150h1v11.973164434956033h-1Z" style="fill: #e0e0e0;"></path><path d="M461,150h1v11.94657480292176h-1Z" style="fill: #e0e0e0;"></path><path d="M462,150h1v11.684379931019265h-1Z" style="fill: #e0e0e0;"></path><path d="M463,150h1v11.524770613239724h-1Z" style="fill: #e0e0e0;"></path><path d="M464,150h1v11.436049099491584h-1Z" style="fill: #e0e0e0;"></path><path d="M465,150h1v11.180982943104226h-1Z" style="fill: #e0e0e0;"></path><path d="M466,150h1v11.091683264301736h-1Z" style="fill: #e0e0e0;"></path><path d="M467,150h1v11.083648558186013h-1Z" style="fill: #e0e0e0;"></path><path d="M468,150h1v11.03688871435972h-1Z" style="fill: #e0e0e0;"></path><path d="M469,150h1v10.572276468800027h-1Z" style="fill: #e0e0e0;"></path><path d="M470,150h1v10.263208504246194h-1Z" style="fill: #e0e0e0;"></path><path d="M471,150h1v10.21579300932737h-1Z" style="fill: #e0e0e0;"></path><path d="M472,150h1v10.166100616978127h-1Z" style="fill: #e0e0e0;"></path><path d="M473,150h1v10.11501347594114h-1Z" style="fill: #e0e0e0;"></path><path d="M474,150h1v10.054991598652322h-1Z" style="fill: #e0e0e0;"></path><path d="M475,150h1v10.00924503378721h-1Z" style="fill: #e0e0e0;"></path><path d="M476,150h1v9.727845545338113h-1Z" style="fill: #e0e0e0;"></path><path d="M477,150h1v9.380118008182961h-1Z" style="fill: #e0e0e0;"></path><path d="M478,150h1v9.330509062336375h-1Z" style="fill: #e0e0e0;"></path><path d="M479,150h1v9.280655737446267h-1Z" style="fill: #e0e0e0;"></path><path d="M480,150h1v9.241972322987039h-1Z" style="fill: #e0e0e0;"></path><path d="M481,150h1v9.199867601917674h-1Z" style="fill: #e0e0e0;"></path><path d="M482,150h1v8.868090267704446h-1Z" style="fill: #e0e0e0;"></path><path d="M483,150h1v8.7030688481793h-1Z" style="fill: #e0e0e0;"></path><path d="M484,150h1v8.551249857471902h-1Z" style="fill: #e0e0e0;"></path><path d="M485,150h1v8.46282636694761h-1Z" style="fill: #e0e0e0;"></path><path d="M486,150h1v8.007190580891091h-1Z" style="fill: #e0e0e0;"></path><path d="M487,150h1v7.879726048038918h-1Z" style="fill: #e0e0e0;"></path><path d="M488,150h1v7.798902149723489h-1Z" style="fill: #e0e0e0;"></path><path d="M489,150h1v7.5988212781414575h-1Z" style="fill: #e0e0e0;"></path><path d="M490,150h1v7.569823618458258h-1Z" style="fill: #e0e0e0;"></path><path d="M491,150h1v7.547865267322976h-1Z" style="fill: #e0e0e0;"></path><path d="M492,150h1v7.342771645115334h-1Z" style="fill: #e0e0e0;"></path><path d="M493,150h1v7.3186675267681665h-1Z" style="fill: #e0e0e0;"></path><path d="M494,150h1v6.585476751850564h-1Z" style="fill: #e0e0e0;"></path><path d="M495,150h1v6.262824888752419h-1Z" style="fill: #e0e0e0;"></path><path d="M496,150h1v6.262669916675975h-1Z" style="fill: #e0e0e0;"></path><path d="M497,150h1v6.2339047151074h-1Z" style="fill: #e0e0e0;"></path><path d="M498,150h1v6.088713760899026h-1Z" style="fill: #e0e0e0;"></path><path d="M499,150h1v6.023649330662209h-1Z" style="fill: #e0e0e0;"></path><path d="M500,150h1v5.9240142064556665h-1Z" style="fill: #e0e0e0;"></path><path d="M501,150h1v5.8517674165234155h-1Z" style="fill: #e0e0e0;"></path><path d="M502,150h1v5.840341206119973h-1Z" style="fill: #e0e0e0;"></path><path d="M503,150h1v5.74676191382261h-1Z" style="fill: #e0e0e0;"></path><path d="M504,150h1v5.536482687519509h-1Z" style="fill: #e0e0e0;"></path><path d="M505,150h1v5.494658108280618h-1Z" style="fill: #e0e0e0;"></path><path d="M506,150h1v5.381075497196633h-1Z" style="fill: #e0e0e0;"></path><path d="M507,150h1v5.325422640369851h-1Z" style="fill: #f00;"></path><path d="M508,150h1v5.074171181248147h-1Z" style="fill: #e0e0e0;"></path><path d="M509,150h1v4.719827528522927h-1Z" style="fill: #e0e0e0;"></path><path d="M510,150h1v4.574803467319924h-1Z" style="fill: #e0e0e0;"></path><path d="M511,150h1v4.445455427692849h-1Z" style="fill: #e0e0e0;"></path><path d="M512,150h1v4.19261848502012h-1Z" style="fill: #e0e0e0;"></path><path d="M513,150h1v4.190425034092385h-1Z" style="fill: #e0e0e0;"></path><path d="M514,150h1v4.165414925144631h-1Z" style="fill: #e0e0e0;"></path><path d="M515,150h1v4.165075178669412h-1Z" style="fill: #e0e0e0;"></path><path d="M516,150h1v4.12366187147947h-1Z" style="fill: #e0e0e0;"></path><path d="M517,150h1v4.063949938343484h-1Z" style="fill: #e0e0e0;"></path><path d="M518,150h1v3.889171238468606h-1Z" style="fill: #e0e0e0;"></path><path d="M519,150h1v3.841672297047097h-1Z" style="fill: #e0e0e0;"></path><path d="M520,150h1v3.8110951142773217h-1Z" style="fill: #e0e0e0;"></path><path d="M521,150h1v3.23899185232969h-1Z" style="fill: #e0e0e0;"></path><path d="M522,150h1v3.0172566133007592h-1Z" style="fill: #e0e0e0;"></path><path d="M523,150h1v2.9541114526257104h-1Z" style="fill: #e0e0e0;"></path><path d="M524,150h1v2.862445469425637h-1Z" style="fill: #e0e0e0;"></path><path d="M525,150h1v2.850810642765481h-1Z" style="fill: #e0e0e0;"></path><path d="M526,150h1v2.5303820329174584h-1Z" style="fill: #e0e0e0;"></path><path d="M527,150h1v2.517584915684182h-1Z" style="fill: #e0e0e0;"></path><path d="M528,150h1v2.3795107560619897h-1Z" style="fill: #e0e0e0;"></path><path d="M529,150h1v2.348641510532815h-1Z" style="fill: #e0e0e0;"></path><path d="M530,150h1v2.3121038632855004h-1Z" style="fill: #e0e0e0;"></path><path d="M531,150h1v1.5702882962688989h-1Z" style="fill: #e0e0e0;"></path><path d="M532,150h1v1.4833906846508569h-1Z" style="fill: #e0e0e0;"></path><path d="M533,150h1v1.4441231446728295h-1Z" style="fill: #e0e0e0;"></path><path d="M534,150h1v1.3491967874035424h-1Z" style="fill: #e0e0e0;"></path><path d="M535,150h1v1.3224581437573022h-1Z" style="fill: #e0e0e0;"></path><path d="M536,150h1v1.1904159741863793h-1Z" style="fill: #e0e0e0;"></path><path d="M537,150h1v0.647000427769143h-1Z" style="fill: #e0e0e0;"></path><path d="M538,150h1v0.4986861901745385h-1Z" style="fill: #e0e0e0;"></path><path d="M539,150h1v0.06468092970700923h-1Z" style="fill: #e0e0e0;"></path><path d="M540,149.8660007672772h1v0.13399923272280034h-1Z" style="fill: #e0e0e0;"></path><path d="M541,149.8133221822247h1v0.18667781777529058h-1Z" style="fill: #e0e0e0;"></path><path d="M542,149.77995550207945h1v0.22004449792055425h-1Z" style="fill: #e0e0e0;"></path><path d="M543,149.65277707152222h1v0.3472229284777768h-1Z" style="fill: #e0e0e0;"></path><path d="M544,149.43553602270936h1v0.564463977290643h-1Z" style="fill: #e0e0e0;"></path><path d="M545,149.41898977331968h1v0.5810102266803199h-1Z" style="fill: #e0e0e0;"></path><path d="M546,149.25986921362733h1v0.7401307863726743h-1Z" style="fill: #e0e0e0;"></path><path d="M547,148.86609708838316h1v1.1339029116168433h-1Z" style="fill: #e0e0e0;"></path><path d="M548,148.63766824774598h1v1.362331752254022h-1Z" style="fill: #e0e0e0;"></path><path d="M549,148.56321012549256h1v1.43678987450744h-1Z" style="fill: #e0e0e0;"></path><path d="M550,148.36222326330994h1v1.637776736690057h-1Z" style="fill: #e0e0e0;"></path><path d="M551,148.2938150125012h1v1.7061849874988013h-1Z" style="fill: #e0e0e0;"></path><path d="M552,147.97700440459107h1v2.022995595408929h-1Z" style="fill: #e0e0e0;"></path><path d="M553,147.96881472639893h1v2.031185273601068h-1Z" style="fill: #e0e0e0;"></path><path d="M554,147.87056242995115h1v2.12943757004885h-1Z" style="fill: #e0e0e0;"></path><path d="M555,147.71702086500974h1v2.2829791349902564h-1Z" style="fill: #e0e0e0;"></path><path d="M556,147.5970843987927h1v2.4029156012072974h-1Z" style="fill: #e0e0e0;"></path><path d="M557,147.55320941977354h1v2.4467905802264625h-1Z" style="fill: #e0e0e0;"></path><path d="M558,147.26610576681944h1v2.733894233180564h-1Z" style="fill: #e0e0e0;"></path><path d="M559,147.26341163687562h1v2.7365883631243832h-1Z" style="fill: #e0e0e0;"></path><path d="M560,147.11492454581116h1v2.8850754541888364h-1Z" style="fill: #e0e0e0;"></path><path d="M561,147.0255891042218h1v2.974410895778192h-1Z" style="fill: #e0e0e0;"></path><path d="M562,147.00033461623045h1v2.9996653837695533h-1Z" style="fill: #e0e0e0;"></path><path d="M563,146.93783914618345h1v3.0621608538165503h-1Z" style="fill: #e0e0e0;"></path><path d="M564,146.3905552583203h1v3.6094447416797095h-1Z" style="fill: #e0e0e0;"></path><path d="M565,146.3802138524518h1v3.6197861475482114h-1Z" style="fill: #e0e0e0;"></path><path d="M566,146.3581780152783h1v3.6418219847217017h-1Z" style="fill: #e0e0e0;"></path><path d="M567,146.30068337492796h1v3.6993166250720435h-1Z" style="fill: #e0e0e0;"></path><path d="M568,146.24380862288325h1v3.7561913771167497h-1Z" style="fill: #e0e0e0;"></path><path d="M569,145.99888717703672h1v4.001112822963279h-1Z" style="fill: #e0e0e0;"></path><path d="M570,145.92498337797971h1v4.075016622020286h-1Z" style="fill: #e0e0e0;"></path><path d="M571,145.8301285462842h1v4.169871453715814h-1Z" style="fill: #e0e0e0;"></path><path d="M572,145.67464983038758h1v4.32535016961242h-1Z" style="fill: #e0e0e0;"></path><path d="M573,145.2889183717236h1v4.711081628276389h-1Z" style="fill: #e0e0e0;"></path><path d="M574,145.2382544236645h1v4.7617455763355h-1Z" style="fill: #e0e0e0;"></path><path d="M575,145.1395968156323h1v4.860403184367698h-1Z" style="fill: #e0e0e0;"></path><path d="M576,145.09169256262632h1v4.908307437373679h-1Z" style="fill: #e0e0e0;"></path><path d="M577,145.0538078504071h1v4.946192149592889h-1Z" style="fill: #e0e0e0;"></path><path d="M578,144.93837153487058h1v5.0616284651294166h-1Z" style="fill: #e0e0e0;"></path><path d="M579,144.7522739129529h1v5.247726087047113h-1Z" style="fill: #e0e0e0;"></path><path d="M580,144.54417621664854h1v5.4558237833514625h-1Z" style="fill: #e0e0e0;"></path><path d="M581,144.47581564955564h1v5.524184350444358h-1Z" style="fill: #e0e0e0;"></path><path d="M582,144.30506622366758h1v5.6949337763324195h-1Z" style="fill: #e0e0e0;"></path><path d="M583,144.2189494328961h1v5.781050567103904h-1Z" style="fill: #e0e0e0;"></path><path d="M584,143.9192095952496h1v6.080790404750388h-1Z" style="fill: #e0e0e0;"></path><path d="M585,143.71826445631837h1v6.281735543681634h-1Z" style="fill: #e0e0e0;"></path><path d="M586,143.42787062697266h1v6.572129373027337h-1Z" style="fill: #e0e0e0;"></path><path d="M587,143.42603480391355h1v6.573965196086448h-1Z" style="fill: #e0e0e0;"></path><path d="M588,143.25527941756104h1v6.7447205824389584h-1Z" style="fill: #e0e0e0;"></path><path d="M589,142.82020127348753h1v7.179798726512473h-1Z" style="fill: #e0e0e0;"></path><path d="M590,142.69435202650877h1v7.305647973491233h-1Z" style="fill: #e0e0e0;"></path><path d="M591,142.4847820954785h1v7.515217904521506h-1Z" style="fill: #e0e0e0;"></path><path d="M592,142.18894040160035h1v7.811059598399652h-1Z" style="fill: #e0e0e0;"></path><path d="M593,142.02409183554505h1v7.97590816445495h-1Z" style="fill: #e0e0e0;"></path><path d="M594,141.8644527154431h1v8.135547284556907h-1Z" style="fill: #e0e0e0;"></path><path d="M595,141.57405292563294h1v8.425947074367059h-1Z" style="fill: #e0e0e0;"></path><path d="M596,141.41320979170655h1v8.58679020829345h-1Z" style="fill: #e0e0e0;"></path><path d="M597,141.33561646513792h1v8.664383534862083h-1Z" style="fill: #e0e0e0;"></path><path d="M598,141.2301877694592h1v8.769812230540794h-1Z" style="fill: #e0e0e0;"></path><path d="M599,141.19788205199097h1v8.802117948009027h-1Z" style="fill: #e0e0e0;"></path><path d="M600,140.9897664742932h1v9.01023352570681h-1Z" style="fill: #e0e0e0;"></path><path d="M601,140.88509475760313h1v9.114905242396873h-1Z" style="fill: #e0e0e0;"></path><path d="M602,140.3653720574841h1v9.634627942515891h-1Z" style="fill: #e0e0e0;"></path><path d="M603,140.28194343619202h1v9.718056563807977h-1Z" style="fill: #e0e0e0;"></path><path d="M604,140.10531103186463h1v9.89468896813537h-1Z" style="fill: #e0e0e0;"></path><path d="M605,139.9026492791638h1v10.097350720836204h-1Z" style="fill: #e0e0e0;"></path><path d="M606,139.88349234633301h1v10.116507653666986h-1Z" style="fill: #e0e0e0;"></path><path d="M607,139.79850804381223h1v10.201491956187766h-1Z" style="fill: #e0e0e0;"></path><path d="M608,139.7008637147412h1v10.299136285258811h-1Z" style="fill: #e0e0e0;"></path><path d="M609,139.65297734312864h1v10.34702265687136h-1Z" style="fill: #e0e0e0;"></path><path d="M610,139.54256569914673h1v10.457434300853265h-1Z" style="fill: #e0e0e0;"></path><path d="M611,139.50642740301942h1v10.493572596980584h-1Z" style="fill: #e0e0e0;"></path><path d="M612,139.3475750642285h1v10.652424935771506h-1Z" style="fill: #e0e0e0;"></path><path d="M613,139.29260170035218h1v10.70739829964782h-1Z" style="fill: #e0e0e0;"></path><path d="M614,138.9581958013043h1v11.0418041986957h-1Z" style="fill: #e0e0e0;"></path><path d="M615,138.43717968039368h1v11.562820319606317h-1Z" style="fill: #e0e0e0;"></path><path d="M616,138.38237916998716h1v11.61762083001284h-1Z" style="fill: #e0e0e0;"></path><path d="M617,138.07338869147154h1v11.926611308528464h-1Z" style="fill: #e0e0e0;"></path><path d="M618,137.97268068365904h1v12.027319316340964h-1Z" style="fill: #e0e0e0;"></path><path d="M619,137.66614591650819h1v12.333854083491815h-1Z" style="fill: #e0e0e0;"></path><path d="M620,137.17932498030513h1v12.820675019694875h-1Z" style="fill: #e0e0e0;"></path><path d="M621,137.17562353186457h1v12.824376468135426h-1Z" style="fill: #e0e0e0;"></path><path d="M622,137.1473590093121h1v12.852640990687888h-1Z" style="fill: #e0e0e0;"></path><path d="M623,137.0801488118634h1v12.91985118813659h-1Z" style="fill: #e0e0e0;"></path><path d="M624,136.79363524489256h1v13.206364755107444h-1Z" style="fill: #e0e0e0;"></path><path d="M625,136.73063313536497h1v13.269366864635032h-1Z" style="fill: #e0e0e0;"></path><path d="M626,136.33657490782593h1v13.663425092174066h-1Z" style="fill: #e0e0e0;"></path><path d="M627,136.22327839903687h1v13.776721600963128h-1Z" style="fill: #e0e0e0;"></path><path d="M628,135.92312132887696h1v14.07687867112304h-1Z" style="fill: #e0e0e0;"></path><path d="M629,135.88533794455384h1v14.11466205544616h-1Z" style="fill: #e0e0e0;"></path><path d="M630,135.81147586874815h1v14.188524131251853h-1Z" style="fill: #e0e0e0;"></path><path d="M631,135.80096756987425h1v14.199032430125754h-1Z" style="fill: #e0e0e0;"></path><path d="M632,135.79885160498472h1v14.20114839501528h-1Z" style="fill: #e0e0e0;"></path><path d="M633,135.7871810155377h1v14.212818984462302h-1Z" style="fill: #e0e0e0;"></path><path d="M634,135.67454015784116h1v14.325459842158835h-1Z" style="fill: #e0e0e0;"></path><path d="M635,135.662780161427h1v14.337219838572992h-1Z" style="fill: #e0e0e0;"></path><path d="M636,135.38355624251219h1v14.616443757487815h-1Z" style="fill: #e0e0e0;"></path><path d="M637,135.17557179503297h1v14.824428204967035h-1Z" style="fill: #e0e0e0;"></path><path d="M638,135.1305285649762h1v14.869471435023797h-1Z" style="fill: #e0e0e0;"></path><path d="M639,135.1209262567029h1v14.879073743297113h-1Z" style="fill: #e0e0e0;"></path><path d="M640,134.95616709761475h1v15.043832902385248h-1Z" style="fill: #e0e0e0;"></path><path d="M641,134.61319005064817h1v15.386809949351829h-1Z" style="fill: #e0e0e0;"></path><path d="M642,134.1030398564801h1v15.896960143519891h-1Z" style="fill: #e0e0e0;"></path><path d="M643,134.0993205266461h1v15.900679473353904h-1Z" style="fill: #e0e0e0;"></path><path d="M644,133.8306347089276h1v16.16936529107241h-1Z" style="fill: #e0e0e0;"></path><path d="M645,133.76792466215937h1v16.232075337840627h-1Z" style="fill: #e0e0e0;"></path><path d="M646,133.64920413069578h1v16.35079586930422h-1Z" style="fill: #e0e0e0;"></path><path d="M647,133.59193598799558h1v16.408064012004417h-1Z" style="fill: #e0e0e0;"></path><path d="M648,133.1764379697308h1v16.823562030269187h-1Z" style="fill: #e0e0e0;"></path><path d="M649,133.09773599676942h1v16.902264003230584h-1Z" style="fill: #e0e0e0;"></path><path d="M650,132.8087965207562h1v17.191203479243796h-1Z" style="fill: #e0e0e0;"></path><path d="M651,132.68877660803648h1v17.311223391963523h-1Z" style="fill: #e0e0e0;"></path><path d="M652,132.64875208906977h1v17.351247910930226h-1Z" style="fill: #e0e0e0;"></path><path d="M653,132.5158396916852h1v17.484160308314813h-1Z" style="fill: #e0e0e0;"></path><path d="M654,132.43816887907835h1v17.561831120921653h-1Z" style="fill: #e0e0e0;"></path><path d="M655,132.1631292062268h1v17.836870793773187h-1Z" style="fill: #e0e0e0;"></path><path d="M656,131.9354752259717h1v18.064524774028314h-1Z" style="fill: #e0e0e0;"></path><path d="M657,131.87773024611326h1v18.12226975388674h-1Z" style="fill: #e0e0e0;"></path><path d="M658,131.57113587431763h1v18.428864125682367h-1Z" style="fill: #e0e0e0;"></path><path d="M659,131.2589267449841h1v18.74107325501589h-1Z" style="fill: #e0e0e0;"></path><path d="M660,130.97457086615412h1v19.025429133845876h-1Z" style="fill: #e0e0e0;"></path><path d="M661,130.76962029509397h1v19.230379704906028h-1Z" style="fill: #e0e0e0;"></path><path d="M662,130.58084642462586h1v19.41915357537414h-1Z" style="fill: #e0e0e0;"></path><path d="M663,130.09938394598817h1v19.900616054011834h-1Z" style="fill: #e0e0e0;"></path><path d="M664,130.01349961333125h1v19.98650038666875h-1Z" style="fill: #e0e0e0;"></path><path d="M665,129.82539331488462h1v20.17460668511538h-1Z" style="fill: #e0e0e0;"></path><path d="M666,129.63716780714844h1v20.362832192851556h-1Z" style="fill: #e0e0e0;"></path><path d="M667,129.62006127409788h1v20.37993872590212h-1Z" style="fill: #e0e0e0;"></path><path d="M668,129.28290760092588h1v20.71709239907412h-1Z" style="fill: #e0e0e0;"></path><path d="M669,129.07045280508845h1v20.92954719491155h-1Z" style="fill: #e0e0e0;"></path><path d="M670,129.02545725874754h1v20.974542741252463h-1Z" style="fill: #e0e0e0;"></path><path d="M671,128.8612345414624h1v21.13876545853759h-1Z" style="fill: #e0e0e0;"></path><path d="M672,128.3943632798657h1v21.6056367201343h-1Z" style="fill: #e0e0e0;"></path><path d="M673,128.26790606551026h1v21.73209393448974h-1Z" style="fill: #e0e0e0;"></path><path d="M674,127.60662829451417h1v22.393371705485833h-1Z" style="fill: #e0e0e0;"></path><path d="M675,127.5958994584546h1v22.404100541545404h-1Z" style="fill: #e0e0e0;"></path><path d="M676,127.36348306708189h1v22.636516932918113h-1Z" style="fill: #e0e0e0;"></path><path d="M677,127.20898782782407h1v22.791012172175925h-1Z" style="fill: #e0e0e0;"></path><path d="M678,127.18733942084162h1v22.812660579158376h-1Z" style="fill: #e0e0e0;"></path><path d="M679,127.18554532103391h1v22.814454678966086h-1Z" style="fill: #e0e0e0;"></path><path d="M680,127.11396610312315h1v22.886033896876853h-1Z" style="fill: #e0e0e0;"></path><path d="M681,126.48790275626035h1v23.512097243739646h-1Z" style="fill: #e0e0e0;"></path><path d="M682,126.2916842656598h1v23.708315734340204h-1Z" style="fill: #e0e0e0;"></path><path d="M683,126.08736550383423h1v23.912634496165765h-1Z" style="fill: #e0e0e0;"></path><path d="M684,125.81242119841428h1v24.187578801585715h-1Z" style="fill: #e0e0e0;"></path><path d="M685,125.75042044691892h1v24.249579553081077h-1Z" style="fill: #e0e0e0;"></path><path d="M686,125.61758553557249h1v24.382414464427512h-1Z" style="fill: #e0e0e0;"></path><path d="M687,125.56755935721247h1v24.432440642787526h-1Z" style="fill: #e0e0e0;"></path><path d="M688,125.34979378752561h1v24.650206212474387h-1Z" style="fill: #e0e0e0;"></path><path d="M689,125.31636154227112h1v24.683638457728875h-1Z" style="fill: #e0e0e0;"></path><path d="M690,125.0848332601056h1v24.915166739894403h-1Z" style="fill: #e0e0e0;"></path><path d="M691,125.06544982962464h1v24.93455017037536h-1Z" style="fill: #e0e0e0;"></path><path d="M692,124.99088441901048h1v25.009115580989516h-1Z" style="fill: #e0e0e0;"></path><path d="M693,124.97005259566149h1v25.029947404338515h-1Z" style="fill: #e0e0e0;"></path><path d="M694,124.88983070425851h1v25.110169295741485h-1Z" style="fill: #e0e0e0;"></path><path d="M695,124.86176287703375h1v25.138237122966245h-1Z" style="fill: #e0e0e0;"></path><path d="M696,124.80785643629875h1v25.19214356370125h-1Z" style="fill: #e0e0e0;"></path><path d="M697,124.78540932707651h1v25.214590672923492h-1Z" style="fill: #e0e0e0;"></path><path d="M698,124.48276674322923h1v25.517233256770766h-1Z" style="fill: #e0e0e0;"></path><path d="M699,124.46668541006898h1v25.533314589931024h-1Z" style="fill: #e0e0e0;"></path><path d="M700,124.15997182898377h1v25.84002817101623h-1Z" style="fill: #e0e0e0;"></path><path d="M701,124.13019334845399h1v25.869806651546014h-1Z" style="fill: #e0e0e0;"></path><path d="M702,124.0261415200695h1v25.9738584799305h-1Z" style="fill: #e0e0e0;"></path><path d="M703,123.917994852589h1v26.082005147410996h-1Z" style="fill: #e0e0e0;"></path><path d="M704,123.87161647848924h1v26.128383521510756h-1Z" style="fill: #e0e0e0;"></path><path d="M705,123.85871207289549h1v26.141287927104514h-1Z" style="fill: #e0e0e0;"></path><path d="M706,123.7960675912365h1v26.203932408763507h-1Z" style="fill: #e0e0e0;"></path><path d="M707,123.76056706480824h1v26.239432935191758h-1Z" style="fill: #e0e0e0;"></path><path d="M708,123.72388040594899h1v26.27611959405101h-1Z" style="fill: #e0e0e0;"></path><path d="M709,123.22301065497251h1v26.776989345027488h-1Z" style="fill: #e0e0e0;"></path><path d="M710,122.999695892857h1v27.000304107142995h-1Z" style="fill: #e0e0e0;"></path><path d="M711,122.76729142241325h1v27.23270857758675h-1Z" style="fill: #e0e0e0;"></path><path d="M712,122.63467704825251h1v27.365322951747487h-1Z" style="fill: #e0e0e0;"></path><path d="M713,122.496674414204h1v27.503325585796006h-1Z" style="fill: #e0e0e0;"></path><path d="M714,122.494314070271h1v27.505685929728998h-1Z" style="fill: #e0e0e0;"></path><path d="M715,122.08862101607173h1v27.911378983928273h-1Z" style="fill: #e0e0e0;"></path><path d="M716,122.05194031767701h1v27.94805968232299h-1Z" style="fill: #e0e0e0;"></path><path d="M717,121.86306511931275h1v28.13693488068725h-1Z" style="fill: #e0e0e0;"></path><path d="M718,121.5986767964825h1v28.401323203517506h-1Z" style="fill: #e0e0e0;"></path><path d="M719,121.39951979689451h1v28.60048020310549h-1Z" style="fill: #e0e0e0;"></path><path d="M720,121.35771011881675h1v28.642289881183245h-1Z" style="fill: #e0e0e0;"></path><path d="M721,121.28227448038899h1v28.717725519611008h-1Z" style="fill: #e0e0e0;"></path><path d="M722,121.12083231978275h1v28.87916768021725h-1Z" style="fill: #e0e0e0;"></path><path d="M723,120.80701982550474h1v29.19298017449526h-1Z" style="fill: #e0e0e0;"></path><path d="M724,120.71493064932676h1v29.28506935067324h-1Z" style="fill: #e0e0e0;"></path><path d="M725,120.4401949601635h1v29.559805039836505h-1Z" style="fill: #e0e0e0;"></path><path d="M726,120.1878408151135h1v29.812159184886497h-1Z" style="fill: #e0e0e0;"></path><path d="M727,119.85135769419526h1v30.148642305804742h-1Z" style="fill: #e0e0e0;"></path><path d="M728,119.796348567532h1v30.203651432468007h-1Z" style="fill: #e0e0e0;"></path><path d="M729,119.67246627383074h1v30.327533726169264h-1Z" style="fill: #e0e0e0;"></path><path d="M730,119.55779885821201h1v30.44220114178799h-1Z" style="fill: #e0e0e0;"></path><path d="M731,119.41221153311574h1v30.587788466884263h-1Z" style="fill: #e0e0e0;"></path><path d="M732,119.37511360220776h1v30.62488639779224h-1Z" style="fill: #e0e0e0;"></path><path d="M733,119.31671595148902h1v30.683284048510984h-1Z" style="fill: #e0e0e0;"></path><path d="M734,119.10769140295824h1v30.89230859704176h-1Z" style="fill: #e0e0e0;"></path><path d="M735,118.96719133429374h1v31.032808665706256h-1Z" style="fill: #e0e0e0;"></path><path d="M736,118.94576048426475h1v31.054239515735247h-1Z" style="fill: #e0e0e0;"></path><path d="M737,118.87168681197022h1v31.12831318802978h-1Z" style="fill: #e0e0e0;"></path><path d="M738,118.684224243687h1v31.315775756313002h-1Z" style="fill: #e0e0e0;"></path><path d="M739,118.600670452641h1v31.399329547359002h-1Z" style="fill: #e0e0e0;"></path><path d="M740,118.489722366856h1v31.510277633144h-1Z" style="fill: #e0e0e0;"></path><path d="M741,118.03358292155127h1v31.96641707844873h-1Z" style="fill: #e0e0e0;"></path><path d="M742,117.92894696764799h1v32.07105303235201h-1Z" style="fill: #e0e0e0;"></path><path d="M743,117.88102185301625h1v32.11897814698375h-1Z" style="fill: #e0e0e0;"></path><path d="M744,117.75993799738748h1v32.24006200261252h-1Z" style="fill: #e0e0e0;"></path><path d="M745,117.75678491167875h1v32.24321508832125h-1Z" style="fill: #e0e0e0;"></path><path d="M746,117.0944938617215h1v32.9055061382785h-1Z" style="fill: #e0e0e0;"></path><path d="M747,116.61108529143178h1v33.38891470856822h-1Z" style="fill: #e0e0e0;"></path><path d="M748,116.60691296629747h1v33.39308703370253h-1Z" style="fill: #e0e0e0;"></path><path d="M749,116.447640414761h1v33.552359585239h-1Z" style="fill: #e0e0e0;"></path><path d="M750,116.32865166239597h1v33.67134833760403h-1Z" style="fill: #e0e0e0;"></path><path d="M751,115.9673789697155h1v34.0326210302845h-1Z" style="fill: #e0e0e0;"></path><path d="M752,115.77359234862175h1v34.22640765137825h-1Z" style="fill: #e0e0e0;"></path><path d="M753,115.73342775873999h1v34.26657224126001h-1Z" style="fill: #e0e0e0;"></path><path d="M754,115.56564366392948h1v34.43435633607052h-1Z" style="fill: #e0e0e0;"></path><path d="M755,115.34262692503776h1v34.65737307496224h-1Z" style="fill: #e0e0e0;"></path><path d="M756,115.27719890646802h1v34.722801093531984h-1Z" style="fill: #e0e0e0;"></path><path d="M757,115.10330235533573h1v34.89669764466427h-1Z" style="fill: #e0e0e0;"></path><path d="M758,115.03187810950126h1v34.968121890498736h-1Z" style="fill: #e0e0e0;"></path><path d="M759,114.96837830118974h1v35.031621698810255h-1Z" style="fill: #e0e0e0;"></path><path d="M760,114.66105973296024h1v35.33894026703976h-1Z" style="fill: #e0e0e0;"></path><path d="M761,114.50969075732075h1v35.490309242679245h-1Z" style="fill: #e0e0e0;"></path><path d="M762,114.08565735392426h1v35.91434264607574h-1Z" style="fill: #e0e0e0;"></path><path d="M763,113.991830702351h1v36.008169297649005h-1Z" style="fill: #e0e0e0;"></path><path d="M764,113.93929516844602h1v36.06070483155398h-1Z" style="fill: #e0e0e0;"></path><path d="M765,113.835496659802h1v36.164503340197996h-1Z" style="fill: #e0e0e0;"></path><path d="M766,113.47234344057898h1v36.52765655942102h-1Z" style="fill: #e0e0e0;"></path><path d="M767,113.36452757887702h1v36.635472421122984h-1Z" style="fill: #e0e0e0;"></path><path d="M768,113.3030006843075h1v36.696999315692494h-1Z" style="fill: #e0e0e0;"></path><path d="M769,113.198498840855h1v36.801501159145005h-1Z" style="fill: #e0e0e0;"></path><path d="M770,113.14033960871552h1v36.85966039128448h-1Z" style="fill: #e0e0e0;"></path><path d="M771,112.67051791720252h1v37.32948208279748h-1Z" style="fill: #e0e0e0;"></path><path d="M772,112.64615153841822h1v37.35384846158178h-1Z" style="fill: #e0e0e0;"></path><path d="M773,112.63228451781123h1v37.36771548218877h-1Z" style="fill: #e0e0e0;"></path><path d="M774,112.19499504141649h1v37.80500495858351h-1Z" style="fill: #e0e0e0;"></path><path d="M775,111.90938448481424h1v38.09061551518576h-1Z" style="fill: #e0e0e0;"></path><path d="M776,111.89482605032777h1v38.105173949672235h-1Z" style="fill: #e0e0e0;"></path><path d="M777,111.71453094057898h1v38.28546905942102h-1Z" style="fill: #e0e0e0;"></path><path d="M778,111.18071472220277h1v38.819285277797235h-1Z" style="fill: #e0e0e0;"></path><path d="M779,111.06394326262324h1v38.93605673737676h-1Z" style="fill: #e0e0e0;"></path><path d="M780,110.98065173201425h1v39.01934826798575h-1Z" style="fill: #e0e0e0;"></path><path d="M781,110.7210764842495h1v39.278923515750506h-1Z" style="fill: #e0e0e0;"></path><path d="M782,110.15312170557826h1v39.84687829442174h-1Z" style="fill: #e0e0e0;"></path><path d="M783,109.62783491186951h1v40.37216508813049h-1Z" style="fill: #e0e0e0;"></path><path d="M784,109.07480215601774h1v40.92519784398226h-1Z" style="fill: #e0e0e0;"></path><path d="M785,108.48156606726502h1v41.51843393273498h-1Z" style="fill: #e0e0e0;"></path><path d="M786,108.30081796221575h1v41.699182037784254h-1Z" style="fill: #e0e0e0;"></path><path d="M787,107.85984193854176h1v42.14015806145824h-1Z" style="fill: #e0e0e0;"></path><path d="M788,107.72382115893222h1v42.276178841067775h-1Z" style="fill: #e0e0e0;"></path><path d="M789,107.07659518294201h1v42.923404817057985h-1Z" style="fill: #e0e0e0;"></path><path d="M790,107.01804852061125h1v42.981951479388755h-1Z" style="fill: #e0e0e0;"></path><path d="M791,106.47932087950548h1v43.52067912049452h-1Z" style="fill: #e0e0e0;"></path><path d="M792,106.41751980357026h1v43.58248019642974h-1Z" style="fill: #e0e0e0;"></path><path d="M793,106.4172992663845h1v43.582700733615496h-1Z" style="fill: #e0e0e0;"></path><path d="M794,106.29789626173826h1v43.70210373826174h-1Z" style="fill: #e0e0e0;"></path><path d="M795,106.26781677775227h1v43.73218322224773h-1Z" style="fill: #e0e0e0;"></path><path d="M796,105.75160777144276h1v44.248392228557236h-1Z" style="fill: #e0e0e0;"></path><path d="M797,105.35144602827873h1v44.64855397172127h-1Z" style="fill: #e0e0e0;"></path><path d="M798,105.246377940701h1v44.753622059299005h-1Z" style="fill: #e0e0e0;"></path><path d="M799,105.2152553754315h1v44.7847446245685h-1Z" style="fill: #e0e0e0;"></path><path d="M800,105.02969419531675h1v44.97030580468325h-1Z" style="fill: #e0e0e0;"></path><path d="M801,104.40465604834401h1v45.59534395165599h-1Z" style="fill: #e0e0e0;"></path><path d="M802,104.31558584742402h1v45.68441415257598h-1Z" style="fill: #e0e0e0;"></path><path d="M803,104.07999252848475h1v45.92000747151525h-1Z" style="fill: #e0e0e0;"></path><path d="M804,104.05879115633826h1v45.94120884366174h-1Z" style="fill: #e0e0e0;"></path><path d="M805,103.83473133616297h1v46.165268663837026h-1Z" style="fill: #e0e0e0;"></path><path d="M806,103.54271924071176h1v46.45728075928824h-1Z" style="fill: #e0e0e0;"></path><path d="M807,102.96399688296174h1v47.03600311703826h-1Z" style="fill: #e0e0e0;"></path><path d="M808,102.92486941389899h1v47.07513058610101h-1Z" style="fill: #f00;"></path><path d="M809,102.77367627196176h1v47.22632372803824h-1Z" style="fill: #e0e0e0;"></path><path d="M810,102.5986442523465h1v47.4013557476535h-1Z" style="fill: #e0e0e0;"></path><path d="M811,102.10364257864799h1v47.89635742135201h-1Z" style="fill: #e0e0e0;"></path><path d="M812,101.84340571932648h1v48.15659428067352h-1Z" style="fill: #e0e0e0;"></path><path d="M813,101.72062611155377h1v48.27937388844623h-1Z" style="fill: #e0e0e0;"></path><path d="M814,101.2781391101345h1v48.721860889865496h-1Z" style="fill: #e0e0e0;"></path><path d="M815,100.58964287810176h1v49.410357121898244h-1Z" style="fill: #e0e0e0;"></path><path d="M816,100.42411779932826h1v49.57588220067174h-1Z" style="fill: #e0e0e0;"></path><path d="M817,100.37699436716875h1v49.62300563283125h-1Z" style="fill: #e0e0e0;"></path><path d="M818,100.36436712317325h1v49.63563287682675h-1Z" style="fill: #e0e0e0;"></path><path d="M819,100.34960603289451h1v49.65039396710549h-1Z" style="fill: #e0e0e0;"></path><path d="M820,100.18442070059623h1v49.815579299403765h-1Z" style="fill: #e0e0e0;"></path><path d="M821,100.18001889757977h1v49.81998110242023h-1Z" style="fill: #e0e0e0;"></path><path d="M822,99.97002875380375h1v50.029971246196254h-1Z" style="fill: #e0e0e0;"></path><path d="M823,99.50638806395375h1v50.49361193604625h-1Z" style="fill: #e0e0e0;"></path><path d="M824,99.44375848345601h1v50.55624151654399h-1Z" style="fill: #e0e0e0;"></path><path d="M825,99.2762604909405h1v50.7237395090595h-1Z" style="fill: #e0e0e0;"></path><path d="M826,99.22902977042048h1v50.77097022957952h-1Z" style="fill: #e0e0e0;"></path><path d="M827,99.08546304278227h1v50.914536957217734h-1Z" style="fill: #e0e0e0;"></path><path d="M828,98.88233935408451h1v51.11766064591549h-1Z" style="fill: #e0e0e0;"></path><path d="M829,98.818115349339h1v51.181884650661004h-1Z" style="fill: #e0e0e0;"></path><path d="M830,98.18444644980272h1v51.81555355019728h-1Z" style="fill: #e0e0e0;"></path><path d="M831,97.89735769801001h1v52.10264230198999h-1Z" style="fill: #e0e0e0;"></path><path d="M832,97.763929720448h1v52.236070279551996h-1Z" style="fill: #e0e0e0;"></path><path d="M833,97.75925671629747h1v52.24074328370253h-1Z" style="fill: #e0e0e0;"></path><path d="M834,97.62736355833849h1v52.37263644166151h-1Z" style="fill: #e0e0e0;"></path><path d="M835,97.51991724543421h1v52.480082754565785h-1Z" style="fill: #e0e0e0;"></path><path d="M836,97.12174033694129h1v52.878259663058714h-1Z" style="fill: #e0e0e0;"></path><path d="M837,97.08584940008976h1v52.91415059991024h-1Z" style="fill: #e0e0e0;"></path><path d="M838,96.99312245421274h1v53.00687754578726h-1Z" style="fill: #e0e0e0;"></path><path d="M839,96.325259860085h1v53.674740139915h-1Z" style="fill: #e0e0e0;"></path><path d="M840,96.2469199853405h1v53.7530800146595h-1Z" style="fill: #e0e0e0;"></path><path d="M841,96.1969057279095h1v53.803094272090505h-1Z" style="fill: #e0e0e0;"></path><path d="M842,95.96006220154624h1v54.039937798453764h-1Z" style="fill: #e0e0e0;"></path><path d="M843,95.82233374886374h1v54.17766625113626h-1Z" style="fill: #e0e0e0;"></path><path d="M844,95.42309438757749h1v54.57690561242251h-1Z" style="fill: #e0e0e0;"></path><path d="M845,95.03707980685101h1v54.96292019314899h-1Z" style="fill: #e0e0e0;"></path><path d="M846,94.73082071118196h1v55.26917928881804h-1Z" style="fill: #e0e0e0;"></path><path d="M847,94.58010142617076h1v55.419898573829244h-1Z" style="fill: #e0e0e0;"></path><path d="M848,94.315093215035h1v55.684906784964994h-1Z" style="fill: #e0e0e0;"></path><path d="M849,94.08985322289325h1v55.910146777106746h-1Z" style="fill: #e0e0e0;"></path><path d="M850,93.94876157812922h1v56.05123842187078h-1Z" style="fill: #e0e0e0;"></path><path d="M851,93.91587173514225h1v56.08412826485775h-1Z" style="fill: #e0e0e0;"></path><path d="M852,93.75931566529127h1v56.24068433470873h-1Z" style="fill: #e0e0e0;"></path><path d="M853,93.00508147053574h1v56.99491852946426h-1Z" style="fill: #e0e0e0;"></path><path d="M854,91.94280749134876h1v58.05719250865124h-1Z" style="fill: #e0e0e0;"></path><path d="M855,91.89546054177148h1v58.104539458228516h-1Z" style="fill: #f00;"></path><path d="M856,90.71907943062624h1v59.28092056937376h-1Z" style="fill: #e0e0e0;"></path><path d="M857,90.63689952664225h1v59.36310047335775h-1Z" style="fill: #e0e0e0;"></path><path d="M858,90.49250131420948h1v59.50749868579052h-1Z" style="fill: #e0e0e0;"></path><path d="M859,90.40365463070725h1v59.59634536929275h-1Z" style="fill: #e0e0e0;"></path><path d="M860,90.11793976597653h1v59.88206023402347h-1Z" style="fill: #e0e0e0;"></path><path d="M861,89.354995842503h1v60.645004157497h-1Z" style="fill: #e0e0e0;"></path><path d="M862,89.35273086600151h1v60.64726913399849h-1Z" style="fill: #f00;"></path><path d="M863,89.2689416366085h1v60.7310583633915h-1Z" style="fill: #e0e0e0;"></path><path d="M864,89.26120793394904h1v60.73879206605096h-1Z" style="fill: #e0e0e0;"></path><path d="M865,89.08597921900599h1v60.91402078099401h-1Z" style="fill: #e0e0e0;"></path><path d="M866,88.18506991438727h1v61.81493008561273h-1Z" style="fill: #e0e0e0;"></path><path d="M867,88.12872266344874h1v61.87127733655126h-1Z" style="fill: #e0e0e0;"></path><path d="M868,88.08765953354703h1v61.912340466452974h-1Z" style="fill: #e0e0e0;"></path><path d="M869,87.55317276291697h1v62.44682723708303h-1Z" style="fill: #e0e0e0;"></path><path d="M870,87.49002462200974h1v62.50997537799026h-1Z" style="fill: #e0e0e0;"></path><path d="M871,86.11212318711122h1v63.88787681288878h-1Z" style="fill: #e0e0e0;"></path><path d="M872,85.7427800255285h1v64.2572199744715h-1Z" style="fill: #e0e0e0;"></path><path d="M873,85.63807105593526h1v64.36192894406474h-1Z" style="fill: #e0e0e0;"></path><path d="M874,85.30048822932099h1v64.69951177067901h-1Z" style="fill: #e0e0e0;"></path><path d="M875,85.16691571049552h1v64.83308428950448h-1Z" style="fill: #e0e0e0;"></path><path d="M876,84.27493667178001h1v65.72506332821999h-1Z" style="fill: #e0e0e0;"></path><path d="M877,84.19982736878251h1v65.80017263121749h-1Z" style="fill: #e0e0e0;"></path><path d="M878,84.11016708187898h1v65.88983291812102h-1Z" style="fill: #e0e0e0;"></path><path d="M879,84.06162356905796h1v65.93837643094204h-1Z" style="fill: #e0e0e0;"></path><path d="M880,83.69412740640499h1v66.30587259359501h-1Z" style="fill: #e0e0e0;"></path><path d="M881,83.5822606640325h1v66.4177393359675h-1Z" style="fill: #e0e0e0;"></path><path d="M882,83.19847082667204h1v66.80152917332796h-1Z" style="fill: #e0e0e0;"></path><path d="M883,83.0976503150925h1v66.9023496849075h-1Z" style="fill: #e0e0e0;"></path><path d="M884,82.94837197236876h1v67.05162802763124h-1Z" style="fill: #e0e0e0;"></path><path d="M885,82.85816332273325h1v67.14183667726675h-1Z" style="fill: #e0e0e0;"></path><path d="M886,82.38940482907148h1v67.61059517092852h-1Z" style="fill: #e0e0e0;"></path><path d="M887,82.35935812764023h1v67.64064187235977h-1Z" style="fill: #e0e0e0;"></path><path d="M888,82.31235092453801h1v67.68764907546199h-1Z" style="fill: #e0e0e0;"></path><path d="M889,82.16503580980154h1v67.83496419019846h-1Z" style="fill: #e0e0e0;"></path><path d="M890,81.80502301030026h1v68.19497698969974h-1Z" style="fill: #e0e0e0;"></path><path d="M891,80.48304637842025h1v69.51695362157975h-1Z" style="fill: #e0e0e0;"></path><path d="M892,80.42971214227524h1v69.57028785772476h-1Z" style="fill: #e0e0e0;"></path><path d="M893,80.30274009280046h1v69.69725990719954h-1Z" style="fill: #e0e0e0;"></path><path d="M894,79.84955405764421h1v70.15044594235579h-1Z" style="fill: #e0e0e0;"></path><path d="M895,79.59664111904948h1v70.40335888095052h-1Z" style="fill: #e0e0e0;"></path><path d="M896,78.37858071498727h1v71.62141928501273h-1Z" style="fill: #e0e0e0;"></path><path d="M897,78.327702935265h1v71.672297064735h-1Z" style="fill: #e0e0e0;"></path><path d="M898,78.211961145924h1v71.788038854076h-1Z" style="fill: #e0e0e0;"></path><path d="M899,78.07858457736825h1v71.92141542263175h-1Z" style="fill: #e0e0e0;"></path><path d="M900,77.97210311465125h1v72.02789688534875h-1Z" style="fill: #e0e0e0;"></path><path d="M901,77.90438925795397h1v72.09561074204603h-1Z" style="fill: #e0e0e0;"></path><path d="M902,77.80790349416574h1v72.19209650583426h-1Z" style="fill: #e0e0e0;"></path><path d="M903,77.74216627650122h1v72.25783372349878h-1Z" style="fill: #e0e0e0;"></path><path d="M904,77.534782718347h1v72.465217281653h-1Z" style="fill: #e0e0e0;"></path><path d="M905,77.42016373150199h1v72.57983626849801h-1Z" style="fill: #e0e0e0;"></path><path d="M906,76.86276121013023h1v73.13723878986977h-1Z" style="fill: #e0e0e0;"></path><path d="M907,76.82398429088448h1v73.17601570911552h-1Z" style="fill: #e0e0e0;"></path><path d="M908,75.74540210835775h1v74.25459789164225h-1Z" style="fill: #e0e0e0;"></path><path d="M909,75.63975920848696h1v74.36024079151304h-1Z" style="fill: #e0e0e0;"></path><path d="M910,75.09834488801798h1v74.90165511198202h-1Z" style="fill: #e0e0e0;"></path><path d="M911,74.84802735917424h1v75.15197264082576h-1Z" style="fill: #e0e0e0;"></path><path d="M912,74.66771250538676h1v75.33228749461324h-1Z" style="fill: #e0e0e0;"></path><path d="M913,74.624517019318h1v75.375482980682h-1Z" style="fill: #e0e0e0;"></path><path d="M914,73.76433109812598h1v76.23566890187402h-1Z" style="fill: #e0e0e0;"></path><path d="M915,73.53492287866925h1v76.46507712133075h-1Z" style="fill: #e0e0e0;"></path><path d="M916,73.24876507692196h1v76.75123492307804h-1Z" style="fill: #e0e0e0;"></path><path d="M917,73.0151605042085h1v76.9848394957915h-1Z" style="fill: #e0e0e0;"></path><path d="M918,72.6502377720937h1v77.3497622279063h-1Z" style="fill: #e0e0e0;"></path><path d="M919,72.152076633127h1v77.847923366873h-1Z" style="fill: #e0e0e0;"></path><path d="M920,72.09516365029077h1v77.90483634970923h-1Z" style="fill: #e0e0e0;"></path><path d="M921,71.83690776065151h1v78.16309223934849h-1Z" style="fill: #e0e0e0;"></path><path d="M922,71.82306029781847h1v78.17693970218153h-1Z" style="fill: #e0e0e0;"></path><path d="M923,71.77653631143426h1v78.22346368856574h-1Z" style="fill: #e0e0e0;"></path><path d="M924,71.39761840872623h1v78.60238159127377h-1Z" style="fill: #e0e0e0;"></path><path d="M925,70.54549941741075h1v79.45450058258925h-1Z" style="fill: #e0e0e0;"></path><path d="M926,69.8812947789595h1v80.1187052210405h-1Z" style="fill: #e0e0e0;"></path><path d="M927,69.67935116909598h1v80.32064883090402h-1Z" style="fill: #e0e0e0;"></path><path d="M928,69.57724170707323h1v80.42275829292677h-1Z" style="fill: #e0e0e0;"></path><path d="M929,69.4919141190515h1v80.5080858809485h-1Z" style="fill: #e0e0e0;"></path><path d="M930,69.083340856658h1v80.916659143342h-1Z" style="fill: #e0e0e0;"></path><path d="M931,68.90130473248803h1v81.09869526751197h-1Z" style="fill: #e0e0e0;"></path><path d="M932,68.75292641990049h1v81.24707358009951h-1Z" style="fill: #e0e0e0;"></path><path d="M933,68.69190150819875h1v81.30809849180125h-1Z" style="fill: #e0e0e0;"></path><path d="M934,67.98249317281096h1v82.01750682718904h-1Z" style="fill: #e0e0e0;"></path><path d="M935,67.47157519631253h1v82.52842480368747h-1Z" style="fill: #e0e0e0;"></path><path d="M936,67.42423159949621h1v82.57576840050379h-1Z" style="fill: #e0e0e0;"></path><path d="M937,65.57209884695851h1v84.42790115304149h-1Z" style="fill: #e0e0e0;"></path><path d="M938,65.47800658218728h1v84.52199341781272h-1Z" style="fill: #e0e0e0;"></path><path d="M939,64.81526812486499h1v85.18473187513501h-1Z" style="fill: #e0e0e0;"></path><path d="M940,64.66464569740151h1v85.33535430259849h-1Z" style="fill: #e0e0e0;"></path><path d="M941,64.32157402806124h1v85.67842597193876h-1Z" style="fill: #e0e0e0;"></path><path d="M942,63.97147720627649h1v86.02852279372351h-1Z" style="fill: #e0e0e0;"></path><path d="M943,63.90191486053325h1v86.09808513946675h-1Z" style="fill: #e0e0e0;"></path><path d="M944,63.008778746651245h1v86.99122125334875h-1Z" style="fill: #e0e0e0;"></path><path d="M945,62.981075252817476h1v87.01892474718252h-1Z" style="fill: #e0e0e0;"></path><path d="M946,62.20258643798675h1v87.79741356201325h-1Z" style="fill: #e0e0e0;"></path><path d="M947,62.18465065531572h1v87.81534934468428h-1Z" style="fill: #e0e0e0;"></path><path d="M948,61.35575419239851h1v88.6442458076015h-1Z" style="fill: #f00;"></path><path d="M949,61.036501284168764h1v88.96349871583124h-1Z" style="fill: #e0e0e0;"></path><path d="M950,61.023043300436484h1v88.97695669956352h-1Z" style="fill: #f00;"></path><path d="M951,60.856174136923244h1v89.14382586307676h-1Z" style="fill: #e0e0e0;"></path><path d="M952,60.77690219454624h1v89.22309780545376h-1Z" style="fill: #e0e0e0;"></path><path d="M953,60.448736156748254h1v89.55126384325175h-1Z" style="fill: #e0e0e0;"></path><path d="M954,60.44120436482277h1v89.55879563517723h-1Z" style="fill: #e0e0e0;"></path><path d="M955,60.21947732143249h1v89.78052267856751h-1Z" style="fill: #e0e0e0;"></path><path d="M956,59.64771380596025h1v90.35228619403975h-1Z" style="fill: #e0e0e0;"></path><path d="M957,59.34072827868323h1v90.65927172131677h-1Z" style="fill: #e0e0e0;"></path><path d="M958,58.38852917723497h1v91.61147082276503h-1Z" style="fill: #e0e0e0;"></path><path d="M959,57.01643621496996h1v92.98356378503004h-1Z" style="fill: #e0e0e0;"></path><path d="M960,56.92072158627377h1v93.07927841372623h-1Z" style="fill: #e0e0e0;"></path><path d="M961,56.808378751801h1v93.191621248199h-1Z" style="fill: #e0e0e0;"></path><path d="M962,56.098444219158495h1v93.9015557808415h-1Z" style="fill: #e0e0e0;"></path><path d="M963,54.87461036019175h1v95.12538963980825h-1Z" style="fill: #e0e0e0;"></path><path d="M964,54.794921930359266h1v95.20507806964073h-1Z" style="fill: #f00;"></path><path d="M965,54.62663715653275h1v95.37336284346725h-1Z" style="fill: #e0e0e0;"></path><path d="M966,54.32703291945299h1v95.67296708054701h-1Z" style="fill: #f00;"></path><path d="M967,52.39012336306422h1v97.60987663693578h-1Z" style="fill: #e0e0e0;"></path><path d="M968,51.556853409336526h1v98.44314659066347h-1Z" style="fill: #e0e0e0;"></path><path d="M969,51.51707773976176h1v98.48292226023824h-1Z" style="fill: #e0e0e0;"></path><path d="M970,50.51333105139574h1v99.48666894860426h-1Z" style="fill: #e0e0e0;"></path><path d="M971,48.59461879305701h1v101.40538120694299h-1Z" style="fill: #e0e0e0;"></path><path d="M972,48.1609279470905h1v101.8390720529095h-1Z" style="fill: #e0e0e0;"></path><path d="M973,46.10018825106471h1v103.89981174893529h-1Z" style="fill: #e0e0e0;"></path><path d="M974,44.19829046301703h1v105.80170953698297h-1Z" style="fill: #e0e0e0;"></path><path d="M975,43.521816487835224h1v106.47818351216478h-1Z" style="fill: #e0e0e0;"></path><path d="M976,43.279425259159495h1v106.7205747408405h-1Z" style="fill: #f00;"></path><path d="M977,40.97662066988801h1v109.023379330112h-1Z" style="fill: #f00;"></path><path d="M978,40.25546109251826h1v109.74453890748174h-1Z" style="fill: #e0e0e0;"></path><path d="M979,34.018615837620246h1v115.98138416237975h-1Z" style="fill: #e0e0e0;"></path><path d="M980,33.58868157439076h1v116.41131842560924h-1Z" style="fill: #e0e0e0;"></path><path d="M981,30.80533539824353h1v119.19466460175647h-1Z" style="fill: #e0e0e0;"></path><path d="M982,29.67531477980475h1v120.32468522019525h-1Z" style="fill: #e0e0e0;"></path><path d="M983,25.75270926527827h1v124.24729073472173h-1Z" style="fill: #e0e0e0;"></path><path d="M984,25.153861399219977h1v124.84613860078002h-1Z" style="fill: #f00;"></path><path d="M985,16.60100614600026h1v133.39899385399974h-1Z" style="fill: #e0e0e0;"></path></g><g class="mark-group role-legend"><g transform="translate(10,10)"><path class="background" d="M0,0h212v73h-212Z" style="pointer-events: none; fill: none;"></path><g><g class="mark-group role-legend-entry"><g transform="translate(0,21)"><path class="background" d="M0,0h0v0h0Z" style="pointer-events: none; fill: none;"></path><g><g class="mark-group role-scope"><g transform="translate(0,0)"><path class="background" d="M0,0h125v16h-125Z" style="pointer-events: none; fill: none; opacity: 1;"></path><g><g class="mark-symbol role-legend-symbol" style="pointer-events: none;"><path transform="translate(8,8)" d="M-5,-5h10v10h-10Z" style="fill: #e0e0e0; stroke-width: 1.5; opacity: 1;"></path></g><g class="mark-text role-legend-label" style="pointer-events: none;"><text text-anchor="start" transform="translate(20,13)" style="font-family: sans-serif; font-size: 16px; fill: #000; opacity: 1;">None</text></g></g></g><g transform="translate(0,18)"><path class="background" d="M0,0h125v16h-125Z" style="pointer-events: none; fill: none; opacity: 1;"></path><g><g class="mark-symbol role-legend-symbol" style="pointer-events: none;"><path transform="translate(8,8)" d="M-5,-5h10v10h-10Z" style="fill: #f00; stroke-width: 1.5; opacity: 1;"></path></g><g class="mark-text role-legend-label" style="pointer-events: none;"><text text-anchor="start" transform="translate(20,13)" style="font-family: sans-serif; font-size: 16px; fill: #000; opacity: 1;">Numerator</text></g></g></g><g transform="translate(0,36)"><path class="background" d="M0,0h125v16h-125Z" style="pointer-events: none; fill: none; opacity: 1;"></path><g><g class="mark-symbol role-legend-symbol" style="pointer-events: none;"><path transform="translate(8,8)" d="M-5,-5h10v10h-10Z" style="fill: #00f; stroke-width: 1.5; opacity: 1;"></path></g><g class="mark-text role-legend-label" style="pointer-events: none;"><text text-anchor="start" transform="translate(20,13)" style="font-family: sans-serif; font-size: 16px; fill: #000; opacity: 1;">Denominator</text></g></g></g></g></g></g></g><g class="mark-text role-legend-title" style="pointer-events: none;"><text text-anchor="start" transform="translate(0,13)" style="font-family: sans-serif; font-size: 16px; font-weight: bold; fill: #000; opacity: 1;">Log-Ratio Classification</text></g></g></g></g><g class="mark-text role-title" style="pointer-events: none;"><text text-anchor="middle" transform="translate(493.5,-10)" style="font-family: sans-serif; font-size: 24px; font-weight: bold; fill: #000; opacity: 1;">Features</text></g><g class="mark-group role-axis"><g transform="translate(0.5,300.5)"><path class="background" d="M0,0h0v0h0Z" style="pointer-events: none; fill: none;"></path><g><g class="mark-rule role-axis-domain" style="pointer-events: none;"><line transform="translate(0,0)" x2="987" y2="0" style="fill: none; stroke: #888; stroke-width: 1; opacity: 1;"></line></g><g class="mark-text role-axis-title" style="pointer-events: none;"><text text-anchor="middle" transform="translate(493.5,20)" style="font-family: sans-serif; font-size: 20px; font-weight: bold; fill: #000; opacity: 1;">Feature Rankings</text></g></g></g></g><g class="mark-group role-axis"><g transform="translate(0.5,0.5)"><path class="background" d="M0,0h0v0h0Z" style="pointer-events: none; fill: none;"></path><g><g class="mark-rule role-axis-tick" style="pointer-events: none;"><line transform="translate(0,300)" x2="-5" y2="0" style="fill: none; stroke: #888; stroke-width: 1; opacity: 1;"></line><line transform="translate(0,250)" x2="-5" y2="0" style="fill: none; stroke: #888; stroke-width: 1; opacity: 1;"></line><line transform="translate(0,200)" x2="-5" y2="0" style="fill: none; stroke: #888; stroke-width: 1; opacity: 1;"></line><line transform="translate(0,150)" x2="-5" y2="0" style="fill: none; stroke: #888; stroke-width: 1; opacity: 1;"></line><line transform="translate(0,100)" x2="-5" y2="0" style="fill: none; stroke: #888; stroke-width: 1; opacity: 1;"></line><line transform="translate(0,50)" x2="-5" y2="0" style="fill: none; stroke: #888; stroke-width: 1; opacity: 1;"></line><line transform="translate(0,0)" x2="-5" y2="0" style="fill: none; stroke: #888; stroke-width: 1; opacity: 1;"></line></g><g class="mark-text role-axis-label" style="pointer-events: none;"><text text-anchor="end" transform="translate(-7,305)" style="font-family: sans-serif; font-size: 16px; fill: #000; opacity: 0;">-6</text><text text-anchor="end" transform="translate(-7,255)" style="font-family: sans-serif; font-size: 16px; fill: #000; opacity: 1;">-4</text><text text-anchor="end" transform="translate(-7,205)" style="font-family: sans-serif; font-size: 16px; fill: #000; opacity: 1;">-2</text><text text-anchor="end" transform="translate(-7,155)" style="font-family: sans-serif; font-size: 16px; fill: #000; opacity: 1;">0</text><text text-anchor="end" transform="translate(-7,105)" style="font-family: sans-serif; font-size: 16px; fill: #000; opacity: 1;">2</text><text text-anchor="end" transform="translate(-7,55)" style="font-family: sans-serif; font-size: 16px; fill: #000; opacity: 1;">4</text><text text-anchor="end" transform="translate(-7,5)" style="font-family: sans-serif; font-size: 16px; fill: #000; opacity: 0;">6</text></g><g class="mark-rule role-axis-domain" style="pointer-events: none;"><line transform="translate(0,300)" x2="0" y2="-300" style="fill: none; stroke: #888; stroke-width: 1; opacity: 1;"></line></g><g class="mark-text role-axis-title" style="pointer-events: none;"><text text-anchor="middle" transform="translate(-27,150) rotate(-90) translate(0,-4)" style="font-family: sans-serif; font-size: 20px; font-weight: bold; fill: #000; opacity: 1;">Gill Differentials</text></g></g></g></g></g></g></g></g></svg>