<svg class="marks" width="1044" height="363" viewBox="0 0 1044 363" version="1.1" xmlns="http://www.w3.org/2000/svg" xmlns:xlink="http://www.w3.org/1999/xlink"><rect width="1044" height="363" style="fill: #FFFFFF;"></rect><defs><clipPath id="clip1"><rect x="0" y="0" width="987" height="300"></rect></clipPath></defs><g transform="translate(52,34)"><g class="mark-group role-frame root"><g transform="translate(0,0)"><path class="background" d="M0.5,0.5h987v300h-987Z" style="fill: none; stroke: #ddd;"></path><g><g class="mark-group role-axis"><g transform="translate(0.5,0.5)"><path class="background" d="M0,0h0v0h0Z" style="pointer-events: none; fill: none;"></path><g><g class="mark-rule role-axis-grid" style="pointer-events: none;"><line transform="translate(0,300)" x2="987" y2="0" style="fill: none; stroke: #f2f2f2; stroke-width: 1; opacity: 1;"></line><line transform="translate(0,250)" x2="987" y2="0" style="fill: none; stroke: #f2f2f2; stroke-width: 1; opacity: 1;"></line><line transform="translate(0,200)" x2="987" y2="0" style="fill: none; stroke: #f2f2f2; stroke-width: 1; opacity: 1;"></line><line transform="translate(0,150)" x2="987" y2="0" style="fill: none; stroke: #f2f2f2; stroke-width: 1; opacity: 1;"></line><line transform="translate(0,100)" x2="987" y2="0" style="fill: none; stroke: #f2f2f2; stroke-width: 1; opacity: 1;"></line><line transform="translate(0,50)" x2="987" y2="0" style="fill: none; stroke: #f2f2f2; stroke-width: 1; opacity: 1;"></line><line transform="translate(0,0)" x2="987" y2="0" style="fill: none; stroke: #f2f2f2; stroke-width: 1; opacity: 1;"></line></g></g></g></g><g class="mark-rect role-mark marks" clip-path="url(#clip1)"><path d="M908,77.94176798253574h1v72.05823201746426h-1Z" style="fill: #e0e0e0;"></path><path d="M690,124.62431948571725h1v25.37568051428275h-1Z" style="fill: #e0e0e0;"></path><path d="M620,135.94704728513284h1v14.05295271486716h-1Z" style="fill: #e0e0e0;"></path><path d="M501,150h1v6.985263637595608h-1Z" style="fill: #e0e0e0;"></path><path d="M600,139.4426451244883h1v10.557354875511692h-1Z" style="fill: #e0e0e0;"></path><path d="M590,141.29866819768472h1v8.70133180231528h-1Z" style="fill: #e0e0e0;"></path><path d="M759,110.96681516557248h1v39.033184834427516h-1Z" style="fill: #00f;"></path><path d="M726,117.80512493043474h1v32.194875069565256h-1Z" style="fill: #e0e0e0;"></path><path d="M48,150h1v67.37969379811801h-1Z" style="fill: #e0e0e0;"></path><path d="M439,150h1v15.473793558173611h-1Z" style="fill: #00f;"></path><path d="M174,150h1v41.27009373097951h-1Z" style="fill: #e0e0e0;"></path><path d="M215,150h1v36.72361832051803h-1Z" style="fill: #e0e0e0;"></path><path d="M765,110.25667052655749h1v39.743329473442515h-1Z" style="fill: #00f;"></path><path d="M563,148.2511387386851h1v1.748861261314886h-1Z" style="fill: #00f;"></path><path d="M365,150h1v23.000048212104275h-1Z" style="fill: #e0e0e0;"></path><path d="M618,136.14101272016092h1v13.858987279839084h-1Z" style="fill: #e0e0e0;"></path><path d="M508,150h1v5.942647270255549h-1Z" style="fill: #e0e0e0;"></path><path d="M135,150h1v45.81814270406301h-1Z" style="fill: #e0e0e0;"></path><path d="M972,48.376239947372056h1v101.62376005262794h-1Z" style="fill: #e0e0e0;"></path><path d="M971,48.392753414206965h1v101.60724658579304h-1Z" style="fill: #e0e0e0;"></path><path d="M985,15.858356765799954h1v134.14164323420005h-1Z" style="fill: #f00;"></path><path d="M976,37.87404756932773h1v112.12595243067227h-1Z" style="fill: #f00;"></path><path d="M923,72.76350494413902h1v77.23649505586098h-1Z" style="fill: #00f;"></path><path d="M561,148.60111933141275h1v1.3988806685872532h-1Z" style="fill: #e0e0e0;"></path><path d="M808,102.67828416019h1v47.32171583981h-1Z" style="fill: #e0e0e0;"></path><path d="M882,84.88307159333752h1v65.11692840666248h-1Z" style="fill: #e0e0e0;"></path><path d="M793,106.04973893552352h1v43.95026106447648h-1Z" style="fill: #e0e0e0;"></path><path d="M665,129.86258130460305h1v20.137418695396946h-1Z" style="fill: #e0e0e0;"></path><path d="M937,69.45493381410171h1v80.54506618589829h-1Z" style="fill: #e0e0e0;"></path><path d="M74,150h1v59.451381973319485h-1Z" style="fill: #e0e0e0;"></path><path d="M328,150h1v26.09115105062051h-1Z" style="fill: #e0e0e0;"></path><path d="M559,148.63816361814068h1v1.3618363818593195h-1Z" style="fill: #e0e0e0;"></path><path d="M662,130.54478626637982h1v19.455213733620184h-1Z" style="fill: #e0e0e0;"></path><path d="M467,150h1v12.149529270224974h-1Z" style="fill: #e0e0e0;"></path><path d="M745,113.32923632054849h1v36.67076367945151h-1Z" style="fill: #e0e0e0;"></path><path d="M112,150h1v49.12977676778348h-1Z" style="fill: #e0e0e0;"></path><path d="M977,35.86864929585971h1v114.13135070414029h-1Z" style="fill: #e0e0e0;"></path><path d="M621,135.59937339215801h1v14.400626607841986h-1Z" style="fill: #e0e0e0;"></path><path d="M855,93.05176895051525h1v56.94823104948475h-1Z" style="fill: #e0e0e0;"></path><path d="M776,109.5523582020335h1v40.4476417979665h-1Z" style="fill: #e0e0e0;"></path><path d="M612,136.74742441564126h1v13.252575584358738h-1Z" style="fill: #e0e0e0;"></path><path d="M56,150h1v64.66418962865401h-1Z" style="fill: #e0e0e0;"></path><path d="M1,150h1v133.26362829595126h-1Z" style="fill: #e0e0e0;"></path><path d="M670,128.2038794079356h1v21.796120592064398h-1Z" style="fill: #e0e0e0;"></path><path d="M5,150h1v114.5011232414775h-1Z" style="fill: #e0e0e0;"></path><path d="M975,37.890501431517976h1v112.10949856848202h-1Z" style="fill: #e0e0e0;"></path><path d="M706,121.12238865285448h1v28.877611347145518h-1Z" style="fill: #e0e0e0;"></path><path d="M783,108.63657157807873h1v41.36342842192127h-1Z" style="fill: #e0e0e0;"></path><path d="M780,108.90298049836673h1v41.09701950163327h-1Z" style="fill: #e0e0e0;"></path><path d="M659,130.9499488392405h1v19.050051160759494h-1Z" style="fill: #e0e0e0;"></path><path d="M973,47.736318520598786h1v102.26368147940121h-1Z" style="fill: #e0e0e0;"></path><path d="M964,53.87588452487523h1v96.12411547512477h-1Z" style="fill: #e0e0e0;"></path><path d="M978,32.59691160111953h1v117.40308839888047h-1Z" style="fill: #e0e0e0;"></path><path d="M974,46.53420608430423h1v103.46579391569577h-1Z" style="fill: #e0e0e0;"></path><path d="M921,73.250401876264h1v76.749598123736h-1Z" style="fill: #e0e0e0;"></path><path d="M979,32.52390485196628h1v117.47609514803372h-1Z" style="fill: #e0e0e0;"></path><path d="M902,79.04200294926096h1v70.95799705073904h-1Z" style="fill: #e0e0e0;"></path><path d="M916,75.38714401363649h1v74.61285598636351h-1Z" style="fill: #e0e0e0;"></path><path d="M722,118.52038662820377h1v31.479613371796233h-1Z" style="fill: #e0e0e0;"></path><path d="M898,80.37928856849001h1v69.62071143150999h-1Z" style="fill: #f00;"></path><path d="M935,70.27751590996297h1v79.72248409003703h-1Z" style="fill: #f00;"></path><path d="M967,50.56269925027425h1v99.43730074972575h-1Z" style="fill: #f00;"></path><path d="M932,70.77059980421572h1v79.22940019578428h-1Z" style="fill: #e0e0e0;"></path><path d="M912,76.37928111418401h1v73.62071888581599h-1Z" style="fill: #e0e0e0;"></path><path d="M569,146.84671621709393h1v3.1532837829060725h-1Z" style="fill: #e0e0e0;"></path><path d="M746,113.2265494385295h1v36.7734505614705h-1Z" style="fill: #e0e0e0;"></path><path d="M718,118.90199642568149h1v31.09800357431851h-1Z" style="fill: #e0e0e0;"></path><path d="M607,138.2793949165873h1v11.720605083412693h-1Z" style="fill: #e0e0e0;"></path><path d="M950,63.81139021306552h1v86.18860978693448h-1Z" style="fill: #e0e0e0;"></path><path d="M777,109.51162140756173h1v40.488378592438266h-1Z" style="fill: #e0e0e0;"></path><path d="M727,117.74824123769326h1v32.251758762306736h-1Z" style="fill: #e0e0e0;"></path><path d="M851,93.28776162057451h1v56.712238379425486h-1Z" style="fill: #e0e0e0;"></path><path d="M475,150h1v11.493633798652127h-1Z" style="fill: #e0e0e0;"></path><path d="M589,141.449724248939h1v8.550275751061008h-1Z" style="fill: #e0e0e0;"></path><path d="M947,65.69331820993952h1v84.30668179006048h-1Z" style="fill: #e0e0e0;"></path><path d="M520,150h1v4.5204983273081325h-1Z" style="fill: #e0e0e0;"></path><path d="M771,109.9259094515375h1v40.07409054846249h-1Z" style="fill: #e0e0e0;"></path><path d="M836,97.22434442430077h1v52.77565557569923h-1Z" style="fill: #e0e0e0;"></path><path d="M562,148.48160009770913h1v1.5183999022908665h-1Z" style="fill: #e0e0e0;"></path><path d="M424,150h1v17.263750843101008h-1Z" style="fill: #e0e0e0;"></path><path d="M982,27.86258917241628h1v122.13741082758372h-1Z" style="fill: #e0e0e0;"></path><path d="M961,55.31750034480626h1v94.68249965519374h-1Z" style="fill: #e0e0e0;"></path><path d="M605,138.66719465642498h1v11.332805343575018h-1Z" style="fill: #e0e0e0;"></path><path d="M846,94.51859902530222h1v55.48140097469778h-1Z" style="fill: #e0e0e0;"></path><path d="M929,71.41892325072797h1v78.58107674927203h-1Z" style="fill: #e0e0e0;"></path><path d="M379,150h1v21.34004693418072h-1Z" style="fill: #e0e0e0;"></path><path d="M807,103.2308266678385h1v46.7691733321615h-1Z" style="fill: #e0e0e0;"></path><path d="M926,72.38438252299349h1v77.61561747700651h-1Z" style="fill: #e0e0e0;"></path><path d="M962,55.03167372136619h1v94.96832627863381h-1Z" style="fill: #e0e0e0;"></path><path d="M884,84.79086246281202h1v65.20913753718798h-1Z" style="fill: #e0e0e0;"></path><path d="M281,150h1v29.97080545812176h-1Z" style="fill: #e0e0e0;"></path><path d="M835,97.90502648740323h1v52.094973512596766h-1Z" style="fill: #e0e0e0;"></path><path d="M958,56.43665950685076h1v93.56334049314924h-1Z" style="fill: #e0e0e0;"></path><path d="M801,105.17803590684451h1v44.821964093155486h-1Z" style="fill: #e0e0e0;"></path><path d="M781,108.85034065633351h1v41.149659343666485h-1Z" style="fill: #e0e0e0;"></path><path d="M638,133.74543052106426h1v16.254569478935736h-1Z" style="fill: #e0e0e0;"></path><path d="M758,111.00588302999077h1v38.99411697000923h-1Z" style="fill: #e0e0e0;"></path><path d="M925,72.41637643366374h1v77.58362356633626h-1Z" style="fill: #e0e0e0;"></path><path d="M941,68.21671362906028h1v81.78328637093972h-1Z" style="fill: #e0e0e0;"></path><path d="M741,114.48345642476602h1v35.51654357523398h-1Z" style="fill: #e0e0e0;"></path><path d="M688,125.0521377840571h1v24.947862215942905h-1Z" style="fill: #e0e0e0;"></path><path d="M965,52.66980986981923h1v97.33019013018077h-1Z" style="fill: #e0e0e0;"></path><path d="M980,30.408330372863247h1v119.59166962713675h-1Z" style="fill: #e0e0e0;"></path><path d="M769,110.17482440858402h1v39.825175591415984h-1Z" style="fill: #e0e0e0;"></path><path d="M606,138.59104376225991h1v11.408956237740085h-1Z" style="fill: #e0e0e0;"></path><path d="M598,139.70039945035504h1v10.299600549644964h-1Z" style="fill: #e0e0e0;"></path><path d="M730,116.4950506010585h1v33.504949398941505h-1Z" style="fill: #e0e0e0;"></path><path d="M790,106.7712412396005h1v43.2287587603995h-1Z" style="fill: #e0e0e0;"></path><path d="M827,99.47586219697524h1v50.52413780302476h-1Z" style="fill: #e0e0e0;"></path><path d="M679,126.7273918905787h1v23.2726081094213h-1Z" style="fill: #e0e0e0;"></path><path d="M764,110.44083993821673h1v39.559160061783274h-1Z" style="fill: #e0e0e0;"></path><path d="M448,150h1v14.173512271933987h-1Z" style="fill: #e0e0e0;"></path><path d="M948,65.60180198340925h1v84.39819801659075h-1Z" style="fill: #e0e0e0;"></path><path d="M784,108.53716295152225h1v41.46283704847775h-1Z" style="fill: #e0e0e0;"></path><path d="M570,146.7053101578288h1v3.294689842171209h-1Z" style="fill: #e0e0e0;"></path><path d="M915,75.54969966351325h1v74.45030033648675h-1Z" style="fill: #e0e0e0;"></path><path d="M551,150h1v0.8310721436075994h-1Z" style="fill: #e0e0e0;"></path><path d="M383,150h1v21.03211145787762h-1Z" style="fill: #e0e0e0;"></path><path d="M637,133.83958201795144h1v16.160417982048557h-1Z" style="fill: #e0e0e0;"></path><path d="M818,100.89762967019601h1v49.10237032980399h-1Z" style="fill: #e0e0e0;"></path><path d="M742,113.75851195245298h1v36.24148804754702h-1Z" style="fill: #e0e0e0;"></path><path d="M691,124.36471145539801h1v25.63528854460199h-1Z" style="fill: #e0e0e0;"></path><path d="M938,69.08367063789899h1v80.91632936210101h-1Z" style="fill: #e0e0e0;"></path><path d="M675,127.71423023133801h1v22.285769768661993h-1Z" style="fill: #e0e0e0;"></path><path d="M685,125.6406174221568h1v24.359382577843206h-1Z" style="fill: #e0e0e0;"></path><path d="M792,106.22177880197097h1v43.77822119802903h-1Z" style="fill: #e0e0e0;"></path><path d="M576,144.36235886006872h1v5.637641139931276h-1Z" style="fill: #e0e0e0;"></path><path d="M579,144.07809834867044h1v5.921901651329563h-1Z" style="fill: #e0e0e0;"></path><path d="M877,85.75248282342477h1v64.24751717657523h-1Z" style="fill: #e0e0e0;"></path><path d="M804,104.34404771714725h1v45.65595228285275h-1Z" style="fill: #e0e0e0;"></path><path d="M834,98.11082493453551h1v51.889175065464485h-1Z" style="fill: #e0e0e0;"></path><path d="M811,102.25531618981876h1v47.74468381018124h-1Z" style="fill: #e0e0e0;"></path><path d="M526,150h1v3.940837196402981h-1Z" style="fill: #e0e0e0;"></path><path d="M432,150h1v16.14590745358987h-1Z" style="fill: #e0e0e0;"></path><path d="M536,150h1v3.0808435001902126h-1Z" style="fill: #e0e0e0;"></path><path d="M689,124.72145419507552h1v25.278545804924477h-1Z" style="fill: #e0e0e0;"></path><path d="M440,150h1v15.378575138144924h-1Z" style="fill: #e0e0e0;"></path><path d="M90,150h1v53.790383152061h-1Z" style="fill: #e0e0e0;"></path><path d="M572,145.85418563275857h1v4.145814367241428h-1Z" style="fill: #e0e0e0;"></path><path d="M890,83.05168423741375h1v66.94831576258625h-1Z" style="fill: #e0e0e0;"></path><path d="M707,121.12092833905751h1v28.879071660942486h-1Z" style="fill: #e0e0e0;"></path><path d="M131,150h1v45.95977526097826h-1Z" style="fill: #e0e0e0;"></path><path d="M403,150h1v19.159917644553616h-1Z" style="fill: #e0e0e0;"></path><path d="M459,150h1v12.935297302298977h-1Z" style="fill: #e0e0e0;"></path><path d="M498,150h1v8.294724039130642h-1Z" style="fill: #e0e0e0;"></path><path d="M634,134.8745093861155h1v15.125490613884494h-1Z" style="fill: #e0e0e0;"></path><path d="M488,150h1v9.866701177649958h-1Z" style="fill: #e0e0e0;"></path><path d="M849,93.93653433709676h1v56.06346566290324h-1Z" style="fill: #e0e0e0;"></path><path d="M865,89.09165870338h1v60.908341296619994h-1Z" style="fill: #e0e0e0;"></path><path d="M826,99.59785949378525h1v50.40214050621475h-1Z" style="fill: #e0e0e0;"></path><path d="M889,83.43266632347624h1v66.56733367652376h-1Z" style="fill: #e0e0e0;"></path><path d="M833,98.52654498010199h1v51.47345501989801h-1Z" style="fill: #e0e0e0;"></path><path d="M739,114.71886496930648h1v35.28113503069352h-1Z" style="fill: #e0e0e0;"></path><path d="M491,150h1v9.512148908668024h-1Z" style="fill: #e0e0e0;"></path><path d="M626,135.28123956113382h1v14.718760438866184h-1Z" style="fill: #e0e0e0;"></path><path d="M943,67.87965904861022h1v82.12034095138978h-1Z" style="fill: #e0e0e0;"></path><path d="M930,70.9966779866748h1v79.0033220133252h-1Z" style="fill: #e0e0e0;"></path><path d="M858,91.86918448596523h1v58.130815514034765h-1Z" style="fill: #e0e0e0;"></path><path d="M716,119.54592328458352h1v30.454076715416477h-1Z" style="fill: #e0e0e0;"></path><path d="M867,88.11155643253852h1v61.88844356746148h-1Z" style="fill: #e0e0e0;"></path><path d="M586,141.79174166112466h1v8.20825833887534h-1Z" style="fill: #e0e0e0;"></path><path d="M594,140.59542279630227h1v9.404577203697727h-1Z" style="fill: #e0e0e0;"></path><path d="M593,140.87545137792154h1v9.124548622078464h-1Z" style="fill: #e0e0e0;"></path><path d="M874,86.13877009540124h1v63.86122990459876h-1Z" style="fill: #e0e0e0;"></path><path d="M806,104.11902826219125h1v45.88097173780875h-1Z" style="fill: #e0e0e0;"></path><path d="M444,150h1v14.643935970359308h-1Z" style="fill: #e0e0e0;"></path><path d="M797,105.7906464853815h1v44.2093535146185h-1Z" style="fill: #e0e0e0;"></path><path d="M68,150h1v60.93962650685825h-1Z" style="fill: #e0e0e0;"></path><path d="M18,150h1v85.988275817924h-1Z" style="fill: #e0e0e0;"></path><path d="M452,150h1v13.704805187278225h-1Z" style="fill: #e0e0e0;"></path><path d="M476,150h1v11.451082042746947h-1Z" style="fill: #e0e0e0;"></path><path d="M721,118.6602638283305h1v31.3397361716695h-1Z" style="fill: #e0e0e0;"></path><path d="M64,150h1v61.37999754338773h-1Z" style="fill: #e0e0e0;"></path><path d="M42,150h1v69.2100809135965h-1Z" style="fill: #e0e0e0;"></path><path d="M88,150h1v54.83397703557523h-1Z" style="fill: #e0e0e0;"></path><path d="M425,150h1v17.12775092511697h-1Z" style="fill: #e0e0e0;"></path><path d="M695,123.94235592275174h1v26.057644077248256h-1Z" style="fill: #e0e0e0;"></path><path d="M789,107.04812865644027h1v42.95187134355973h-1Z" style="fill: #e0e0e0;"></path><path d="M845,94.66834526448773h1v55.331654735512274h-1Z" style="fill: #e0e0e0;"></path><path d="M503,150h1v6.362669281058743h-1Z" style="fill: #e0e0e0;"></path><path d="M19,150h1v85.61785679250275h-1Z" style="fill: #e0e0e0;"></path><path d="M255,150h1v32.483069709830744h-1Z" style="fill: #e0e0e0;"></path><path d="M534,150h1v3.209661058478787h-1Z" style="fill: #e0e0e0;"></path><path d="M229,150h1v35.22034149556674h-1Z" style="fill: #e0e0e0;"></path><path d="M724,118.10758572011528h1v31.89241427988472h-1Z" style="fill: #e0e0e0;"></path><path d="M285,150h1v29.76387005239053h-1Z" style="fill: #e0e0e0;"></path><path d="M580,144.05271273046063h1v5.947287269539373h-1Z" style="fill: #e0e0e0;"></path><path d="M507,150h1v5.966870597892239h-1Z" style="fill: #e0e0e0;"></path><path d="M260,150h1v32.01141815572299h-1Z" style="fill: #e0e0e0;"></path><path d="M4,150h1v115.33771019368703h-1Z" style="fill: #e0e0e0;"></path><path d="M27,150h1v81.54435615926297h-1Z" style="fill: #e0e0e0;"></path><path d="M203,150h1v38.438205532126744h-1Z" style="fill: #e0e0e0;"></path><path d="M188,150h1v39.660804084830744h-1Z" style="fill: #e0e0e0;"></path><path d="M335,150h1v25.219856313758243h-1Z" style="fill: #e0e0e0;"></path><path d="M327,150h1v26.15030866056003h-1Z" style="fill: #e0e0e0;"></path><path d="M65,150h1v61.2516806641155h-1Z" style="fill: #e0e0e0;"></path><path d="M404,150h1v19.130902103476984h-1Z" style="fill: #e0e0e0;"></path><path d="M13,150h1v93.76315336614175h-1Z" style="fill: #e0e0e0;"></path><path d="M645,133.034961036735h1v16.965038963264988h-1Z" style="fill: #e0e0e0;"></path><path d="M592,141.1582396545939h1v8.841760345406101h-1Z" style="fill: #e0e0e0;"></path><path d="M181,150h1v40.21701078801675h-1Z" style="fill: #e0e0e0;"></path><path d="M157,150h1v43.05118780522875h-1Z" style="fill: #e0e0e0;"></path><path d="M40,150h1v70.32638054280801h-1Z" style="fill: #e0e0e0;"></path><path d="M72,150h1v59.563653282218525h-1Z" style="fill: #e0e0e0;"></path><path d="M52,150h1v65.74142437367951h-1Z" style="fill: #e0e0e0;"></path><path d="M168,150h1v41.86255197911774h-1Z" style="fill: #e0e0e0;"></path><path d="M39,150h1v71.41745548635049h-1Z" style="fill: #e0e0e0;"></path><path d="M495,150h1v9.034679941230223h-1Z" style="fill: #e0e0e0;"></path><path d="M246,150h1v33.51068954854526h-1Z" style="fill: #e0e0e0;"></path><path d="M371,150h1v21.963290981345608h-1Z" style="fill: #e0e0e0;"></path><path d="M166,150h1v42.21899967580376h-1Z" style="fill: #e0e0e0;"></path><path d="M97,150h1v53.027145675712006h-1Z" style="fill: #e0e0e0;"></path><path d="M319,150h1v26.828353218131497h-1Z" style="fill: #e0e0e0;"></path><path d="M221,150h1v36.20052795796926h-1Z" style="fill: #e0e0e0;"></path><path d="M242,150h1v33.81246786504326h-1Z" style="fill: #e0e0e0;"></path><path d="M270,150h1v30.99740009694625h-1Z" style="fill: #e0e0e0;"></path><path d="M546,150h1v1.71019893079324h-1Z" style="fill: #e0e0e0;"></path><path d="M436,150h1v15.691165737204983h-1Z" style="fill: #e0e0e0;"></path><path d="M272,150h1v30.78147631078275h-1Z" style="fill: #e0e0e0;"></path><path d="M431,150h1v16.260950378470852h-1Z" style="fill: #e0e0e0;"></path><path d="M677,127.29668181329293h1v22.703318186707065h-1Z" style="fill: #e0e0e0;"></path><path d="M468,150h1v11.832408718162014h-1Z" style="fill: #e0e0e0;"></path><path d="M222,150h1v36.09958153157751h-1Z" style="fill: #e0e0e0;"></path><path d="M110,150h1v49.54721193700351h-1Z" style="fill: #e0e0e0;"></path><path d="M66,150h1v61.17165546804h-1Z" style="fill: #e0e0e0;"></path><path d="M233,150h1v34.75287418752251h-1Z" style="fill: #e0e0e0;"></path><path d="M341,150h1v25.01171689420272h-1Z" style="fill: #e0e0e0;"></path><path d="M140,150h1v45.615987590842764h-1Z" style="fill: #e0e0e0;"></path><path d="M159,150h1v42.97790985494174h-1Z" style="fill: #e0e0e0;"></path><path d="M206,150h1v37.96778183370151h-1Z" style="fill: #e0e0e0;"></path><path d="M654,131.37658100514932h1v18.62341899485068h-1Z" style="fill: #e0e0e0;"></path><path d="M257,150h1v32.28967647939248h-1Z" style="fill: #e0e0e0;"></path><path d="M422,150h1v17.609022668891413h-1Z" style="fill: #e0e0e0;"></path><path d="M207,150h1v37.922255806022235h-1Z" style="fill: #e0e0e0;"></path><path d="M7,150h1v107.97341328054h-1Z" style="fill: #e0e0e0;"></path><path d="M406,150h1v19.046031049781277h-1Z" style="fill: #e0e0e0;"></path><path d="M560,148.63232832341714h1v1.3676716765828587h-1Z" style="fill: #e0e0e0;"></path><path d="M732,116.40235345750375h1v33.59764654249625h-1Z" style="fill: #e0e0e0;"></path><path d="M82,150h1v56.407754234366735h-1Z" style="fill: #e0e0e0;"></path><path d="M309,150h1v27.671848348670522h-1Z" style="fill: #e0e0e0;"></path><path d="M575,144.66051917462872h1v5.339480825371282h-1Z" style="fill: #e0e0e0;"></path><path d="M358,150h1v24.190472177558377h-1Z" style="fill: #e0e0e0;"></path><path d="M557,148.82218103795574h1v1.177818962044256h-1Z" style="fill: #e0e0e0;"></path><path d="M123,150h1v47.09411125569875h-1Z" style="fill: #f00;"></path><path d="M678,127.07151930718942h1v22.92848069281058h-1Z" style="fill: #e0e0e0;"></path><path d="M32,150h1v76.41823749929h-1Z" style="fill: #e0e0e0;"></path><path d="M35,150h1v74.13671474843551h-1Z" style="fill: #e0e0e0;"></path><path d="M366,150h1v22.9644821205668h-1Z" style="fill: #e0e0e0;"></path><path d="M113,150h1v49.004976562553h-1Z" style="fill: #e0e0e0;"></path><path d="M340,150h1v25.054638198905508h-1Z" style="fill: #e0e0e0;"></path><path d="M460,150h1v12.856309227042658h-1Z" style="fill: #e0e0e0;"></path><path d="M240,150h1v33.88455372243453h-1Z" style="fill: #e0e0e0;"></path><path d="M862,91.06248330264597h1v58.93751669735403h-1Z" style="fill: #e0e0e0;"></path><path d="M119,150h1v47.84695368199874h-1Z" style="fill: #e0e0e0;"></path><path d="M154,150h1v43.73467426686801h-1Z" style="fill: #e0e0e0;"></path><path d="M799,105.55620055585422h1v44.44379944414578h-1Z" style="fill: #e0e0e0;"></path><path d="M146,150h1v45.15631657033501h-1Z" style="fill: #e0e0e0;"></path><path d="M437,150h1v15.516840032630398h-1Z" style="fill: #e0e0e0;"></path><path d="M524,150h1v4.092840961509182h-1Z" style="fill: #e0e0e0;"></path><path d="M458,150h1v12.946216873221857h-1Z" style="fill: #e0e0e0;"></path><path d="M768,110.19087295918976h1v39.80912704081024h-1Z" style="fill: #e0e0e0;"></path><path d="M669,128.24784379392187h1v21.752156206078126h-1Z" style="fill: #e0e0e0;"></path><path d="M316,150h1v27.223520092063495h-1Z" style="fill: #e0e0e0;"></path><path d="M21,150h1v85.2103517571025h-1Z" style="fill: #e0e0e0;"></path><path d="M184,150h1v40.02147179036649h-1Z" style="fill: #e0e0e0;"></path><path d="M595,139.9787591019206h1v10.021240898079412h-1Z" style="fill: #e0e0e0;"></path><path d="M201,150h1v38.65392666249798h-1Z" style="fill: #e0e0e0;"></path><path d="M766,110.24501781850375h1v39.754982181496246h-1Z" style="fill: #e0e0e0;"></path><path d="M622,135.59620242505594h1v14.403797574944065h-1Z" style="fill: #e0e0e0;"></path><path d="M462,150h1v12.743221334510281h-1Z" style="fill: #e0e0e0;"></path><path d="M522,150h1v4.1423008957438014h-1Z" style="fill: #e0e0e0;"></path><path d="M96,150h1v53.067831806235745h-1Z" style="fill: #e0e0e0;"></path><path d="M955,60.16416709809826h1v89.83583290190174h-1Z" style="fill: #e0e0e0;"></path><path d="M960,55.531786493354275h1v94.46821350664572h-1Z" style="fill: #e0e0e0;"></path><path d="M920,73.35717912703075h1v76.64282087296925h-1Z" style="fill: #e0e0e0;"></path><path d="M904,78.96298758625326h1v71.03701241374674h-1Z" style="fill: #e0e0e0;"></path><path d="M584,142.46529202848004h1v7.534707971519964h-1Z" style="fill: #e0e0e0;"></path><path d="M895,80.86856074570952h1v69.13143925429048h-1Z" style="fill: #e0e0e0;"></path><path d="M940,68.44086062102849h1v81.55913937897151h-1Z" style="fill: #e0e0e0;"></path><path d="M280,150h1v29.990296176963255h-1Z" style="fill: #e0e0e0;"></path><path d="M267,150h1v31.205766014152005h-1Z" style="fill: #e0e0e0;"></path><path d="M492,150h1v9.438990167670681h-1Z" style="fill: #e0e0e0;"></path><path d="M658,130.9598610916667h1v19.04013890833329h-1Z" style="fill: #e0e0e0;"></path><path d="M661,130.59663038640542h1v19.403369613594577h-1Z" style="fill: #e0e0e0;"></path><path d="M261,150h1v31.86402779012252h-1Z" style="fill: #00f;"></path><path d="M171,150h1v41.59981470494802h-1Z" style="fill: #e0e0e0;"></path><path d="M252,150h1v33.009033016257746h-1Z" style="fill: #e0e0e0;"></path><path d="M394,150h1v20.114414505057766h-1Z" style="fill: #e0e0e0;"></path><path d="M531,150h1v3.4861491241983913h-1Z" style="fill: #e0e0e0;"></path><path d="M224,150h1v35.72693329244174h-1Z" style="fill: #e0e0e0;"></path><path d="M41,150h1v69.67814426808874h-1Z" style="fill: #e0e0e0;"></path><path d="M87,150h1v54.92083292394199h-1Z" style="fill: #e0e0e0;"></path><path d="M230,150h1v35.07123451619674h-1Z" style="fill: #e0e0e0;"></path><path d="M944,67.63970415978952h1v82.36029584021048h-1Z" style="fill: #e0e0e0;"></path><path d="M363,150h1v23.21826081662698h-1Z" style="fill: #e0e0e0;"></path><path d="M81,150h1v56.91369038014926h-1Z" style="fill: #e0e0e0;"></path><path d="M373,150h1v21.79224353223367h-1Z" style="fill: #e0e0e0;"></path><path d="M438,150h1v15.497271827750637h-1Z" style="fill: #e0e0e0;"></path><path d="M469,150h1v11.780975870185358h-1Z" style="fill: #e0e0e0;"></path><path d="M152,150h1v44.22687750249423h-1Z" style="fill: #e0e0e0;"></path><path d="M828,99.44097559838829h1v50.55902440161171h-1Z" style="fill: #e0e0e0;"></path><path d="M254,150h1v32.926885894828274h-1Z" style="fill: #e0e0e0;"></path><path d="M279,150h1v30.01658182530926h-1Z" style="fill: #e0e0e0;"></path><path d="M608,137.847064546638h1v12.152935453362005h-1Z" style="fill: #e0e0e0;"></path><path d="M632,134.94707208066507h1v15.052927919334934h-1Z" style="fill: #e0e0e0;"></path><path d="M761,110.863633565002h1v39.136366434997996h-1Z" style="fill: #e0e0e0;"></path><path d="M850,93.91278784661824h1v56.087212153381756h-1Z" style="fill: #e0e0e0;"></path><path d="M548,150h1v1.41076307683511h-1Z" style="fill: #e0e0e0;"></path><path d="M852,93.22582196383999h1v56.77417803616001h-1Z" style="fill: #e0e0e0;"></path><path d="M92,150h1v53.20334892659699h-1Z" style="fill: #e0e0e0;"></path><path d="M710,120.18489699750475h1v29.81510300249525h-1Z" style="fill: #e0e0e0;"></path><path d="M540,150h1v2.740196994834349h-1Z" style="fill: #e0e0e0;"></path><path d="M470,150h1v11.753349117331965h-1Z" style="fill: #e0e0e0;"></path><path d="M208,150h1v37.747506908469745h-1Z" style="fill: #e0e0e0;"></path><path d="M164,150h1v42.300920299583h-1Z" style="fill: #e0e0e0;"></path><path d="M121,150h1v47.509031108909h-1Z" style="fill: #e0e0e0;"></path><path d="M106,150h1v50.41039448171176h-1Z" style="fill: #e0e0e0;"></path><path d="M269,150h1v31.013517192893516h-1Z" style="fill: #e0e0e0;"></path><path d="M116,150h1v48.26170664220376h-1Z" style="fill: #e0e0e0;"></path><path d="M262,150h1v31.525914482169497h-1Z" style="fill: #e0e0e0;"></path><path d="M451,150h1v13.934199623160822h-1Z" style="fill: #e0e0e0;"></path><path d="M273,150h1v30.74764471440824h-1Z" style="fill: #e0e0e0;"></path><path d="M384,150h1v20.97698908238931h-1Z" style="fill: #e0e0e0;"></path><path d="M713,119.86508231549774h1v30.134917684502255h-1Z" style="fill: #e0e0e0;"></path><path d="M51,150h1v66.42779570012624h-1Z" style="fill: #e0e0e0;"></path><path d="M287,150h1v29.565326980643732h-1Z" style="fill: #e0e0e0;"></path><path d="M652,131.63007955937908h1v18.369920440620916h-1Z" style="fill: #e0e0e0;"></path><path d="M354,150h1v24.648867658667996h-1Z" style="fill: #e0e0e0;"></path><path d="M311,150h1v27.572397998862755h-1Z" style="fill: #e0e0e0;"></path><path d="M275,150h1v30.093257240348237h-1Z" style="fill: #e0e0e0;"></path><path d="M192,150h1v39.19235926061202h-1Z" style="fill: #e0e0e0;"></path><path d="M205,150h1v38.058488182120755h-1Z" style="fill: #e0e0e0;"></path><path d="M400,150h1v19.537566713386042h-1Z" style="fill: #e0e0e0;"></path><path d="M484,150h1v10.253612808280423h-1Z" style="fill: #e0e0e0;"></path><path d="M348,150h1v24.893234781318142h-1Z" style="fill: #e0e0e0;"></path><path d="M80,150h1v56.931834034019005h-1Z" style="fill: #e0e0e0;"></path><path d="M211,150h1v37.447957805686485h-1Z" style="fill: #e0e0e0;"></path><path d="M163,150h1v42.491392902427265h-1Z" style="fill: #e0e0e0;"></path><path d="M225,150h1v35.50844650655324h-1Z" style="fill: #e0e0e0;"></path><path d="M421,150h1v17.76621799855755h-1Z" style="fill: #e0e0e0;"></path><path d="M212,150h1v36.89179878621624h-1Z" style="fill: #e0e0e0;"></path><path d="M817,100.9948046126895h1v49.00519538731049h-1Z" style="fill: #e0e0e0;"></path><path d="M289,150h1v29.375545791678746h-1Z" style="fill: #e0e0e0;"></path><path d="M173,150h1v41.32483463674126h-1Z" style="fill: #e0e0e0;"></path><path d="M271,150h1v30.98286848455001h-1Z" style="fill: #e0e0e0;"></path><path d="M333,150h1v25.331626943641254h-1Z" style="fill: #e0e0e0;"></path><path d="M359,150h1v23.96703224568887h-1Z" style="fill: #e0e0e0;"></path><path d="M172,150h1v41.325800231986506h-1Z" style="fill: #e0e0e0;"></path><path d="M86,150h1v55.45311432271524h-1Z" style="fill: #00f;"></path><path d="M62,150h1v62.31090288549001h-1Z" style="fill: #e0e0e0;"></path><path d="M196,150h1v38.818161300712006h-1Z" style="fill: #e0e0e0;"></path><path d="M364,150h1v23.21746211438699h-1Z" style="fill: #e0e0e0;"></path><path d="M277,150h1v30.070500186972993h-1Z" style="fill: #e0e0e0;"></path><path d="M387,150h1v20.723120979361994h-1Z" style="fill: #e0e0e0;"></path><path d="M682,126.40646856217907h1v23.59353143782093h-1Z" style="fill: #e0e0e0;"></path><path d="M511,150h1v5.691878608756525h-1Z" style="fill: #e0e0e0;"></path><path d="M613,136.74020033269449h1v13.259799667305515h-1Z" style="fill: #e0e0e0;"></path><path d="M120,150h1v47.5237892189555h-1Z" style="fill: #e0e0e0;"></path><path d="M509,150h1v5.870579294257595h-1Z" style="fill: #e0e0e0;"></path><path d="M322,150h1v26.73569183736373h-1Z" style="fill: #e0e0e0;"></path><path d="M785,108.48475854783575h1v41.51524145216425h-1Z" style="fill: #e0e0e0;"></path><path d="M847,94.44204728990124h1v55.55795271009876h-1Z" style="fill: #e0e0e0;"></path><path d="M197,150h1v38.81135445027874h-1Z" style="fill: #e0e0e0;"></path><path d="M416,150h1v18.404607585959866h-1Z" style="fill: #e0e0e0;"></path><path d="M473,150h1v11.670611909919245h-1Z" style="fill: #e0e0e0;"></path><path d="M70,150h1v60.458617023521015h-1Z" style="fill: #e0e0e0;"></path><path d="M304,150h1v27.97561149983926h-1Z" style="fill: #e0e0e0;"></path><path d="M493,150h1v9.343002847724392h-1Z" style="fill: #e0e0e0;"></path><path d="M220,150h1v36.21429663091226h-1Z" style="fill: #e0e0e0;"></path><path d="M218,150h1v36.3933489838175h-1Z" style="fill: #e0e0e0;"></path><path d="M351,150h1v24.820159486823513h-1Z" style="fill: #e0e0e0;"></path><path d="M59,150h1v63.58863573461099h-1Z" style="fill: #e0e0e0;"></path><path d="M85,150h1v55.77918749242349h-1Z" style="fill: #e0e0e0;"></path><path d="M25,150h1v82.08265762715848h-1Z" style="fill: #e0e0e0;"></path><path d="M274,150h1v30.179827026420014h-1Z" style="fill: #e0e0e0;"></path><path d="M564,147.749875597053h1v2.2501244029469945h-1Z" style="fill: #e0e0e0;"></path><path d="M442,150h1v14.973835758262112h-1Z" style="fill: #e0e0e0;"></path><path d="M499,150h1v8.176706842475369h-1Z" style="fill: #e0e0e0;"></path><path d="M830,99.27549671321424h1v50.72450328678576h-1Z" style="fill: #e0e0e0;"></path><path d="M796,105.7936028757625h1v44.2063971242375h-1Z" style="fill: #e0e0e0;"></path><path d="M368,150h1v22.577856592231257h-1Z" style="fill: #e0e0e0;"></path><path d="M60,150h1v63.502197078757746h-1Z" style="fill: #e0e0e0;"></path><path d="M219,150h1v36.33585434346725h-1Z" style="fill: #e0e0e0;"></path><path d="M138,150h1v45.80463629155676h-1Z" style="fill: #e0e0e0;"></path><path d="M105,150h1v50.41385155110876h-1Z" style="fill: #e0e0e0;"></path><path d="M249,150h1v33.354930690818264h-1Z" style="fill: #e0e0e0;"></path><path d="M103,150h1v50.933532527976524h-1Z" style="fill: #e0e0e0;"></path><path d="M162,150h1v42.710201553397496h-1Z" style="fill: #e0e0e0;"></path><path d="M283,150h1v29.836051277213528h-1Z" style="fill: #e0e0e0;"></path><path d="M312,150h1v27.529482654624474h-1Z" style="fill: #e0e0e0;"></path><path d="M339,150h1v25.07243018537099h-1Z" style="fill: #e0e0e0;"></path><path d="M310,150h1v27.61885385900075h-1Z" style="fill: #e0e0e0;"></path><path d="M672,127.79873173623608h1v22.20126826376392h-1Z" style="fill: #e0e0e0;"></path><path d="M361,150h1v23.367057851844265h-1Z" style="fill: #e0e0e0;"></path><path d="M553,150h1v0.1611815014414617h-1Z" style="fill: #e0e0e0;"></path><path d="M455,150h1v13.474510721259549h-1Z" style="fill: #e0e0e0;"></path><path d="M375,150h1v21.700273565345242h-1Z" style="fill: #e0e0e0;"></path><path d="M73,150h1v59.5222161331705h-1Z" style="fill: #e0e0e0;"></path><path d="M268,150h1v31.131009868674738h-1Z" style="fill: #e0e0e0;"></path><path d="M528,150h1v3.7431166687540554h-1Z" style="fill: #e0e0e0;"></path><path d="M602,139.29031353383584h1v10.709686466164158h-1Z" style="fill: #e0e0e0;"></path><path d="M725,118.03282361417351h1v31.96717638582649h-1Z" style="fill: #e0e0e0;"></path><path d="M418,150h1v18.164388946586087h-1Z" style="fill: #e0e0e0;"></path><path d="M494,150h1v9.33053355603738h-1Z" style="fill: #e0e0e0;"></path><path d="M481,150h1v10.42759280591531h-1Z" style="fill: #e0e0e0;"></path><path d="M148,150h1v44.93948679357101h-1Z" style="fill: #e0e0e0;"></path><path d="M708,120.85763674169101h1v29.14236325830899h-1Z" style="fill: #e0e0e0;"></path><path d="M430,150h1v16.283457092338068h-1Z" style="fill: #e0e0e0;"></path><path d="M750,112.3619721451335h1v37.63802785486649h-1Z" style="fill: #e0e0e0;"></path><path d="M376,150h1v21.51852708249612h-1Z" style="fill: #e0e0e0;"></path><path d="M686,125.60075085549877h1v24.399249144501226h-1Z" style="fill: #e0e0e0;"></path><path d="M30,150h1v78.67154341130777h-1Z" style="fill: #e0e0e0;"></path><path d="M14,150h1v92.03309278874926h-1Z" style="fill: #e0e0e0;"></path><path d="M573,145.1075063267283h1v4.8924936732717015h-1Z" style="fill: #e0e0e0;"></path><path d="M22,150h1v84.72292881398727h-1Z" style="fill: #e0e0e0;"></path><path d="M740,114.60257332711748h1v35.39742667288252h-1Z" style="fill: #e0e0e0;"></path><path d="M888,83.61681710868402h1v66.38318289131598h-1Z" style="fill: #e0e0e0;"></path><path d="M386,150h1v20.8243237057261h-1Z" style="fill: #e0e0e0;"></path><path d="M668,128.26754908948465h1v21.732450910515354h-1Z" style="fill: #e0e0e0;"></path><path d="M893,81.38475652723827h1v68.61524347276173h-1Z" style="fill: #e0e0e0;"></path><path d="M126,150h1v46.73243027120151h-1Z" style="fill: #e0e0e0;"></path><path d="M744,113.59438460259952h1v36.40561539740048h-1Z" style="fill: #e0e0e0;"></path><path d="M144,150h1v45.23094158559377h-1Z" style="fill: #e0e0e0;"></path><path d="M663,130.5398450413279h1v19.460154958672092h-1Z" style="fill: #e0e0e0;"></path><path d="M150,150h1v44.557778648429235h-1Z" style="fill: #e0e0e0;"></path><path d="M24,150h1v83.78497820287276h-1Z" style="fill: #e0e0e0;"></path><path d="M8,150h1v103.579132370048h-1Z" style="fill: #e0e0e0;"></path><path d="M36,150h1v72.42048244863076h-1Z" style="fill: #e0e0e0;"></path><path d="M513,150h1v5.635379365973932h-1Z" style="fill: #e0e0e0;"></path><path d="M202,150h1v38.55671148686926h-1Z" style="fill: #e0e0e0;"></path><path d="M141,150h1v45.30345659642751h-1Z" style="fill: #e0e0e0;"></path><path d="M2,150h1v121.64825659184976h-1Z" style="fill: #e0e0e0;"></path><path d="M567,147.15368013768716h1v2.846319862312839h-1Z" style="fill: #e0e0e0;"></path><path d="M43,150h1v68.8168094673685h-1Z" style="fill: #e0e0e0;"></path><path d="M401,150h1v19.452570489936306h-1Z" style="fill: #e0e0e0;"></path><path d="M167,150h1v42.1977923431925h-1Z" style="fill: #e0e0e0;"></path><path d="M45,150h1v68.19758873372598h-1Z" style="fill: #e0e0e0;"></path><path d="M69,150h1v60.92946987538849h-1Z" style="fill: #e0e0e0;"></path><path d="M496,150h1v8.83975487142132h-1Z" style="fill: #e0e0e0;"></path><path d="M93,150h1v53.19016437917276h-1Z" style="fill: #e0e0e0;"></path><path d="M441,150h1v15.2695940056376h-1Z" style="fill: #e0e0e0;"></path><path d="M259,150h1v32.13628988652749h-1Z" style="fill: #e0e0e0;"></path><path d="M9,150h1v103.15944414525552h-1Z" style="fill: #e0e0e0;"></path><path d="M237,150h1v33.990793041282245h-1Z" style="fill: #e0e0e0;"></path><path d="M318,150h1v26.900790742926972h-1Z" style="fill: #e0e0e0;"></path><path d="M897,80.4365876310998h1v69.5634123689002h-1Z" style="fill: #e0e0e0;"></path><path d="M410,150h1v18.78068905263467h-1Z" style="fill: #e0e0e0;"></path><path d="M392,150h1v20.15337806134744h-1Z" style="fill: #e0e0e0;"></path><path d="M83,150h1v56.27270203023477h-1Z" style="fill: #e0e0e0;"></path><path d="M71,150h1v60.28246145635177h-1Z" style="fill: #e0e0e0;"></path><path d="M55,150h1v65.10886412053625h-1Z" style="fill: #e0e0e0;"></path><path d="M137,150h1v45.80576877980752h-1Z" style="fill: #e0e0e0;"></path><path d="M223,150h1v35.94727974324752h-1Z" style="fill: #e0e0e0;"></path><path d="M395,150h1v20.050422958426935h-1Z" style="fill: #e0e0e0;"></path><path d="M245,150h1v33.57773285298876h-1Z" style="fill: #e0e0e0;"></path><path d="M99,150h1v52.62746076970626h-1Z" style="fill: #e0e0e0;"></path><path d="M671,128.05986266522928h1v21.940137334770725h-1Z" style="fill: #e0e0e0;"></path><path d="M214,150h1v36.764387897544225h-1Z" style="fill: #e0e0e0;"></path><path d="M497,150h1v8.58546953588052h-1Z" style="fill: #e0e0e0;"></path><path d="M642,133.46811395078228h1v16.531886049217718h-1Z" style="fill: #e0e0e0;"></path><path d="M393,150h1v20.118437818580105h-1Z" style="fill: #e0e0e0;"></path><path d="M419,150h1v18.136762193732693h-1Z" style="fill: #e0e0e0;"></path><path d="M382,150h1v21.17164593129681h-1Z" style="fill: #e0e0e0;"></path><path d="M33,150h1v74.94496565251876h-1Z" style="fill: #e0e0e0;"></path><path d="M194,150h1v38.94815903096725h-1Z" style="fill: #e0e0e0;"></path><path d="M139,150h1v45.7367704430155h-1Z" style="fill: #e0e0e0;"></path><path d="M313,150h1v27.44249563603927h-1Z" style="fill: #e0e0e0;"></path><path d="M881,84.96929567246951h1v65.03070432753049h-1Z" style="fill: #e0e0e0;"></path><path d="M102,150h1v51.620678714804995h-1Z" style="fill: #e0e0e0;"></path><path d="M705,121.40735845952548h1v28.592641540474517h-1Z" style="fill: #e0e0e0;"></path><path d="M377,150h1v21.49743299871011h-1Z" style="fill: #e0e0e0;"></path><path d="M228,150h1v35.230092815452h-1Z" style="fill: #e0e0e0;"></path><path d="M332,150h1v25.390409044318744h-1Z" style="fill: #e0e0e0;"></path><path d="M362,150h1v23.316024354987576h-1Z" style="fill: #e0e0e0;"></path><path d="M258,150h1v32.13892441182651h-1Z" style="fill: #e0e0e0;"></path><path d="M480,150h1v10.553138069205716h-1Z" style="fill: #e0e0e0;"></path><path d="M111,150h1v49.13722734838052h-1Z" style="fill: #e0e0e0;"></path><path d="M282,150h1v29.842464736991246h-1Z" style="fill: #e0e0e0;"></path><path d="M142,150h1v45.289699844413235h-1Z" style="fill: #e0e0e0;"></path><path d="M95,150h1v53.0886099854045h-1Z" style="fill: #e0e0e0;"></path><path d="M147,150h1v44.9629591026835h-1Z" style="fill: #e0e0e0;"></path><path d="M983,23.91733985333974h1v126.08266014666026h-1Z" style="fill: #e0e0e0;"></path><path d="M873,86.88190963058997h1v63.11809036941003h-1Z" style="fill: #e0e0e0;"></path><path d="M957,59.93277739673175h1v90.06722260326825h-1Z" style="fill: #e0e0e0;"></path><path d="M837,97.20907371430923h1v52.79092628569077h-1Z" style="fill: #e0e0e0;"></path><path d="M917,74.73767112880279h1v75.26232887119721h-1Z" style="fill: #e0e0e0;"></path><path d="M981,29.89921133904977h1v120.10078866095023h-1Z" style="fill: #e0e0e0;"></path><path d="M906,78.20388490273876h1v71.79611509726124h-1Z" style="fill: #e0e0e0;"></path><path d="M805,104.14806466489352h1v45.851935335106475h-1Z" style="fill: #e0e0e0;"></path><path d="M969,49.865807704024775h1v100.13419229597523h-1Z" style="fill: #e0e0e0;"></path><path d="M949,64.75396912484703h1v85.24603087515297h-1Z" style="fill: #e0e0e0;"></path><path d="M946,66.15597840338276h1v83.84402159661724h-1Z" style="fill: #e0e0e0;"></path><path d="M819,100.81899922280826h1v49.18100077719174h-1Z" style="fill: #e0e0e0;"></path><path d="M728,117.611365131431h1v32.388634868569h-1Z" style="fill: #e0e0e0;"></path><path d="M795,105.84917824655102h1v44.15082175344898h-1Z" style="fill: #e0e0e0;"></path><path d="M241,150h1v33.822552970939h-1Z" style="fill: #e0e0e0;"></path><path d="M901,79.64044187157671h1v70.35955812842329h-1Z" style="fill: #e0e0e0;"></path><path d="M704,121.89468305497701h1v28.10531694502299h-1Z" style="fill: #e0e0e0;"></path><path d="M485,150h1v10.134630016379788h-1Z" style="fill: #e0e0e0;"></path><path d="M577,144.1898093739085h1v5.810190626091497h-1Z" style="fill: #e0e0e0;"></path><path d="M641,133.54348402410074h1v16.456515975899265h-1Z" style="fill: #e0e0e0;"></path><path d="M646,132.94586997418924h1v17.054130025810764h-1Z" style="fill: #e0e0e0;"></path><path d="M428,150h1v16.646562627845242h-1Z" style="fill: #e0e0e0;"></path><path d="M232,150h1v34.76465206532998h-1Z" style="fill: #e0e0e0;"></path><path d="M703,121.94751065164124h1v28.052489348358762h-1Z" style="fill: #e0e0e0;"></path><path d="M114,150h1v48.96857004552399h-1Z" style="fill: #e0e0e0;"></path><path d="M822,100.36120574861098h1v49.638794251389015h-1Z" style="fill: #e0e0e0;"></path><path d="M843,95.1931313791805h1v54.8068686208195h-1Z" style="fill: #e0e0e0;"></path><path d="M770,110.11519592195077h1v39.88480407804923h-1Z" style="fill: #e0e0e0;"></path><path d="M838,97.02594738393347h1v52.97405261606653h-1Z" style="fill: #e0e0e0;"></path><path d="M913,76.3291194283895h1v73.6708805716105h-1Z" style="fill: #e0e0e0;"></path><path d="M568,146.98617916493936h1v3.013820835060642h-1Z" style="fill: #e0e0e0;"></path><path d="M731,116.446228436523h1v33.553771563477h-1Z" style="fill: #e0e0e0;"></path><path d="M667,128.46081715016888h1v21.53918284983112h-1Z" style="fill: #e0e0e0;"></path><path d="M535,150h1v3.1488643208078884h-1Z" style="fill: #e0e0e0;"></path><path d="M435,150h1v15.694157890372736h-1Z" style="fill: #e0e0e0;"></path><path d="M656,131.07662659078164h1v18.923373409218357h-1Z" style="fill: #e0e0e0;"></path><path d="M596,139.93840079694317h1v10.06159920305683h-1Z" style="fill: #e0e0e0;"></path><path d="M816,101.15156631856473h1v48.84843368143527h-1Z" style="fill: #e0e0e0;"></path><path d="M61,150h1v62.878660968833515h-1Z" style="fill: #e0e0e0;"></path><path d="M108,150h1v49.96351461797275h-1Z" style="fill: #e0e0e0;"></path><path d="M77,150h1v58.86154632955123h-1Z" style="fill: #e0e0e0;"></path><path d="M591,141.23335342793987h1v8.766646572060125h-1Z" style="fill: #e0e0e0;"></path><path d="M374,150h1v21.7504129925303h-1Z" style="fill: #e0e0e0;"></path><path d="M408,150h1v18.910478166633084h-1Z" style="fill: #e0e0e0;"></path><path d="M199,150h1v38.793747238212006h-1Z" style="fill: #e0e0e0;"></path><path d="M122,150h1v47.34621506124074h-1Z" style="fill: #e0e0e0;"></path><path d="M89,150h1v54.58751182942899h-1Z" style="fill: #e0e0e0;"></path><path d="M465,150h1v12.36584644704385h-1Z" style="fill: #e0e0e0;"></path><path d="M136,150h1v45.81274252324624h-1Z" style="fill: #00f;"></path><path d="M46,150h1v67.780427745872h-1Z" style="fill: #e0e0e0;"></path><path d="M195,150h1v38.94113760381276h-1Z" style="fill: #e0e0e0;"></path><path d="M420,150h1v17.99539189725442h-1Z" style="fill: #e0e0e0;"></path><path d="M864,89.64832510738901h1v60.35167489261099h-1Z" style="fill: #e0e0e0;"></path><path d="M653,131.53536777883096h1v18.46463222116904h-1Z" style="fill: #e0e0e0;"></path><path d="M544,150h1v2.170769981437161h-1Z" style="fill: #e0e0e0;"></path><path d="M323,150h1v26.69156651883651h-1Z" style="fill: #e0e0e0;"></path><path d="M518,150h1v5.108283571296198h-1Z" style="fill: #e0e0e0;"></path><path d="M67,150h1v61.088757328086245h-1Z" style="fill: #e0e0e0;"></path><path d="M370,150h1v22.13196020513101h-1Z" style="fill: #e0e0e0;"></path><path d="M657,130.97515564351605h1v19.024844356483953h-1Z" style="fill: #e0e0e0;"></path><path d="M648,132.7890739956431h1v17.210926004356907h-1Z" style="fill: #e0e0e0;"></path><path d="M134,150h1v45.9312723198465h-1Z" style="fill: #e0e0e0;"></path><path d="M625,135.3834138432078h1v14.61658615679221h-1Z" style="fill: #e0e0e0;"></path><path d="M463,150h1v12.551938108497097h-1Z" style="fill: #e0e0e0;"></path><path d="M15,150h1v91.25845890431927h-1Z" style="fill: #e0e0e0;"></path><path d="M342,150h1v24.96655445485635h-1Z" style="fill: #e0e0e0;"></path><path d="M453,150h1v13.66042356877847h-1Z" style="fill: #e0e0e0;"></path><path d="M306,150h1v27.905415109687254h-1Z" style="fill: #e0e0e0;"></path><path d="M118,150h1v47.93483477025552h-1Z" style="fill: #e0e0e0;"></path><path d="M244,150h1v33.709149173789484h-1Z" style="fill: #e0e0e0;"></path><path d="M321,150h1v26.75750117688699h-1Z" style="fill: #e0e0e0;"></path><path d="M525,150h1v4.075382761054499h-1Z" style="fill: #e0e0e0;"></path><path d="M185,150h1v40.01877766042276h-1Z" style="fill: #e0e0e0;"></path><path d="M337,150h1v25.193266681724026h-1Z" style="fill: #e0e0e0;"></path><path d="M681,126.52280490785165h1v23.47719509214835h-1Z" style="fill: #e0e0e0;"></path><path d="M213,150h1v36.80474024205722h-1Z" style="fill: #e0e0e0;"></path><path d="M187,150h1v39.72356777577923h-1Z" style="fill: #e0e0e0;"></path><path d="M217,150h1v36.45476560979398h-1Z" style="fill: #e0e0e0;"></path><path d="M132,150h1v45.95439892201949h-1Z" style="fill: #e0e0e0;"></path><path d="M787,107.9688505449825h1v42.0311494550175h-1Z" style="fill: #e0e0e0;"></path><path d="M98,150h1v52.87462931066074h-1Z" style="fill: #e0e0e0;"></path><path d="M11,150h1v98.38005762486975h-1Z" style="fill: #e0e0e0;"></path><path d="M647,132.85128932385967h1v17.148710676140325h-1Z" style="fill: #e0e0e0;"></path><path d="M34,150h1v74.44736223607575h-1Z" style="fill: #e0e0e0;"></path><path d="M161,150h1v42.93548326879073h-1Z" style="fill: #e0e0e0;"></path><path d="M391,150h1v20.256982854896023h-1Z" style="fill: #e0e0e0;"></path><path d="M16,150h1v91.18957977681674h-1Z" style="fill: #e0e0e0;"></path><path d="M389,150h1v20.389096550040705h-1Z" style="fill: #e0e0e0;"></path><path d="M939,68.67388796001h1v81.32611203999h-1Z" style="fill: #f00;"></path><path d="M900,79.71465468346398h1v70.28534531653602h-1Z" style="fill: #e0e0e0;"></path><path d="M238,150h1v33.97896747975875h-1Z" style="fill: #e0e0e0;"></path><path d="M899,79.95080269812871h1v70.04919730187129h-1Z" style="fill: #e0e0e0;"></path><path d="M859,91.75373475938375h1v58.24626524061625h-1Z" style="fill: #e0e0e0;"></path><path d="M666,129.85875468640847h1v20.141245313591526h-1Z" style="fill: #e0e0e0;"></path><path d="M426,150h1v17.000894359641535h-1Z" style="fill: #e0e0e0;"></path><path d="M660,130.73570590405987h1v19.26429409594013h-1Z" style="fill: #e0e0e0;"></path><path d="M959,55.53215455203576h1v94.46784544796424h-1Z" style="fill: #e0e0e0;"></path><path d="M639,133.71279101758523h1v16.287208982414768h-1Z" style="fill: #e0e0e0;"></path><path d="M178,150h1v40.436951927238h-1Z" style="fill: #e0e0e0;"></path><path d="M527,150h1v3.77282362371011h-1Z" style="fill: #e0e0e0;"></path><path d="M299,150h1v28.725700191550743h-1Z" style="fill: #e0e0e0;"></path><path d="M177,150h1v40.55362205892126h-1Z" style="fill: #e0e0e0;"></path><path d="M303,150h1v28.351681045584996h-1Z" style="fill: #e0e0e0;"></path><path d="M49,150h1v66.75328474431552h-1Z" style="fill: #e0e0e0;"></path><path d="M143,150h1v45.27947168736975h-1Z" style="fill: #e0e0e0;"></path><path d="M399,150h1v19.547097496085627h-1Z" style="fill: #e0e0e0;"></path><path d="M369,150h1v22.51798372655435h-1Z" style="fill: #e0e0e0;"></path><path d="M474,150h1v11.563383153968289h-1Z" style="fill: #e0e0e0;"></path><path d="M344,150h1v24.93821840673013h-1Z" style="fill: #e0e0e0;"></path><path d="M388,150h1v20.513735822730496h-1Z" style="fill: #e0e0e0;"></path><path d="M317,150h1v26.964531950049746h-1Z" style="fill: #e0e0e0;"></path><path d="M101,150h1v51.96485977559598h-1Z" style="fill: #e0e0e0;"></path><path d="M504,150h1v6.325970701270563h-1Z" style="fill: #e0e0e0;"></path><path d="M331,150h1v25.500516704612238h-1Z" style="fill: #e0e0e0;"></path><path d="M305,150h1v27.930544427924474h-1Z" style="fill: #e0e0e0;"></path><path d="M243,150h1v33.81090622335h-1Z" style="fill: #e0e0e0;"></path><path d="M151,150h1v44.44673519521274h-1Z" style="fill: #e0e0e0;"></path><path d="M160,150h1v42.95920591741125h-1Z" style="fill: #e0e0e0;"></path><path d="M63,150h1v61.83990698247476h-1Z" style="fill: #e0e0e0;"></path><path d="M970,49.33995764642276h1v100.66004235357724h-1Z" style="fill: #e0e0e0;"></path><path d="M449,150h1v14.012251905494196h-1Z" style="fill: #e0e0e0;"></path><path d="M545,150h1v1.9109175720743679h-1Z" style="fill: #e0e0e0;"></path><path d="M794,106.00424271016647h1v43.995757289833534h-1Z" style="fill: #e0e0e0;"></path><path d="M490,150h1v9.73106484799905h-1Z" style="fill: #e0e0e0;"></path><path d="M984,20.328264049583026h1v129.67173595041697h-1Z" style="fill: #e0e0e0;"></path><path d="M378,150h1v21.351616195731623h-1Z" style="fill: #e0e0e0;"></path><path d="M556,149.15577035337014h1v0.8442296466298558h-1Z" style="fill: #e0e0e0;"></path><path d="M566,147.21987109571023h1v2.780128904289768h-1Z" style="fill: #e0e0e0;"></path><path d="M922,73.05261317580272h1v76.94738682419728h-1Z" style="fill: #e0e0e0;"></path><path d="M529,150h1v3.7329481163553737h-1Z" style="fill: #f00;"></path><path d="M153,150h1v43.74834757237949h-1Z" style="fill: #e0e0e0;"></path><path d="M189,150h1v39.447622112327h-1Z" style="fill: #e0e0e0;"></path><path d="M127,150h1v46.55623894124551h-1Z" style="fill: #e0e0e0;"></path><path d="M17,150h1v87.50815849690949h-1Z" style="fill: #e0e0e0;"></path><path d="M53,150h1v65.36767940907998h-1Z" style="fill: #e0e0e0;"></path><path d="M868,87.62634407668628h1v62.37365592331372h-1Z" style="fill: #e0e0e0;"></path><path d="M104,150h1v50.46647053151651h-1Z" style="fill: #e0e0e0;"></path><path d="M423,150h1v17.466358951621487h-1Z" style="fill: #e0e0e0;"></path><path d="M293,150h1v29.152540973716242h-1Z" style="fill: #e0e0e0;"></path><path d="M193,150h1v39.02993660359897h-1Z" style="fill: #e0e0e0;"></path><path d="M276,150h1v30.079428962760517h-1Z" style="fill: #e0e0e0;"></path><path d="M183,150h1v40.16190033345748h-1Z" style="fill: #e0e0e0;"></path><path d="M664,129.98207073598434h1v20.017929264015663h-1Z" style="fill: #e0e0e0;"></path><path d="M58,150h1v63.87150745778601h-1Z" style="fill: #e0e0e0;"></path><path d="M968,50.15237491517598h1v99.84762508482402h-1Z" style="fill: #f00;"></path><path d="M749,112.60454814820801h1v37.39545185179199h-1Z" style="fill: #e0e0e0;"></path><path d="M891,82.49389316826398h1v67.50610683173602h-1Z" style="fill: #e0e0e0;"></path><path d="M521,150h1v4.196719936423733h-1Z" style="fill: #e0e0e0;"></path><path d="M614,136.4249096432261h1v13.575090356773899h-1Z" style="fill: #e0e0e0;"></path><path d="M169,150h1v41.84840183644826h-1Z" style="fill: #e0e0e0;"></path><path d="M191,150h1v39.20028667836698h-1Z" style="fill: #e0e0e0;"></path><path d="M723,118.47353737741051h1v31.52646262258949h-1Z" style="fill: #e0e0e0;"></path><path d="M687,125.36215048223065h1v24.637849517769354h-1Z" style="fill: #e0e0e0;"></path><path d="M772,109.7513781109385h1v40.248621889061496h-1Z" style="fill: #e0e0e0;"></path><path d="M767,110.22937457948251h1v39.77062542051749h-1Z" style="fill: #e0e0e0;"></path><path d="M857,92.10272442489205h1v57.897275575107955h-1Z" style="fill: #e0e0e0;"></path><path d="M301,150h1v28.42734318166299h-1Z" style="fill: #e0e0e0;"></path><path d="M674,127.73217718987988h1v22.267822810120123h-1Z" style="fill: #e0e0e0;"></path><path d="M878,85.34746777205999h1v64.65253222794001h-1Z" style="fill: #e0e0e0;"></path><path d="M352,150h1v24.804441741996243h-1Z" style="fill: #e0e0e0;"></path><path d="M554,149.99679189115093h1v0.0032081088490656384h-1Z" style="fill: #e0e0e0;"></path><path d="M611,137.00271706967874h1v12.997282930321262h-1Z" style="fill: #e0e0e0;"></path><path d="M407,150h1v19.039766601615412h-1Z" style="fill: #e0e0e0;"></path><path d="M966,52.2541896620325h1v97.7458103379675h-1Z" style="fill: #e0e0e0;"></path><path d="M931,70.96117075472401h1v79.03882924527599h-1Z" style="fill: #e0e0e0;"></path><path d="M841,95.41770826964904h1v54.58229173035096h-1Z" style="fill: #e0e0e0;"></path><path d="M918,73.95821746378479h1v76.04178253621521h-1Z" style="fill: #e0e0e0;"></path><path d="M629,135.07891159444372h1v14.921088405556276h-1Z" style="fill: #e0e0e0;"></path><path d="M709,120.61305504231976h1v29.386944957680242h-1Z" style="fill: #e0e0e0;"></path><path d="M963,54.58693366437478h1v95.41306633562522h-1Z" style="fill: #e0e0e0;"></path><path d="M953,62.22393672853019h1v87.77606327146981h-1Z" style="fill: #e0e0e0;"></path><path d="M892,81.98038350730474h1v68.01961649269526h-1Z" style="fill: #e0e0e0;"></path><path d="M28,150h1v79.71954803853549h-1Z" style="fill: #e0e0e0;"></path><path d="M945,66.78808938651599h1v83.21191061348401h-1Z" style="fill: #e0e0e0;"></path><path d="M869,87.59700965076024h1v62.40299034923976h-1Z" style="fill: #f00;"></path><path d="M905,78.41456813677479h1v71.58543186322521h-1Z" style="fill: #e0e0e0;"></path><path d="M754,112.05758314519449h1v37.942416854805515h-1Z" style="fill: #e0e0e0;"></path><path d="M715,119.61106222062625h1v30.388937779373748h-1Z" style="fill: #e0e0e0;"></path><path d="M956,59.96912132888349h1v90.03087867111651h-1Z" style="fill: #e0e0e0;"></path><path d="M778,109.35180943398998h1v40.648190566010015h-1Z" style="fill: #e0e0e0;"></path><path d="M774,109.57420926480827h1v40.425790735191725h-1Z" style="fill: #e0e0e0;"></path><path d="M700,122.75141935735275h1v27.248580642647255h-1Z" style="fill: #e0e0e0;"></path><path d="M631,135.04283290296124h1v14.957167097038763h-1Z" style="fill: #e0e0e0;"></path><path d="M844,95.15045594363727h1v54.84954405636273h-1Z" style="fill: #e0e0e0;"></path><path d="M673,127.75451999097393h1v22.245480009026068h-1Z" style="fill: #e0e0e0;"></path><path d="M779,108.95300965695901h1v41.04699034304099h-1Z" style="fill: #e0e0e0;"></path><path d="M803,104.470245651298h1v45.529754348702h-1Z" style="fill: #e0e0e0;"></path><path d="M558,148.6431644478373h1v1.3568355521626927h-1Z" style="fill: #e0e0e0;"></path><path d="M539,150h1v2.843617013984158h-1Z" style="fill: #e0e0e0;"></path><path d="M623,135.41117172627972h1v14.588828273720281h-1Z" style="fill: #e0e0e0;"></path><path d="M12,150h1v94.59408979802652h-1Z" style="fill: #e0e0e0;"></path><path d="M934,70.44563155561025h1v79.55436844438975h-1Z" style="fill: #e0e0e0;"></path><path d="M870,87.59018193870102h1v62.40981806129898h-1Z" style="fill: #e0e0e0;"></path><path d="M149,150h1v44.68907575994052h-1Z" style="fill: #e0e0e0;"></path><path d="M155,150h1v43.68699055104776h-1Z" style="fill: #e0e0e0;"></path><path d="M809,102.67512511401699h1v47.32487488598301h-1Z" style="fill: #e0e0e0;"></path><path d="M903,79.0109560073845h1v70.9890439926155h-1Z" style="fill: #f00;"></path><path d="M483,150h1v10.28868418126629h-1Z" style="fill: #e0e0e0;"></path><path d="M117,150h1v47.94395428090627h-1Z" style="fill: #e0e0e0;"></path><path d="M76,150h1v59.22546844869174h-1Z" style="fill: #e0e0e0;"></path><path d="M516,150h1v5.255095771842434h-1Z" style="fill: #e0e0e0;"></path><path d="M872,86.94788228660147h1v63.05211771339853h-1Z" style="fill: #e0e0e0;"></path><path d="M910,77.69323728918351h1v72.30676271081649h-1Z" style="fill: #e0e0e0;"></path><path d="M933,70.48753958135174h1v79.51246041864826h-1Z" style="fill: #e0e0e0;"></path><path d="M297,150h1v28.769962600761005h-1Z" style="fill: #e0e0e0;"></path><path d="M813,101.7610640445285h1v48.238935955471504h-1Z" style="fill: #e0e0e0;"></path><path d="M180,150h1v40.308253578239004h-1Z" style="fill: #e0e0e0;"></path><path d="M532,150h1v3.4824178734354234h-1Z" style="fill: #e0e0e0;"></path><path d="M290,150h1v29.274802021079495h-1Z" style="fill: #e0e0e0;"></path><path d="M128,150h1v46.487908176475h-1Z" style="fill: #e0e0e0;"></path><path d="M753,112.1685461321405h1v37.831453867859494h-1Z" style="fill: #e0e0e0;"></path><path d="M314,150h1v27.343569807105496h-1Z" style="fill: #e0e0e0;"></path><path d="M812,101.8549383798175h1v48.1450616201825h-1Z" style="fill: #e0e0e0;"></path><path d="M443,150h1v14.934687427573635h-1Z" style="fill: #e0e0e0;"></path><path d="M547,150h1v1.436321548514826h-1Z" style="fill: #e0e0e0;"></path><path d="M295,150h1v29.022066406302997h-1Z" style="fill: #e0e0e0;"></path><path d="M190,150h1v39.21243410497226h-1Z" style="fill: #e0e0e0;"></path><path d="M747,113.02675764947452h1v36.97324235052548h-1Z" style="fill: #e0e0e0;"></path><path d="M461,150h1v12.839405349784329h-1Z" style="fill: #e0e0e0;"></path><path d="M636,134.64714746861983h1v15.352852531380165h-1Z" style="fill: #e0e0e0;"></path><path d="M156,150h1v43.19903116612949h-1Z" style="fill: #e0e0e0;"></path><path d="M583,142.7485094585948h1v7.25149054140519h-1Z" style="fill: #e0e0e0;"></path><path d="M31,150h1v76.87694292455251h-1Z" style="fill: #e0e0e0;"></path><path d="M54,150h1v65.22727470784699h-1Z" style="fill: #e0e0e0;"></path><path d="M714,119.71306662946273h1v30.28693337053727h-1Z" style="fill: #e0e0e0;"></path><path d="M216,150h1v36.7118166008525h-1Z" style="fill: #e0e0e0;"></path><path d="M909,77.75979419877075h1v72.24020580122925h-1Z" style="fill: #e0e0e0;"></path><path d="M952,62.818814925246755h1v87.18118507475324h-1Z" style="fill: #e0e0e0;"></path><path d="M911,76.95284590064801h1v73.04715409935199h-1Z" style="fill: #e0e0e0;"></path><path d="M842,95.26025216966198h1v54.73974783033802h-1Z" style="fill: #e0e0e0;"></path><path d="M914,75.60149386464875h1v74.39850613535125h-1Z" style="fill: #e0e0e0;"></path><path d="M871,87.03702773838575h1v62.962972261614254h-1Z" style="fill: #e0e0e0;"></path><path d="M863,89.81730576544328h1v60.18269423455672h-1Z" style="fill: #e0e0e0;"></path><path d="M717,119.168622902923h1v30.831377097076995h-1Z" style="fill: #e0e0e0;"></path><path d="M802,104.82016961961324h1v45.17983038038676h-1Z" style="fill: #e0e0e0;"></path><path d="M831,98.98165326505224h1v51.018346734947755h-1Z" style="fill: #e0e0e0;"></path><path d="M752,112.26279597669176h1v37.73720402330824h-1Z" style="fill: #e0e0e0;"></path><path d="M887,83.998043201261h1v66.001956798739h-1Z" style="fill: #e0e0e0;"></path><path d="M756,111.61064963727523h1v38.38935036272477h-1Z" style="fill: #e0e0e0;"></path><path d="M729,117.08630185514025h1v32.91369814485975h-1Z" style="fill: #e0e0e0;"></path><path d="M824,100.23446690230898h1v49.76553309769102h-1Z" style="fill: #e0e0e0;"></path><path d="M578,144.17578440099282h1v5.824215599007175h-1Z" style="fill: #e0e0e0;"></path><path d="M734,116.29634063630624h1v33.70365936369376h-1Z" style="fill: #e0e0e0;"></path><path d="M815,101.29322271733798h1v48.70677728266202h-1Z" style="fill: #e0e0e0;"></path><path d="M821,100.51566671519797h1v49.484333284802034h-1Z" style="fill: #e0e0e0;"></path><path d="M875,86.00497331409977h1v63.99502668590023h-1Z" style="fill: #e0e0e0;"></path><path d="M829,99.34553217082552h1v50.65446782917448h-1Z" style="fill: #e0e0e0;"></path><path d="M786,108.34764700322674h1v41.65235299677326h-1Z" style="fill: #e0e0e0;"></path><path d="M702,122.0824138441615h1v27.917586155838507h-1Z" style="fill: #e0e0e0;"></path><path d="M823,100.32198589234875h1v49.67801410765125h-1Z" style="fill: #e0e0e0;"></path><path d="M763,110.58585505872301h1v39.41414494127699h-1Z" style="fill: #e0e0e0;"></path><path d="M866,88.22782646804376h1v61.77217353195624h-1Z" style="fill: #e0e0e0;"></path><path d="M615,136.4143536606364h1v13.585646339363592h-1Z" style="fill: #e0e0e0;"></path><path d="M788,107.38589327722124h1v42.61410672277876h-1Z" style="fill: #e0e0e0;"></path><path d="M697,123.88452749639077h1v26.115472503609226h-1Z" style="fill: #e0e0e0;"></path><path d="M832,98.90239547877826h1v51.09760452122174h-1Z" style="fill: #e0e0e0;"></path><path d="M585,142.09464650540875h1v7.905353494591253h-1Z" style="fill: #e0e0e0;"></path><path d="M733,116.3487420597605h1v33.6512579402395h-1Z" style="fill: #e0e0e0;"></path><path d="M800,105.23530106931247h1v44.76469893068753h-1Z" style="fill: #e0e0e0;"></path><path d="M683,125.91930191903634h1v24.080698080963657h-1Z" style="fill: #e0e0e0;"></path><path d="M810,102.66416680007501h1v47.33583319992499h-1Z" style="fill: #e0e0e0;"></path><path d="M757,111.30519967465924h1v38.694800325340765h-1Z" style="fill: #e0e0e0;"></path><path d="M701,122.11032669930975h1v27.889673300690248h-1Z" style="fill: #e0e0e0;"></path><path d="M644,133.1029818573527h1v16.897018142647312h-1Z" style="fill: #e0e0e0;"></path><path d="M684,125.69084327607675h1v24.30915672392325h-1Z" style="fill: #e0e0e0;"></path><path d="M760,110.96488993554624h1v39.03511006445376h-1Z" style="fill: #e0e0e0;"></path><path d="M751,112.26505797296099h1v37.73494202703901h-1Z" style="fill: #e0e0e0;"></path><path d="M537,150h1v2.9417977848581813h-1Z" style="fill: #e0e0e0;"></path><path d="M748,112.84237068086202h1v37.15762931913798h-1Z" style="fill: #e0e0e0;"></path><path d="M571,146.20901804357095h1v3.79098195642905h-1Z" style="fill: #e0e0e0;"></path><path d="M643,133.17794661908673h1v16.822053380913275h-1Z" style="fill: #e0e0e0;"></path><path d="M894,81.28791648834274h1v68.71208351165726h-1Z" style="fill: #e0e0e0;"></path><path d="M633,134.92283087163494h1v15.077169128365057h-1Z" style="fill: #e0e0e0;"></path><path d="M457,150h1v13.012592605643732h-1Z" style="fill: #e0e0e0;"></path><path d="M574,144.81727939038797h1v5.1827206096120335h-1Z" style="fill: #e0e0e0;"></path><path d="M624,135.40479402928872h1v14.595205970711277h-1Z" style="fill: #e0e0e0;"></path><path d="M543,150h1v2.561055234961941h-1Z" style="fill: #e0e0e0;"></path><path d="M755,111.85961823850204h1v38.14038176149796h-1Z" style="fill: #e0e0e0;"></path><path d="M616,136.30778651624246h1v13.692213483757541h-1Z" style="fill: #e0e0e0;"></path><path d="M555,149.55377440839334h1v0.4462255916066624h-1Z" style="fill: #e0e0e0;"></path><path d="M239,150h1v33.92432194142876h-1Z" style="fill: #e0e0e0;"></path><path d="M692,124.12091057687326h1v25.879089423126743h-1Z" style="fill: #e0e0e0;"></path><path d="M604,138.6952565231852h1v11.304743476814792h-1Z" style="fill: #e0e0e0;"></path><path d="M517,150h1v5.120085290961725h-1Z" style="fill: #e0e0e0;"></path><path d="M445,150h1v14.429114870124295h-1Z" style="fill: #e0e0e0;"></path><path d="M924,72.47606154470975h1v77.52393845529025h-1Z" style="fill: #e0e0e0;"></path><path d="M886,84.3958878138595h1v65.6041121861405h-1Z" style="fill: #e0e0e0;"></path><path d="M694,124.01028435617025h1v25.989715643829754h-1Z" style="fill: #e0e0e0;"></path><path d="M928,71.71341489940198h1v78.28658510059802h-1Z" style="fill: #e0e0e0;"></path><path d="M737,115.20840685754351h1v34.79159314245649h-1Z" style="fill: #e0e0e0;"></path><path d="M927,72.1978065738015h1v77.8021934261985h-1Z" style="fill: #e0e0e0;"></path><path d="M738,114.96567588239225h1v35.03432411760775h-1Z" style="fill: #e0e0e0;"></path><path d="M302,150h1v28.35704546361501h-1Z" style="fill: #e0e0e0;"></path><path d="M954,61.156910769038745h1v88.84308923096125h-1Z" style="fill: #e0e0e0;"></path><path d="M942,67.99320589690728h1v82.00679410309272h-1Z" style="fill: #e0e0e0;"></path><path d="M699,123.35962813287301h1v26.640371867126987h-1Z" style="fill: #e0e0e0;"></path><path d="M839,96.257634572082h1v53.742365427918h-1Z" style="fill: #e0e0e0;"></path><path d="M635,134.7286866226725h1v15.271313377327488h-1Z" style="fill: #e0e0e0;"></path><path d="M840,95.98535906463201h1v54.01464093536799h-1Z" style="fill: #e0e0e0;"></path><path d="M530,150h1v3.6243067303232976h-1Z" style="fill: #e0e0e0;"></path><path d="M231,150h1v34.89492397695099h-1Z" style="fill: #e0e0e0;"></path><path d="M47,150h1v67.70953398137624h-1Z" style="fill: #e0e0e0;"></path><path d="M210,150h1v37.61004667668874h-1Z" style="fill: #e0e0e0;"></path><path d="M278,150h1v30.03972034841101h-1Z" style="fill: #e0e0e0;"></path><path d="M610,137.0442317047648h1v12.955768295235202h-1Z" style="fill: #e0e0e0;"></path><path d="M523,150h1v4.121802858405573h-1Z" style="fill: #e0e0e0;"></path><path d="M907,78.2023043551975h1v71.7976956448025h-1Z" style="fill: #e0e0e0;"></path><path d="M294,150h1v29.07608013539823h-1Z" style="fill: #e0e0e0;"></path><path d="M78,150h1v58.20832710652877h-1Z" style="fill: #e0e0e0;"></path><path d="M247,150h1v33.496837429099514h-1Z" style="fill: #e0e0e0;"></path><path d="M398,150h1v19.63453154950662h-1Z" style="fill: #e0e0e0;"></path><path d="M350,150h1v24.860315136008694h-1Z" style="fill: #e0e0e0;"></path><path d="M477,150h1v11.358223966651423h-1Z" style="fill: #e0e0e0;"></path><path d="M719,118.8440547504955h1v31.155945249504498h-1Z" style="fill: #e0e0e0;"></path><path d="M650,132.05062013059182h1v17.949379869408176h-1Z" style="fill: #e0e0e0;"></path><path d="M170,150h1v41.64293270497848h-1Z" style="fill: #e0e0e0;"></path><path d="M446,150h1v14.404671005301907h-1Z" style="fill: #e0e0e0;"></path><path d="M115,150h1v48.69282703786422h-1Z" style="fill: #e0e0e0;"></path><path d="M510,150h1v5.74718575864361h-1Z" style="fill: #e0e0e0;"></path><path d="M472,150h1v11.677013448768122h-1Z" style="fill: #e0e0e0;"></path><path d="M853,93.206888548427h1v56.793111451573h-1Z" style="fill: #e0e0e0;"></path><path d="M798,105.67305546193651h1v44.326944538063486h-1Z" style="fill: #e0e0e0;"></path><path d="M782,108.72064392953448h1v41.279356070465525h-1Z" style="fill: #e0e0e0;"></path><path d="M10,150h1v103.07323198705251h-1Z" style="fill: #e0e0e0;"></path><path d="M896,80.49985609888347h1v69.50014390111653h-1Z" style="fill: #e0e0e0;"></path><path d="M712,119.92428462892101h1v30.075715371078985h-1Z" style="fill: #e0e0e0;"></path><path d="M814,101.760135702186h1v48.239864297813995h-1Z" style="fill: #e0e0e0;"></path><path d="M372,150h1v21.944938711219294h-1Z" style="fill: #e0e0e0;"></path><path d="M176,150h1v40.96497755437423h-1Z" style="fill: #e0e0e0;"></path><path d="M581,143.93452268033548h1v6.065477319664524h-1Z" style="fill: #e0e0e0;"></path><path d="M680,126.69882040410565h1v23.301179595894354h-1Z" style="fill: #e0e0e0;"></path><path d="M3,150h1v119.24745302587075h-1Z" style="fill: #e0e0e0;"></path><path d="M791,106.434266380363h1v43.565733619637h-1Z" style="fill: #e0e0e0;"></path><path d="M512,150h1v5.668573192649319h-1Z" style="fill: #e0e0e0;"></path><path d="M649,132.17854957967324h1v17.821450420326755h-1Z" style="fill: #e0e0e0;"></path><path d="M854,93.19035869031475h1v56.80964130968525h-1Z" style="fill: #e0e0e0;"></path><path d="M651,131.8537519493632h1v18.146248050636814h-1Z" style="fill: #e0e0e0;"></path><path d="M696,123.91373973279525h1v26.08626026720475h-1Z" style="fill: #e0e0e0;"></path><path d="M471,150h1v11.689363531165554h-1Z" style="fill: #e0e0e0;"></path><path d="M856,92.99556326060826h1v57.004436739391736h-1Z" style="fill: #e0e0e0;"></path><path d="M454,150h1v13.51941090016885h-1Z" style="fill: #e0e0e0;"></path><path d="M236,150h1v34.0321229019695h-1Z" style="fill: #e0e0e0;"></path><path d="M860,91.67298983722247h1v58.327010162777526h-1Z" style="fill: #e0e0e0;"></path><path d="M464,150h1v12.440644315772488h-1Z" style="fill: #e0e0e0;"></path><path d="M409,150h1v18.808309845023615h-1Z" style="fill: #e0e0e0;"></path><path d="M38,150h1v71.53232555776177h-1Z" style="fill: #e0e0e0;"></path><path d="M601,139.43051557927654h1v10.569484420723455h-1Z" style="fill: #e0e0e0;"></path><path d="M951,62.96701442389997h1v87.03298557610003h-1Z" style="fill: #e0e0e0;"></path><path d="M209,150h1v37.721590808921235h-1Z" style="fill: #e0e0e0;"></path><path d="M773,109.7160921612315h1v40.2839078387685h-1Z" style="fill: #e0e0e0;"></path><path d="M538,150h1v2.8896139183572984h-1Z" style="fill: #e0e0e0;"></path><path d="M158,150h1v43.00252657323401h-1Z" style="fill: #e0e0e0;"></path><path d="M130,150h1v46.16306286244924h-1Z" style="fill: #e0e0e0;"></path><path d="M640,133.67853622823284h1v16.321463771767156h-1Z" style="fill: #e0e0e0;"></path><path d="M603,139.13963299184365h1v10.860367008156345h-1Z" style="fill: #e0e0e0;"></path><path d="M91,150h1v53.546993545584996h-1Z" style="fill: #e0e0e0;"></path><path d="M286,150h1v29.755561164908727h-1Z" style="fill: #e0e0e0;"></path><path d="M204,150h1v38.1267712631755h-1Z" style="fill: #e0e0e0;"></path><path d="M50,150h1v66.58598642736001h-1Z" style="fill: #e0e0e0;"></path><path d="M355,150h1v24.634860567145807h-1Z" style="fill: #e0e0e0;"></path><path d="M330,150h1v25.524203590446007h-1Z" style="fill: #e0e0e0;"></path><path d="M500,150h1v7.637368253760769h-1Z" style="fill: #e0e0e0;"></path><path d="M357,150h1v24.273167661719754h-1Z" style="fill: #e0e0e0;"></path><path d="M550,150h1v1.0777936497263454h-1Z" style="fill: #e0e0e0;"></path><path d="M182,150h1v40.16972046285201h-1Z" style="fill: #e0e0e0;"></path><path d="M334,150h1v25.306998304420006h-1Z" style="fill: #e0e0e0;"></path><path d="M552,150h1v0.5496845760874294h-1Z" style="fill: #e0e0e0;"></path><path d="M343,150h1v24.959324411445095h-1Z" style="fill: #e0e0e0;"></path><path d="M179,150h1v40.34263353734525h-1Z" style="fill: #e0e0e0;"></path><path d="M298,150h1v28.755466751151516h-1Z" style="fill: #e0e0e0;"></path><path d="M883,84.86784260659749h1v65.13215739340251h-1Z" style="fill: #e0e0e0;"></path><path d="M129,150h1v46.37346725850625h-1Z" style="fill: #e0e0e0;"></path><path d="M627,135.1580963650279h1v14.841903634972113h-1Z" style="fill: #e0e0e0;"></path><path d="M417,150h1v18.289099744849636h-1Z" style="fill: #e0e0e0;"></path><path d="M360,150h1v23.935388139777615h-1Z" style="fill: #e0e0e0;"></path><path d="M44,150h1v68.25467806249173h-1Z" style="fill: #e0e0e0;"></path><path d="M307,150h1v27.763413003974506h-1Z" style="fill: #e0e0e0;"></path><path d="M248,150h1v33.43742351918752h-1Z" style="fill: #e0e0e0;"></path><path d="M265,150h1v31.35447960286649h-1Z" style="fill: #e0e0e0;"></path><path d="M390,150h1v20.36845546155496h-1Z" style="fill: #e0e0e0;"></path><path d="M107,150h1v50.134949497275755h-1Z" style="fill: #e0e0e0;"></path><path d="M487,150h1v9.905807785087092h-1Z" style="fill: #e0e0e0;"></path><path d="M450,150h1v13.964150957160399h-1Z" style="fill: #e0e0e0;"></path><path d="M502,150h1v6.517545990043118h-1Z" style="fill: #e0e0e0;"></path><path d="M736,115.53459327607672h1v34.46540672392328h-1Z" style="fill: #e0e0e0;"></path><path d="M133,150h1v45.935480407767756h-1Z" style="fill: #00f;"></path><path d="M486,150h1v10.046617797904446h-1Z" style="fill: #e0e0e0;"></path><path d="M519,150h1v5.036221555762751h-1Z" style="fill: #e0e0e0;"></path><path d="M478,150h1v11.215846351676419h-1Z" style="fill: #e0e0e0;"></path><path d="M413,150h1v18.587474636130793h-1Z" style="fill: #e0e0e0;"></path><path d="M825,99.81316488175923h1v50.186835118240765h-1Z" style="fill: #e0e0e0;"></path><path d="M936,69.77520298152504h1v80.22479701847496h-1Z" style="fill: #e0e0e0;"></path><path d="M720,118.82650118260898h1v31.17349881739102h-1Z" style="fill: #e0e0e0;"></path><path d="M655,131.2549696484141h1v18.74503035158591h-1Z" style="fill: #00f;"></path><path d="M200,150h1v38.752333931022235h-1Z" style="fill: #e0e0e0;"></path><path d="M292,150h1v29.19042568593548h-1Z" style="fill: #e0e0e0;"></path><path d="M447,150h1v14.328394941382868h-1Z" style="fill: #e0e0e0;"></path><path d="M347,150h1v24.904124549918606h-1Z" style="fill: #e0e0e0;"></path><path d="M75,150h1v59.30763941197927h-1Z" style="fill: #e0e0e0;"></path><path d="M456,150h1v13.433323911719782h-1Z" style="fill: #e0e0e0;"></path><path d="M338,150h1v25.072746089988243h-1Z" style="fill: #e0e0e0;"></path><path d="M84,150h1v55.89949350743825h-1Z" style="fill: #e0e0e0;"></path><path d="M23,150h1v84.37198858647875h-1Z" style="fill: #e0e0e0;"></path><path d="M291,150h1v29.26097374349149h-1Z" style="fill: #e0e0e0;"></path><path d="M26,150h1v81.55147295384927h-1Z" style="fill: #e0e0e0;"></path><path d="M542,150h1v2.5860832253031276h-1Z" style="fill: #e0e0e0;"></path><path d="M565,147.46150832562967h1v2.5384916743703343h-1Z" style="fill: #e0e0e0;"></path><path d="M336,150h1v25.19827943234975h-1Z" style="fill: #e0e0e0;"></path><path d="M412,150h1v18.60000353246255h-1Z" style="fill: #e0e0e0;"></path><path d="M588,141.51257734685464h1v8.487422653145359h-1Z" style="fill: #e0e0e0;"></path><path d="M414,150h1v18.54114394574688h-1Z" style="fill: #e0e0e0;"></path><path d="M94,150h1v53.09652548223073h-1Z" style="fill: #e0e0e0;"></path><path d="M405,150h1v19.059573225074246h-1Z" style="fill: #e0e0e0;"></path><path d="M346,150h1v24.930279068046048h-1Z" style="fill: #e0e0e0;"></path><path d="M506,150h1v6.110786012702448h-1Z" style="fill: #e0e0e0;"></path><path d="M427,150h1v16.92648392110391h-1Z" style="fill: #e0e0e0;"></path><path d="M353,150h1v24.76339202313943h-1Z" style="fill: #e0e0e0;"></path><path d="M165,150h1v42.27160673528249h-1Z" style="fill: #00f;"></path><path d="M848,94.36263006120254h1v55.63736993879746h-1Z" style="fill: #e0e0e0;"></path><path d="M880,85.02822231441075h1v64.97177768558925h-1Z" style="fill: #f00;"></path><path d="M325,150h1v26.325170806937763h-1Z" style="fill: #e0e0e0;"></path><path d="M79,150h1v57.655029110007746h-1Z" style="fill: #e0e0e0;"></path><path d="M175,150h1v41.17343883901174h-1Z" style="fill: #e0e0e0;"></path><path d="M380,150h1v21.298156789832547h-1Z" style="fill: #e0e0e0;"></path><path d="M479,150h1v10.88845591931863h-1Z" style="fill: #e0e0e0;"></path><path d="M29,150h1v79.50069170384927h-1Z" style="fill: #e0e0e0;"></path><path d="M879,85.26666250019602h1v64.73333749980398h-1Z" style="fill: #e0e0e0;"></path><path d="M885,84.45755924969254h1v65.54244075030746h-1Z" style="fill: #e0e0e0;"></path><path d="M308,150h1v27.682279161506244h-1Z" style="fill: #e0e0e0;"></path><path d="M587,141.69289331822918h1v8.307106681770819h-1Z" style="fill: #e0e0e0;"></path><path d="M735,115.77551823049126h1v34.22448176950874h-1Z" style="fill: #e0e0e0;"></path><path d="M186,150h1v39.86299496083774h-1Z" style="fill: #e0e0e0;"></path><path d="M57,150h1v64.00460462956949h-1Z" style="fill: #e0e0e0;"></path><path d="M264,150h1v31.415681652122004h-1Z" style="fill: #e0e0e0;"></path><path d="M320,150h1v26.82658892064626h-1Z" style="fill: #e0e0e0;"></path><path d="M109,150h1v49.55102663426925h-1Z" style="fill: #e0e0e0;"></path><path d="M100,150h1v52.04815130620523h-1Z" style="fill: #e0e0e0;"></path><path d="M381,150h1v21.29204135327859h-1Z" style="fill: #e0e0e0;"></path><path d="M6,150h1v111.82945232778127h-1Z" style="fill: #e0e0e0;"></path><path d="M466,150h1v12.350992969565823h-1Z" style="fill: #e0e0e0;"></path><path d="M329,150h1v25.973902753882726h-1Z" style="fill: #e0e0e0;"></path><path d="M619,136.11451249509375h1v13.885487504906251h-1Z" style="fill: #e0e0e0;"></path><path d="M411,150h1v18.716035894446804h-1Z" style="fill: #e0e0e0;"></path><path d="M235,150h1v34.51301317601724h-1Z" style="fill: #e0e0e0;"></path><path d="M429,150h1v16.348712257438137h-1Z" style="fill: #e0e0e0;"></path><path d="M489,150h1v9.803091100745633h-1Z" style="fill: #e0e0e0;"></path><path d="M227,150h1v35.2700756111675h-1Z" style="fill: #e0e0e0;"></path><path d="M324,150h1v26.509253791861994h-1Z" style="fill: #e0e0e0;"></path><path d="M415,150h1v18.42610698133035h-1Z" style="fill: #e0e0e0;"></path><path d="M609,137.53774624257605h1v12.462253757423952h-1Z" style="fill: #e0e0e0;"></path><path d="M628,135.08878808408306h1v14.911211915916937h-1Z" style="fill: #e0e0e0;"></path><path d="M533,150h1v3.2490776100687526h-1Z" style="fill: #e0e0e0;"></path><path d="M296,150h1v28.849665931754487h-1Z" style="fill: #e0e0e0;"></path><path d="M20,150h1v85.44503908544101h-1Z" style="fill: #e0e0e0;"></path><path d="M37,150h1v72.38617401509799h-1Z" style="fill: #e0e0e0;"></path><path d="M326,150h1v26.188437751823017h-1Z" style="fill: #e0e0e0;"></path><path d="M582,143.8212857761912h1v6.178714223808811h-1Z" style="fill: #e0e0e0;"></path><path d="M251,150h1v33.333067707114765h-1Z" style="fill: #e0e0e0;"></path><path d="M617,136.2495050945811h1v13.75049490541889h-1Z" style="fill: #e0e0e0;"></path><path d="M549,150h1v1.1873112240366481h-1Z" style="fill: #e0e0e0;"></path><path d="M250,150h1v33.352975658469745h-1Z" style="fill: #e0e0e0;"></path><path d="M345,150h1v24.93390899091287h-1Z" style="fill: #e0e0e0;"></path><path d="M630,135.05186896710916h1v14.948131032890842h-1Z" style="fill: #e0e0e0;"></path><path d="M515,150h1v5.272548011832669h-1Z" style="fill: #e0e0e0;"></path><path d="M505,150h1v6.194405368857815h-1Z" style="fill: #e0e0e0;"></path><path d="M434,150h1v16.084157041602566h-1Z" style="fill: #e0e0e0;"></path><path d="M234,150h1v34.74052410512502h-1Z" style="fill: #e0e0e0;"></path><path d="M597,139.71931200414224h1v10.280687995857761h-1Z" style="fill: #e0e0e0;"></path><path d="M599,139.4874082127146h1v10.512591787285402h-1Z" style="fill: #e0e0e0;"></path><path d="M775,109.55337446122701h1v40.44662553877299h-1Z" style="fill: #e0e0e0;"></path><path d="M876,85.87966497927226h1v64.12033502072774h-1Z" style="fill: #e0e0e0;"></path><path d="M743,113.70203953176073h1v36.29796046823927h-1Z" style="fill: #e0e0e0;"></path><path d="M541,150h1v2.7345345535807155h-1Z" style="fill: #e0e0e0;"></path><path d="M300,150h1v28.580264858298733h-1Z" style="fill: #e0e0e0;"></path><path d="M396,150h1v19.928638748221857h-1Z" style="fill: #e0e0e0;"></path><path d="M256,150h1v32.35698204427274h-1Z" style="fill: #e0e0e0;"></path><path d="M145,150h1v45.20502548604526h-1Z" style="fill: #e0e0e0;"></path><path d="M253,150h1v33.00793629079374h-1Z" style="fill: #e0e0e0;"></path><path d="M349,150h1v24.89147644429727h-1Z" style="fill: #e0e0e0;"></path><path d="M698,123.70781760602526h1v26.29218239397474h-1Z" style="fill: #e0e0e0;"></path><path d="M820,100.68103384166275h1v49.31896615833725h-1Z" style="fill: #e0e0e0;"></path><path d="M919,73.63264646320877h1v76.36735353679123h-1Z" style="fill: #e0e0e0;"></path><path d="M315,150h1v27.262203506522496h-1Z" style="fill: #e0e0e0;"></path><path d="M402,150h1v19.34218864827676h-1Z" style="fill: #e0e0e0;"></path><path d="M693,124.11058407216598h1v25.889415927834023h-1Z" style="fill: #e0e0e0;"></path><path d="M711,120.015700272613h1v29.984299727386997h-1Z" style="fill: #e0e0e0;"></path><path d="M124,150h1v47.01030712514452h-1Z" style="fill: #e0e0e0;"></path><path d="M385,150h1v20.845721773200466h-1Z" style="fill: #e0e0e0;"></path><path d="M482,150h1v10.290132574134333h-1Z" style="fill: #e0e0e0;"></path><path d="M367,150h1v22.79183130651046h-1Z" style="fill: #e0e0e0;"></path><path d="M284,150h1v29.822628311209996h-1Z" style="fill: #e0e0e0;"></path><path d="M226,150h1v35.40144424825223h-1Z" style="fill: #e0e0e0;"></path><path d="M433,150h1v16.114692501121027h-1Z" style="fill: #e0e0e0;"></path><path d="M288,150h1v29.56034403234051h-1Z" style="fill: #e0e0e0;"></path><path d="M861,91.34229581742801h1v58.65770418257199h-1Z" style="fill: #e0e0e0;"></path><path d="M266,150h1v31.282167247824987h-1Z" style="fill: #e0e0e0;"></path><path d="M356,150h1v24.592290929847195h-1Z" style="fill: #e0e0e0;"></path><path d="M397,150h1v19.674401096396878h-1Z" style="fill: #e0e0e0;"></path><path d="M263,150h1v31.493024639182522h-1Z" style="fill: #e0e0e0;"></path><path d="M762,110.837797931724h1v39.162202068276h-1Z" style="fill: #e0e0e0;"></path><path d="M676,127.29846399217175h1v22.701536007828253h-1Z" style="fill: #e0e0e0;"></path><path d="M198,150h1v38.79499893575223h-1Z" style="fill: #e0e0e0;"></path><path d="M125,150h1v46.85221176534225h-1Z" style="fill: #e0e0e0;"></path><path d="M514,150h1v5.419014505439236h-1Z" style="fill: #e0e0e0;"></path></g><g class="mark-group role-legend"><g transform="translate(10,10)"><path class="background" d="M0,0h212v73h-212Z" style="pointer-events: none; fill: none;"></path><g><g class="mark-group role-legend-entry"><g transform="translate(0,21)"><path class="background" d="M0,0h0v0h0Z" style="pointer-events: none; fill: none;"></path><g><g class="mark-group role-scope"><g transform="translate(0,0)"><path class="background" d="M0,0h125v16h-125Z" style="pointer-events: none; fill: none; opacity: 1;"></path><g><g class="mark-symbol role-legend-symbol" style="pointer-events: none;"><path transform="translate(8,8)" d="M-5,-5h10v10h-10Z" style="fill: #e0e0e0; stroke-width: 1.5; opacity: 1;"></path></g><g class="mark-text role-legend-label" style="pointer-events: none;"><text text-anchor="start" transform="translate(20,13)" style="font-family: sans-serif; font-size: 16px; fill: #000; opacity: 1;">None</text></g></g></g><g transform="translate(0,18)"><path class="background" d="M0,0h125v16h-125Z" style="pointer-events: none; fill: none; opacity: 1;"></path><g><g class="mark-symbol role-legend-symbol" style="pointer-events: none;"><path transform="translate(8,8)" d="M-5,-5h10v10h-10Z" style="fill: #f00; stroke-width: 1.5; opacity: 1;"></path></g><g class="mark-text role-legend-label" style="pointer-events: none;"><text text-anchor="start" transform="translate(20,13)" style="font-family: sans-serif; font-size: 16px; fill: #000; opacity: 1;">Numerator</text></g></g></g><g transform="translate(0,36)"><path class="background" d="M0,0h125v16h-125Z" style="pointer-events: none; fill: none; opacity: 1;"></path><g><g class="mark-symbol role-legend-symbol" style="pointer-events: none;"><path transform="translate(8,8)" d="M-5,-5h10v10h-10Z" style="fill: #00f; stroke-width: 1.5; opacity: 1;"></path></g><g class="mark-text role-legend-label" style="pointer-events: none;"><text text-anchor="start" transform="translate(20,13)" style="font-family: sans-serif; font-size: 16px; fill: #000; opacity: 1;">Denominator</text></g></g></g></g></g></g></g><g class="mark-text role-legend-title" style="pointer-events: none;"><text text-anchor="start" transform="translate(0,13)" style="font-family: sans-serif; font-size: 16px; font-weight: bold; fill: #000; opacity: 1;">Log-Ratio Classification</text></g></g></g></g><g class="mark-text role-title" style="pointer-events: none;"><text text-anchor="middle" transform="translate(493.5,-10)" style="font-family: sans-serif; font-size: 24px; font-weight: bold; fill: #000; opacity: 1;">Features</text></g><g class="mark-group role-axis"><g transform="translate(0.5,300.5)"><path class="background" d="M0,0h0v0h0Z" style="pointer-events: none; fill: none;"></path><g><g class="mark-rule role-axis-domain" style="pointer-events: none;"><line transform="translate(0,0)" x2="987" y2="0" style="fill: none; stroke: #888; stroke-width: 1; opacity: 1;"></line></g><g class="mark-text role-axis-title" style="pointer-events: none;"><text text-anchor="middle" transform="translate(493.5,20)" style="font-family: sans-serif; font-size: 20px; font-weight: bold; fill: #000; opacity: 1;">Feature Rankings</text></g></g></g></g><g class="mark-group role-axis"><g transform="translate(0.5,0.5)"><path class="background" d="M0,0h0v0h0Z" style="pointer-events: none; fill: none;"></path><g><g class="mark-rule role-axis-tick" style="pointer-events: none;"><line transform="translate(0,300)" x2="-5" y2="0" style="fill: none; stroke: #888; stroke-width: 1; opacity: 1;"></line><line transform="translate(0,250)" x2="-5" y2="0" style="fill: none; stroke: #888; stroke-width: 1; opacity: 1;"></line><line transform="translate(0,200)" x2="-5" y2="0" style="fill: none; stroke: #888; stroke-width: 1; opacity: 1;"></line><line transform="translate(0,150)" x2="-5" y2="0" style="fill: none; stroke: #888; stroke-width: 1; opacity: 1;"></line><line transform="translate(0,100)" x2="-5" y2="0" style="fill: none; stroke: #888; stroke-width: 1; opacity: 1;"></line><line transform="translate(0,50)" x2="-5" y2="0" style="fill: none; stroke: #888; stroke-width: 1; opacity: 1;"></line><line transform="translate(0,0)" x2="-5" y2="0" style="fill: none; stroke: #888; stroke-width: 1; opacity: 1;"></line></g><g class="mark-text role-axis-label" style="pointer-events: none;"><text text-anchor="end" transform="translate(-7,305)" style="font-family: sans-serif; font-size: 16px; fill: #000; opacity: 0;">-6</text><text text-anchor="end" transform="translate(-7,255)" style="font-family: sans-serif; font-size: 16px; fill: #000; opacity: 1;">-4</text><text text-anchor="end" transform="translate(-7,205)" style="font-family: sans-serif; font-size: 16px; fill: #000; opacity: 1;">-2</text><text text-anchor="end" transform="translate(-7,155)" style="font-family: sans-serif; font-size: 16px; fill: #000; opacity: 1;">0</text><text text-anchor="end" transform="translate(-7,105)" style="font-family: sans-serif; font-size: 16px; fill: #000; opacity: 1;">2</text><text text-anchor="end" transform="translate(-7,55)" style="font-family: sans-serif; font-size: 16px; fill: #000; opacity: 1;">4</text><text text-anchor="end" transform="translate(-7,5)" style="font-family: sans-serif; font-size: 16px; fill: #000; opacity: 0;">6</text></g><g class="mark-rule role-axis-domain" style="pointer-events: none;"><line transform="translate(0,300)" x2="0" y2="-300" style="fill: none; stroke: #888; stroke-width: 1; opacity: 1;"></line></g><g class="mark-text role-axis-title" style="pointer-events: none;"><text text-anchor="middle" transform="translate(-27,150) rotate(-90) translate(0,-4)" style="font-family: sans-serif; font-size: 20px; font-weight: bold; fill: #000; opacity: 1;">Gill Differentials</text></g></g></g></g></g></g></g></g></svg>